<ttFont>
    <TTGlyph name=".notdef" xMin="54" yMin="-50" xMax="969" yMax="1434">
      <contour>
        <pt x="969" y="-50" on="1"/>
        <pt x="54" y="-50" on="1"/>
        <pt x="54" y="1434" on="1"/>
        <pt x="969" y="1434" on="1"/>
      </contour>
      <contour>
        <pt x="177" y="1312" on="1"/>
        <pt x="177" y="73" on="1"/>
        <pt x="847" y="73" on="1"/>
        <pt x="847" y="1312" on="1"/>
      </contour>
      <contour>
        <pt x="232" y="886" on="1"/>
        <pt x="311" y="971" on="1"/>
        <pt x="511" y="772" on="1"/>
        <pt x="710" y="971" on="1"/>
        <pt x="789" y="886" on="1"/>
        <pt x="593" y="690" on="1"/>
        <pt x="779" y="503" on="1"/>
        <pt x="700" y="418" on="1"/>
        <pt x="511" y="608" on="1"/>
        <pt x="321" y="418" on="1"/>
        <pt x="242" y="503" on="1"/>
        <pt x="429" y="690" on="1"/>
      </contour>
    </TTGlyph>
    <TTGlyph name="A" xMin="-28" yMin="0" xMax="1358" yMax="1419">
      <contour>
        <pt x="1337" y="0" on="1"/>
        <pt x="818" y="0" on="1"/>
        <pt x="834" y="86" on="1"/>
        <pt x="998" y="133" on="1"/>
        <pt x="878" y="451" on="1"/>
        <pt x="642" y="437" on="0"/>
        <pt x="414" y="437" on="1"/>
        <pt x="384" y="437" on="1"/>
        <pt x="281" y="138" on="1"/>
        <pt x="487" y="83" on="1"/>
        <pt x="469" y="0" on="1"/>
        <pt x="-28" y="0" on="1"/>
        <pt x="-10" y="95" on="1"/>
        <pt x="145" y="142" on="1"/>
        <pt x="596" y="1384" on="1"/>
        <pt x="715" y="1419" on="1"/>
        <pt x="1207" y="133" on="1"/>
        <pt x="1358" y="99" on="1"/>
      </contour>
      <contour>
        <pt x="614" y="1155" on="1"/>
        <pt x="603" y="1087" on="0"/>
        <pt x="428" y="568" on="1"/>
        <pt x="835" y="568" on="1"/>
      </contour>
    </TTGlyph>
    <TTGlyph name="AE" xMin="-33" yMin="0" xMax="1771" yMax="1397">
      <contour>
        <pt x="454" y="440" on="1"/>
        <pt x="294" y="138" on="1"/>
        <pt x="480" y="82" on="1"/>
        <pt x="460" y="0" on="1"/>
        <pt x="-33" y="0" on="1"/>
        <pt x="-13" y="95" on="1"/>
        <pt x="139" y="142" on="1"/>
        <pt x="747" y="1249" on="1"/>
        <pt x="558" y="1301" on="1"/>
        <pt x="575" y="1384" on="1"/>
        <pt x="1538" y="1384" on="1"/>
        <pt x="1665" y="1397" on="1"/>
        <pt x="1703" y="1046" on="1"/>
        <pt x="1610" y="1024" on="1"/>
        <pt x="1511" y="1246" on="1"/>
        <pt x="1285" y="1265" on="0"/>
        <pt x="1089" y="1296" on="1"/>
        <pt x="1089" y="741" on="1"/>
        <pt x="1150" y="752" on="0"/>
        <pt x="1337" y="765" on="0"/>
        <pt x="1355" y="765" on="1"/>
        <pt x="1412" y="934" on="1"/>
        <pt x="1486" y="914" on="1"/>
        <pt x="1467" y="463" on="1"/>
        <pt x="1393" y="478" on="1"/>
        <pt x="1353" y="639" on="1"/>
        <pt x="1318" y="639" on="0"/>
        <pt x="1157" y="647" on="0"/>
        <pt x="1089" y="659" on="1"/>
        <pt x="1089" y="99" on="1"/>
        <pt x="1094" y="102" on="0"/>
        <pt x="1346" y="133" on="0"/>
        <pt x="1575" y="155" on="1"/>
        <pt x="1698" y="339" on="1"/>
        <pt x="1771" y="324" on="1"/>
        <pt x="1695" y="0" on="1"/>
        <pt x="703" y="0" on="1"/>
        <pt x="720" y="86" on="1"/>
        <pt x="897" y="141" on="1"/>
        <pt x="897" y="456" on="1"/>
        <pt x="758" y="440" on="0"/>
      </contour>
      <contour>
        <pt x="867" y="1242" on="1"/>
        <pt x="522" y="568" on="1"/>
        <pt x="897" y="568" on="1"/>
        <pt x="897" y="1242" on="1"/>
      </contour>
    </TTGlyph>
    <TTGlyph name="Aacute" xMin="-28" yMin="0" xMax="1358" yMax="1785">
      <contour>
        <pt x="471" y="1599" on="1"/>
        <pt x="839" y="1785" on="1"/>
        <pt x="900" y="1785" on="1"/>
        <pt x="927" y="1635" on="1"/>
        <pt x="489" y="1494" on="1"/>
      </contour>
      <contour>
        <pt x="1337" y="0" on="1"/>
        <pt x="818" y="0" on="1"/>
        <pt x="834" y="86" on="1"/>
        <pt x="998" y="133" on="1"/>
        <pt x="878" y="451" on="1"/>
        <pt x="642" y="437" on="0"/>
        <pt x="414" y="437" on="1"/>
        <pt x="384" y="437" on="1"/>
        <pt x="281" y="138" on="1"/>
        <pt x="487" y="83" on="1"/>
        <pt x="469" y="0" on="1"/>
        <pt x="-28" y="0" on="1"/>
        <pt x="-10" y="95" on="1"/>
        <pt x="145" y="142" on="1"/>
        <pt x="596" y="1384" on="1"/>
        <pt x="715" y="1419" on="1"/>
        <pt x="1207" y="133" on="1"/>
        <pt x="1358" y="99" on="1"/>
      </contour>
      <contour>
        <pt x="614" y="1155" on="1"/>
        <pt x="603" y="1087" on="0"/>
        <pt x="428" y="568" on="1"/>
        <pt x="835" y="568" on="1"/>
      </contour>
    </TTGlyph>
    <TTGlyph name="Abreve" xMin="-28" yMin="0" xMax="1358" yMax="1766">
      <contour>
        <pt x="394" y="1702" on="1"/>
        <pt x="394" y="1753" on="0"/>
        <pt x="415" y="1766" on="1"/>
        <pt x="516" y="1765" on="1"/>
        <pt x="518" y="1713" on="0"/>
        <pt x="560" y="1639" on="0"/>
        <pt x="621" y="1603" on="0"/>
        <pt x="649" y="1603" on="1"/>
        <pt x="678" y="1603" on="0"/>
        <pt x="738" y="1639" on="0"/>
        <pt x="781" y="1713" on="0"/>
        <pt x="783" y="1766" on="1"/>
        <pt x="886" y="1766" on="1"/>
        <pt x="905" y="1748" on="0"/>
        <pt x="905" y="1703" on="1"/>
        <pt x="905" y="1652" on="0"/>
        <pt x="846" y="1555" on="0"/>
        <pt x="730" y="1492" on="0"/>
        <pt x="649" y="1492" on="1"/>
        <pt x="568" y="1492" on="0"/>
        <pt x="453" y="1555" on="0"/>
        <pt x="394" y="1652" on="0"/>
      </contour>
      <contour>
        <pt x="1337" y="0" on="1"/>
        <pt x="818" y="0" on="1"/>
        <pt x="834" y="86" on="1"/>
        <pt x="998" y="133" on="1"/>
        <pt x="878" y="451" on="1"/>
        <pt x="642" y="437" on="0"/>
        <pt x="414" y="437" on="1"/>
        <pt x="384" y="437" on="1"/>
        <pt x="281" y="138" on="1"/>
        <pt x="487" y="83" on="1"/>
        <pt x="469" y="0" on="1"/>
        <pt x="-28" y="0" on="1"/>
        <pt x="-10" y="95" on="1"/>
        <pt x="145" y="142" on="1"/>
        <pt x="596" y="1384" on="1"/>
        <pt x="715" y="1419" on="1"/>
        <pt x="1207" y="133" on="1"/>
        <pt x="1358" y="99" on="1"/>
      </contour>
      <contour>
        <pt x="614" y="1155" on="1"/>
        <pt x="603" y="1087" on="0"/>
        <pt x="428" y="568" on="1"/>
        <pt x="835" y="568" on="1"/>
      </contour>
    </TTGlyph>
    <TTGlyph name="Acircumflex" xMin="-28" yMin="0" xMax="1358" yMax="1785">
      <contour>
        <pt x="344" y="1570" on="1"/>
        <pt x="600" y="1785" on="1"/>
        <pt x="698" y="1785" on="1"/>
        <pt x="955" y="1570" on="1"/>
        <pt x="892" y="1504" on="1"/>
        <pt x="649" y="1634" on="1"/>
        <pt x="406" y="1504" on="1"/>
      </contour>
      <contour>
        <pt x="1337" y="0" on="1"/>
        <pt x="818" y="0" on="1"/>
        <pt x="834" y="86" on="1"/>
        <pt x="998" y="133" on="1"/>
        <pt x="878" y="451" on="1"/>
        <pt x="642" y="437" on="0"/>
        <pt x="414" y="437" on="1"/>
        <pt x="384" y="437" on="1"/>
        <pt x="281" y="138" on="1"/>
        <pt x="487" y="83" on="1"/>
        <pt x="469" y="0" on="1"/>
        <pt x="-28" y="0" on="1"/>
        <pt x="-10" y="95" on="1"/>
        <pt x="145" y="142" on="1"/>
        <pt x="596" y="1384" on="1"/>
        <pt x="715" y="1419" on="1"/>
        <pt x="1207" y="133" on="1"/>
        <pt x="1358" y="99" on="1"/>
      </contour>
      <contour>
        <pt x="614" y="1155" on="1"/>
        <pt x="603" y="1087" on="0"/>
        <pt x="428" y="568" on="1"/>
        <pt x="835" y="568" on="1"/>
      </contour>
    </TTGlyph>
    <TTGlyph name="Adieresis" xMin="-28" yMin="0" xMax="1358" yMax="1713">
      <contour>
        <pt x="862" y="1513" on="1"/>
        <pt x="827" y="1513" on="0"/>
        <pt x="761" y="1529" on="0"/>
        <pt x="750" y="1542" on="1"/>
        <pt x="741" y="1556" on="0"/>
        <pt x="741" y="1594" on="1"/>
        <pt x="741" y="1629" on="0"/>
        <pt x="757" y="1694" on="0"/>
        <pt x="771" y="1703" on="1"/>
        <pt x="782" y="1713" on="0"/>
        <pt x="818" y="1713" on="1"/>
        <pt x="852" y="1713" on="0"/>
        <pt x="920" y="1696" on="0"/>
        <pt x="930" y="1682" on="1"/>
        <pt x="939" y="1670" on="0"/>
        <pt x="939" y="1633" on="1"/>
        <pt x="939" y="1599" on="0"/>
        <pt x="923" y="1532" on="0"/>
        <pt x="910" y="1521" on="1"/>
        <pt x="896" y="1513" on="0"/>
      </contour>
      <contour>
        <pt x="479" y="1513" on="1"/>
        <pt x="444" y="1513" on="0"/>
        <pt x="378" y="1529" on="0"/>
        <pt x="368" y="1542" on="1"/>
        <pt x="358" y="1553" on="0"/>
        <pt x="358" y="1593" on="1"/>
        <pt x="358" y="1627" on="0"/>
        <pt x="375" y="1693" on="0"/>
        <pt x="388" y="1703" on="1"/>
        <pt x="400" y="1712" on="0"/>
        <pt x="435" y="1712" on="1"/>
        <pt x="469" y="1712" on="0"/>
        <pt x="537" y="1695" on="0"/>
        <pt x="548" y="1682" on="1"/>
        <pt x="557" y="1669" on="0"/>
        <pt x="557" y="1633" on="1"/>
        <pt x="557" y="1598" on="0"/>
        <pt x="541" y="1532" on="0"/>
        <pt x="527" y="1521" on="1"/>
        <pt x="516" y="1513" on="0"/>
      </contour>
      <contour>
        <pt x="1337" y="0" on="1"/>
        <pt x="818" y="0" on="1"/>
        <pt x="834" y="86" on="1"/>
        <pt x="998" y="133" on="1"/>
        <pt x="878" y="451" on="1"/>
        <pt x="642" y="437" on="0"/>
        <pt x="414" y="437" on="1"/>
        <pt x="384" y="437" on="1"/>
        <pt x="281" y="138" on="1"/>
        <pt x="487" y="83" on="1"/>
        <pt x="469" y="0" on="1"/>
        <pt x="-28" y="0" on="1"/>
        <pt x="-10" y="95" on="1"/>
        <pt x="145" y="142" on="1"/>
        <pt x="596" y="1384" on="1"/>
        <pt x="715" y="1419" on="1"/>
        <pt x="1207" y="133" on="1"/>
        <pt x="1358" y="99" on="1"/>
      </contour>
      <contour>
        <pt x="614" y="1155" on="1"/>
        <pt x="603" y="1087" on="0"/>
        <pt x="428" y="568" on="1"/>
        <pt x="835" y="568" on="1"/>
      </contour>
    </TTGlyph>
    <TTGlyph name="Agrave" xMin="-28" yMin="0" xMax="1358" yMax="1785">
      <contour>
        <pt x="421" y="1635" on="1"/>
        <pt x="448" y="1785" on="1"/>
        <pt x="509" y="1785" on="1"/>
        <pt x="877" y="1600" on="1"/>
        <pt x="858" y="1495" on="1"/>
      </contour>
      <contour>
        <pt x="1337" y="0" on="1"/>
        <pt x="818" y="0" on="1"/>
        <pt x="834" y="86" on="1"/>
        <pt x="998" y="133" on="1"/>
        <pt x="878" y="451" on="1"/>
        <pt x="642" y="437" on="0"/>
        <pt x="414" y="437" on="1"/>
        <pt x="384" y="437" on="1"/>
        <pt x="281" y="138" on="1"/>
        <pt x="487" y="83" on="1"/>
        <pt x="469" y="0" on="1"/>
        <pt x="-28" y="0" on="1"/>
        <pt x="-10" y="95" on="1"/>
        <pt x="145" y="142" on="1"/>
        <pt x="596" y="1384" on="1"/>
        <pt x="715" y="1419" on="1"/>
        <pt x="1207" y="133" on="1"/>
        <pt x="1358" y="99" on="1"/>
      </contour>
      <contour>
        <pt x="614" y="1155" on="1"/>
        <pt x="603" y="1087" on="0"/>
        <pt x="428" y="568" on="1"/>
        <pt x="835" y="568" on="1"/>
      </contour>
    </TTGlyph>
    <TTGlyph name="Amacron" xMin="-28" yMin="0" xMax="1358" yMax="1671">
      <contour>
        <pt x="376" y="1540" on="1"/>
        <pt x="404" y="1671" on="1"/>
        <pt x="919" y="1671" on="1"/>
        <pt x="896" y="1552" on="1"/>
        <pt x="791" y="1546" on="0"/>
        <pt x="489" y="1540" on="0"/>
      </contour>
      <contour>
        <pt x="1337" y="0" on="1"/>
        <pt x="818" y="0" on="1"/>
        <pt x="834" y="86" on="1"/>
        <pt x="998" y="133" on="1"/>
        <pt x="878" y="451" on="1"/>
        <pt x="642" y="437" on="0"/>
        <pt x="414" y="437" on="1"/>
        <pt x="384" y="437" on="1"/>
        <pt x="281" y="138" on="1"/>
        <pt x="487" y="83" on="1"/>
        <pt x="469" y="0" on="1"/>
        <pt x="-28" y="0" on="1"/>
        <pt x="-10" y="95" on="1"/>
        <pt x="145" y="142" on="1"/>
        <pt x="596" y="1384" on="1"/>
        <pt x="715" y="1419" on="1"/>
        <pt x="1207" y="133" on="1"/>
        <pt x="1358" y="99" on="1"/>
      </contour>
      <contour>
        <pt x="614" y="1155" on="1"/>
        <pt x="603" y="1087" on="0"/>
        <pt x="428" y="568" on="1"/>
        <pt x="835" y="568" on="1"/>
      </contour>
    </TTGlyph>
    <TTGlyph name="Aogonek" xMin="-30" yMin="-475" xMax="1344" yMax="1420">
      <contour>
        <pt x="872" y="-236" on="1"/>
        <pt x="872" y="-267" on="0"/>
        <pt x="910" y="-326" on="0"/>
        <pt x="940" y="-342" on="1"/>
        <pt x="966" y="-355" on="0"/>
        <pt x="990" y="-355" on="1"/>
        <pt x="1024" y="-355" on="0"/>
        <pt x="1109" y="-333" on="0"/>
        <pt x="1144" y="-314" on="1"/>
        <pt x="1169" y="-351" on="1"/>
        <pt x="1101" y="-411" on="0"/>
        <pt x="988" y="-475" on="0"/>
        <pt x="927" y="-475" on="1"/>
        <pt x="874" y="-475" on="0"/>
        <pt x="781" y="-429" on="0"/>
        <pt x="725" y="-343" on="0"/>
        <pt x="725" y="-286" on="1"/>
        <pt x="725" y="-232" on="0"/>
        <pt x="767" y="-149" on="0"/>
        <pt x="833" y="-86" on="0"/>
        <pt x="896" y="-37" on="1"/>
        <pt x="956" y="11" on="1"/>
        <pt x="977" y="28" on="0"/>
        <pt x="1001" y="77" on="0"/>
        <pt x="1001" y="105" on="1"/>
        <pt x="1001" y="126" on="0"/>
        <pt x="992" y="150" on="1"/>
        <pt x="878" y="454" on="1"/>
        <pt x="732" y="440" on="0"/>
        <pt x="383" y="440" on="1"/>
        <pt x="282" y="138" on="1"/>
        <pt x="487" y="83" on="1"/>
        <pt x="469" y="0" on="1"/>
        <pt x="-30" y="0" on="1"/>
        <pt x="-7" y="95" on="1"/>
        <pt x="146" y="142" on="1"/>
        <pt x="596" y="1384" on="1"/>
        <pt x="715" y="1420" on="1"/>
        <pt x="1208" y="133" on="1"/>
        <pt x="1344" y="101" on="1"/>
        <pt x="1321" y="0" on="1"/>
        <pt x="1158" y="0" on="1"/>
        <pt x="1105" y="0" on="0"/>
        <pt x="1037" y="-16" on="0"/>
        <pt x="1004" y="-45" on="1"/>
        <pt x="872" y="-163" on="0"/>
      </contour>
      <contour>
        <pt x="614" y="1155" on="1"/>
        <pt x="529" y="876" on="0"/>
        <pt x="426" y="568" on="1"/>
        <pt x="835" y="568" on="1"/>
      </contour>
    </TTGlyph>
    <TTGlyph name="Aring" xMin="-28" yMin="0" xMax="1358" yMax="1679">
      <contour>
        <pt x="1337" y="0" on="1"/>
        <pt x="818" y="0" on="1"/>
        <pt x="834" y="86" on="1"/>
        <pt x="998" y="133" on="1"/>
        <pt x="878" y="451" on="1"/>
        <pt x="642" y="437" on="0"/>
        <pt x="414" y="437" on="1"/>
        <pt x="384" y="437" on="1"/>
        <pt x="281" y="138" on="1"/>
        <pt x="487" y="83" on="1"/>
        <pt x="469" y="0" on="1"/>
        <pt x="-28" y="0" on="1"/>
        <pt x="-10" y="95" on="1"/>
        <pt x="145" y="142" on="1"/>
        <pt x="579" y="1337" on="1"/>
        <pt x="527" y="1355" on="0"/>
        <pt x="464" y="1437" on="0"/>
        <pt x="464" y="1494" on="1"/>
        <pt x="464" y="1546" on="0"/>
        <pt x="511" y="1631" on="0"/>
        <pt x="597" y="1679" on="0"/>
        <pt x="654" y="1679" on="1"/>
        <pt x="701" y="1679" on="0"/>
        <pt x="784" y="1636" on="0"/>
        <pt x="834" y="1559" on="0"/>
        <pt x="834" y="1510" on="1"/>
        <pt x="834" y="1456" on="0"/>
        <pt x="785" y="1372" on="0"/>
        <pt x="742" y="1348" on="1"/>
        <pt x="1207" y="133" on="1"/>
        <pt x="1358" y="99" on="1"/>
      </contour>
      <contour>
        <pt x="570" y="1511" on="1"/>
        <pt x="570" y="1473" on="0"/>
        <pt x="614" y="1419" on="0"/>
        <pt x="656" y="1419" on="1"/>
        <pt x="688" y="1419" on="0"/>
        <pt x="726" y="1461" on="0"/>
        <pt x="726" y="1493" on="1"/>
        <pt x="726" y="1532" on="0"/>
        <pt x="680" y="1588" on="0"/>
        <pt x="640" y="1588" on="1"/>
        <pt x="609" y="1588" on="0"/>
        <pt x="570" y="1542" on="0"/>
      </contour>
      <contour>
        <pt x="614" y="1155" on="1"/>
        <pt x="603" y="1087" on="0"/>
        <pt x="428" y="568" on="1"/>
        <pt x="835" y="568" on="1"/>
      </contour>
    </TTGlyph>
    <TTGlyph name="Atilde" xMin="-28" yMin="0" xMax="1358" yMax="1790">
      <contour>
        <pt x="338" y="1543" on="1"/>
        <pt x="317" y="1653" on="1"/>
        <pt x="360" y="1698" on="0"/>
        <pt x="422" y="1753" on="0"/>
        <pt x="495" y="1790" on="0"/>
        <pt x="535" y="1790" on="1"/>
        <pt x="579" y="1790" on="0"/>
        <pt x="652" y="1748" on="0"/>
        <pt x="701" y="1709" on="1"/>
        <pt x="728" y="1687" on="0"/>
        <pt x="761" y="1665" on="0"/>
        <pt x="775" y="1665" on="1"/>
        <pt x="802" y="1665" on="0"/>
        <pt x="912" y="1726" on="0"/>
        <pt x="962" y="1768" on="1"/>
        <pt x="980" y="1657" on="1"/>
        <pt x="922" y="1593" on="0"/>
        <pt x="820" y="1521" on="0"/>
        <pt x="762" y="1521" on="1"/>
        <pt x="718" y="1521" on="0"/>
        <pt x="642" y="1564" on="0"/>
        <pt x="598" y="1601" on="1"/>
        <pt x="571" y="1623" on="0"/>
        <pt x="538" y="1645" on="0"/>
        <pt x="524" y="1645" on="1"/>
        <pt x="494" y="1645" on="0"/>
        <pt x="380" y="1585" on="0"/>
      </contour>
      <contour>
        <pt x="1337" y="0" on="1"/>
        <pt x="818" y="0" on="1"/>
        <pt x="834" y="86" on="1"/>
        <pt x="998" y="133" on="1"/>
        <pt x="878" y="451" on="1"/>
        <pt x="642" y="437" on="0"/>
        <pt x="414" y="437" on="1"/>
        <pt x="384" y="437" on="1"/>
        <pt x="281" y="138" on="1"/>
        <pt x="487" y="83" on="1"/>
        <pt x="469" y="0" on="1"/>
        <pt x="-28" y="0" on="1"/>
        <pt x="-10" y="95" on="1"/>
        <pt x="145" y="142" on="1"/>
        <pt x="596" y="1384" on="1"/>
        <pt x="715" y="1419" on="1"/>
        <pt x="1207" y="133" on="1"/>
        <pt x="1358" y="99" on="1"/>
      </contour>
      <contour>
        <pt x="614" y="1155" on="1"/>
        <pt x="603" y="1087" on="0"/>
        <pt x="428" y="568" on="1"/>
        <pt x="835" y="568" on="1"/>
      </contour>
    </TTGlyph>
    <TTGlyph name="B" xMin="69" yMin="0" xMax="1127" yMax="1384">
      <contour>
        <pt x="260" y="139" on="1"/>
        <pt x="260" y="1246" on="1"/>
        <pt x="72" y="1302" on="1"/>
        <pt x="90" y="1384" on="1"/>
        <pt x="447" y="1384" on="1"/>
        <pt x="644" y="1384" on="0"/>
        <pt x="904" y="1339" on="0"/>
        <pt x="1062" y="1197" on="0"/>
        <pt x="1062" y="1060" on="1"/>
        <pt x="1062" y="972" on="0"/>
        <pt x="969" y="841" on="0"/>
        <pt x="823" y="763" on="0"/>
        <pt x="739" y="747" on="1"/>
        <pt x="845" y="733" on="0"/>
        <pt x="1020" y="648" on="0"/>
        <pt x="1127" y="502" on="0"/>
        <pt x="1127" y="401" on="1"/>
        <pt x="1127" y="231" on="0"/>
        <pt x="957" y="56" on="0"/>
        <pt x="673" y="0" on="0"/>
        <pt x="455" y="0" on="1"/>
        <pt x="69" y="0" on="1"/>
        <pt x="85" y="85" on="1"/>
      </contour>
      <contour>
        <pt x="452" y="1305" on="1"/>
        <pt x="452" y="81" on="1"/>
        <pt x="584" y="97" on="0"/>
        <pt x="782" y="154" on="0"/>
        <pt x="921" y="284" on="0"/>
        <pt x="921" y="397" on="1"/>
        <pt x="921" y="525" on="0"/>
        <pt x="727" y="667" on="0"/>
        <pt x="550" y="710" on="1"/>
        <pt x="560" y="769" on="1"/>
        <pt x="707" y="802" on="0"/>
        <pt x="868" y="950" on="0"/>
        <pt x="868" y="1051" on="1"/>
        <pt x="868" y="1176" on="0"/>
        <pt x="632" y="1289" on="0"/>
      </contour>
    </TTGlyph>
    <TTGlyph name="C" xMin="110" yMin="-35" xMax="1200" yMax="1419">
      <contour>
        <pt x="110" y="625" on="1"/>
        <pt x="110" y="840" on="0"/>
        <pt x="250" y="1197" on="0"/>
        <pt x="383" y="1300" on="1"/>
        <pt x="464" y="1362" on="0"/>
        <pt x="650" y="1419" on="0"/>
        <pt x="765" y="1419" on="1"/>
        <pt x="815" y="1419" on="0"/>
        <pt x="919" y="1405" on="0"/>
        <pt x="984" y="1392" on="1"/>
        <pt x="1112" y="1410" on="1"/>
        <pt x="1150" y="1044" on="1"/>
        <pt x="1054" y="1021" on="1"/>
        <pt x="960" y="1229" on="1"/>
        <pt x="895" y="1257" on="0"/>
        <pt x="780" y="1283" on="0"/>
        <pt x="702" y="1283" on="1"/>
        <pt x="629" y="1283" on="0"/>
        <pt x="496" y="1238" on="0"/>
        <pt x="458" y="1205" on="1"/>
        <pt x="392" y="1146" on="0"/>
        <pt x="309" y="892" on="0"/>
        <pt x="309" y="705" on="1"/>
        <pt x="309" y="591" on="0"/>
        <pt x="372" y="370" on="0"/>
        <pt x="430" y="294" on="1"/>
        <pt x="496" y="208" on="0"/>
        <pt x="666" y="126" on="0"/>
        <pt x="761" y="126" on="1"/>
        <pt x="809" y="126" on="0"/>
        <pt x="971" y="171" on="0"/>
        <pt x="1125" y="227" on="0"/>
        <pt x="1155" y="242" on="1"/>
        <pt x="1200" y="173" on="1"/>
        <pt x="1086" y="64" on="0"/>
        <pt x="863" y="-35" on="0"/>
        <pt x="710" y="-35" on="1"/>
        <pt x="531" y="-35" on="0"/>
        <pt x="260" y="125" on="0"/>
        <pt x="110" y="423" on="0"/>
      </contour>
    </TTGlyph>
    <TTGlyph name="Cacute" xMin="110" yMin="-35" xMax="1200" yMax="1785">
      <contour>
        <pt x="892" y="1785" on="1"/>
        <pt x="953" y="1785" on="1"/>
        <pt x="980" y="1635" on="1"/>
        <pt x="542" y="1494" on="1"/>
        <pt x="524" y="1599" on="1"/>
      </contour>
      <contour>
        <pt x="110" y="625" on="1"/>
        <pt x="110" y="840" on="0"/>
        <pt x="250" y="1197" on="0"/>
        <pt x="383" y="1300" on="1"/>
        <pt x="464" y="1362" on="0"/>
        <pt x="650" y="1419" on="0"/>
        <pt x="765" y="1419" on="1"/>
        <pt x="815" y="1419" on="0"/>
        <pt x="919" y="1405" on="0"/>
        <pt x="984" y="1392" on="1"/>
        <pt x="1112" y="1410" on="1"/>
        <pt x="1150" y="1044" on="1"/>
        <pt x="1054" y="1021" on="1"/>
        <pt x="960" y="1229" on="1"/>
        <pt x="895" y="1257" on="0"/>
        <pt x="780" y="1283" on="0"/>
        <pt x="702" y="1283" on="1"/>
        <pt x="629" y="1283" on="0"/>
        <pt x="496" y="1238" on="0"/>
        <pt x="458" y="1205" on="1"/>
        <pt x="392" y="1146" on="0"/>
        <pt x="309" y="892" on="0"/>
        <pt x="309" y="705" on="1"/>
        <pt x="309" y="591" on="0"/>
        <pt x="372" y="370" on="0"/>
        <pt x="430" y="294" on="1"/>
        <pt x="496" y="208" on="0"/>
        <pt x="666" y="126" on="0"/>
        <pt x="761" y="126" on="1"/>
        <pt x="809" y="126" on="0"/>
        <pt x="971" y="171" on="0"/>
        <pt x="1125" y="227" on="0"/>
        <pt x="1155" y="242" on="1"/>
        <pt x="1200" y="173" on="1"/>
        <pt x="1086" y="64" on="0"/>
        <pt x="863" y="-35" on="0"/>
        <pt x="710" y="-35" on="1"/>
        <pt x="531" y="-35" on="0"/>
        <pt x="260" y="125" on="0"/>
        <pt x="110" y="423" on="0"/>
      </contour>
    </TTGlyph>
    <TTGlyph name="Ccaron" xMin="110" yMin="-35" xMax="1200" yMax="1794">
      <contour>
        <pt x="459" y="1794" on="1"/>
        <pt x="702" y="1665" on="1"/>
        <pt x="945" y="1794" on="1"/>
        <pt x="1007" y="1730" on="1"/>
        <pt x="750" y="1515" on="1"/>
        <pt x="654" y="1515" on="1"/>
        <pt x="397" y="1730" on="1"/>
      </contour>
      <contour>
        <pt x="110" y="625" on="1"/>
        <pt x="110" y="840" on="0"/>
        <pt x="250" y="1197" on="0"/>
        <pt x="383" y="1300" on="1"/>
        <pt x="464" y="1362" on="0"/>
        <pt x="650" y="1419" on="0"/>
        <pt x="765" y="1419" on="1"/>
        <pt x="815" y="1419" on="0"/>
        <pt x="919" y="1405" on="0"/>
        <pt x="984" y="1392" on="1"/>
        <pt x="1112" y="1410" on="1"/>
        <pt x="1150" y="1044" on="1"/>
        <pt x="1054" y="1021" on="1"/>
        <pt x="960" y="1229" on="1"/>
        <pt x="895" y="1257" on="0"/>
        <pt x="780" y="1283" on="0"/>
        <pt x="702" y="1283" on="1"/>
        <pt x="629" y="1283" on="0"/>
        <pt x="496" y="1238" on="0"/>
        <pt x="458" y="1205" on="1"/>
        <pt x="392" y="1146" on="0"/>
        <pt x="309" y="892" on="0"/>
        <pt x="309" y="705" on="1"/>
        <pt x="309" y="591" on="0"/>
        <pt x="372" y="370" on="0"/>
        <pt x="430" y="294" on="1"/>
        <pt x="496" y="208" on="0"/>
        <pt x="666" y="126" on="0"/>
        <pt x="761" y="126" on="1"/>
        <pt x="809" y="126" on="0"/>
        <pt x="971" y="171" on="0"/>
        <pt x="1125" y="227" on="0"/>
        <pt x="1155" y="242" on="1"/>
        <pt x="1200" y="173" on="1"/>
        <pt x="1086" y="64" on="0"/>
        <pt x="863" y="-35" on="0"/>
        <pt x="710" y="-35" on="1"/>
        <pt x="531" y="-35" on="0"/>
        <pt x="260" y="125" on="0"/>
        <pt x="110" y="423" on="0"/>
      </contour>
    </TTGlyph>
    <TTGlyph name="Ccedilla" xMin="110" yMin="-500" xMax="1200" yMax="1419">
      <contour>
        <pt x="914" y="-279" on="1"/>
        <pt x="914" y="-356" on="0"/>
        <pt x="797" y="-455" on="0"/>
        <pt x="617" y="-500" on="0"/>
        <pt x="522" y="-500" on="1"/>
        <pt x="508" y="-447" on="1"/>
        <pt x="612" y="-403" on="0"/>
        <pt x="722" y="-344" on="0"/>
        <pt x="760" y="-308" on="0"/>
        <pt x="760" y="-293" on="1"/>
        <pt x="760" y="-264" on="0"/>
        <pt x="648" y="-206" on="0"/>
        <pt x="549" y="-176" on="1"/>
        <pt x="581" y="-108" on="0"/>
        <pt x="644" y="-32" on="1"/>
        <pt x="484" y="-18" on="0"/>
        <pt x="242" y="149" on="0"/>
        <pt x="110" y="436" on="0"/>
        <pt x="110" y="625" on="1"/>
        <pt x="110" y="840" on="0"/>
        <pt x="250" y="1198" on="0"/>
        <pt x="383" y="1300" on="1"/>
        <pt x="464" y="1362" on="0"/>
        <pt x="650" y="1419" on="0"/>
        <pt x="765" y="1419" on="1"/>
        <pt x="815" y="1419" on="0"/>
        <pt x="919" y="1405" on="0"/>
        <pt x="984" y="1392" on="1"/>
        <pt x="1112" y="1410" on="1"/>
        <pt x="1150" y="1044" on="1"/>
        <pt x="1054" y="1021" on="1"/>
        <pt x="960" y="1229" on="1"/>
        <pt x="895" y="1257" on="0"/>
        <pt x="780" y="1283" on="0"/>
        <pt x="702" y="1283" on="1"/>
        <pt x="629" y="1283" on="0"/>
        <pt x="496" y="1238" on="0"/>
        <pt x="458" y="1205" on="1"/>
        <pt x="392" y="1146" on="0"/>
        <pt x="309" y="892" on="0"/>
        <pt x="309" y="705" on="1"/>
        <pt x="309" y="591" on="0"/>
        <pt x="372" y="370" on="0"/>
        <pt x="430" y="294" on="1"/>
        <pt x="496" y="208" on="0"/>
        <pt x="666" y="126" on="0"/>
        <pt x="761" y="126" on="1"/>
        <pt x="809" y="126" on="0"/>
        <pt x="971" y="171" on="0"/>
        <pt x="1125" y="227" on="0"/>
        <pt x="1155" y="242" on="1"/>
        <pt x="1200" y="173" on="1"/>
        <pt x="1093" y="70" on="0"/>
        <pt x="883" y="-29" on="0"/>
        <pt x="743" y="-34" on="1"/>
        <pt x="706" y="-114" on="1"/>
        <pt x="794" y="-128" on="0"/>
        <pt x="914" y="-211" on="0"/>
      </contour>
    </TTGlyph>
    <TTGlyph name="D" xMin="69" yMin="0" xMax="1334" yMax="1384">
      <contour>
        <pt x="261" y="1246" on="1"/>
        <pt x="74" y="1302" on="1"/>
        <pt x="91" y="1384" on="1"/>
        <pt x="530" y="1384" on="1"/>
        <pt x="693" y="1384" on="0"/>
        <pt x="967" y="1334" on="0"/>
        <pt x="1068" y="1266" on="1"/>
        <pt x="1205" y="1173" on="0"/>
        <pt x="1334" y="887" on="0"/>
        <pt x="1334" y="704" on="1"/>
        <pt x="1334" y="555" on="0"/>
        <pt x="1249" y="283" on="0"/>
        <pt x="1157" y="186" on="1"/>
        <pt x="1075" y="101" on="0"/>
        <pt x="849" y="20" on="0"/>
        <pt x="615" y="0" on="0"/>
        <pt x="450" y="0" on="1"/>
        <pt x="69" y="0" on="1"/>
        <pt x="86" y="85" on="1"/>
        <pt x="261" y="139" on="1"/>
      </contour>
      <contour>
        <pt x="1128" y="697" on="1"/>
        <pt x="1128" y="1026" on="0"/>
        <pt x="882" y="1180" on="1"/>
        <pt x="812" y="1224" on="0"/>
        <pt x="583" y="1286" on="0"/>
        <pt x="453" y="1301" on="1"/>
        <pt x="453" y="87" on="1"/>
        <pt x="697" y="118" on="0"/>
        <pt x="987" y="245" on="0"/>
        <pt x="1128" y="490" on="0"/>
      </contour>
    </TTGlyph>
    <TTGlyph name="Dcaron" xMin="69" yMin="0" xMax="1334" yMax="1794">
      <contour>
        <pt x="402" y="1794" on="1"/>
        <pt x="645" y="1665" on="1"/>
        <pt x="888" y="1794" on="1"/>
        <pt x="950" y="1730" on="1"/>
        <pt x="693" y="1515" on="1"/>
        <pt x="597" y="1515" on="1"/>
        <pt x="340" y="1730" on="1"/>
      </contour>
      <contour>
        <pt x="261" y="1246" on="1"/>
        <pt x="74" y="1302" on="1"/>
        <pt x="91" y="1384" on="1"/>
        <pt x="530" y="1384" on="1"/>
        <pt x="693" y="1384" on="0"/>
        <pt x="967" y="1334" on="0"/>
        <pt x="1068" y="1266" on="1"/>
        <pt x="1205" y="1173" on="0"/>
        <pt x="1334" y="887" on="0"/>
        <pt x="1334" y="704" on="1"/>
        <pt x="1334" y="555" on="0"/>
        <pt x="1249" y="283" on="0"/>
        <pt x="1157" y="186" on="1"/>
        <pt x="1075" y="101" on="0"/>
        <pt x="849" y="20" on="0"/>
        <pt x="615" y="0" on="0"/>
        <pt x="450" y="0" on="1"/>
        <pt x="69" y="0" on="1"/>
        <pt x="86" y="85" on="1"/>
        <pt x="261" y="139" on="1"/>
      </contour>
      <contour>
        <pt x="1128" y="697" on="1"/>
        <pt x="1128" y="1026" on="0"/>
        <pt x="882" y="1180" on="1"/>
        <pt x="812" y="1224" on="0"/>
        <pt x="583" y="1286" on="0"/>
        <pt x="453" y="1301" on="1"/>
        <pt x="453" y="87" on="1"/>
        <pt x="697" y="118" on="0"/>
        <pt x="987" y="245" on="0"/>
        <pt x="1128" y="490" on="0"/>
      </contour>
    </TTGlyph>
    <TTGlyph name="Dcroat" xMin="71" yMin="0" xMax="1336" yMax="1384">
      <contour>
        <pt x="1336" y="704" on="1"/>
        <pt x="1336" y="555" on="0"/>
        <pt x="1251" y="283" on="0"/>
        <pt x="1159" y="186" on="1"/>
        <pt x="1077" y="101" on="0"/>
        <pt x="851" y="20" on="0"/>
        <pt x="617" y="0" on="0"/>
        <pt x="452" y="0" on="1"/>
        <pt x="71" y="0" on="1"/>
        <pt x="88" y="85" on="1"/>
        <pt x="263" y="139" on="1"/>
        <pt x="263" y="620" on="1"/>
        <pt x="94" y="614" on="1"/>
        <pt x="125" y="757" on="1"/>
        <pt x="263" y="757" on="1"/>
        <pt x="263" y="1246" on="1"/>
        <pt x="76" y="1302" on="1"/>
        <pt x="93" y="1384" on="1"/>
        <pt x="532" y="1384" on="1"/>
        <pt x="695" y="1384" on="0"/>
        <pt x="969" y="1334" on="0"/>
        <pt x="1070" y="1266" on="1"/>
        <pt x="1207" y="1173" on="0"/>
        <pt x="1336" y="887" on="0"/>
      </contour>
      <contour>
        <pt x="1130" y="697" on="1"/>
        <pt x="1130" y="1026" on="0"/>
        <pt x="884" y="1180" on="1"/>
        <pt x="814" y="1224" on="0"/>
        <pt x="585" y="1286" on="0"/>
        <pt x="455" y="1301" on="1"/>
        <pt x="455" y="757" on="1"/>
        <pt x="749" y="757" on="1"/>
        <pt x="725" y="636" on="1"/>
        <pt x="455" y="627" on="1"/>
        <pt x="455" y="87" on="1"/>
        <pt x="699" y="118" on="0"/>
        <pt x="989" y="245" on="0"/>
        <pt x="1130" y="490" on="0"/>
      </contour>
    </TTGlyph>
    <TTGlyph name="Delta" xMin="75" yMin="0" xMax="1217" yMax="1419">
      <contour>
        <pt x="736" y="1419" on="1"/>
        <pt x="1217" y="90" on="1"/>
        <pt x="1195" y="0" on="1"/>
        <pt x="97" y="0" on="1"/>
        <pt x="75" y="92" on="1"/>
        <pt x="632" y="1419" on="1"/>
      </contour>
      <contour>
        <pt x="645" y="1089" on="1"/>
        <pt x="240" y="124" on="1"/>
        <pt x="971" y="171" on="1"/>
      </contour>
    </TTGlyph>
    <TTGlyph name="E" xMin="66" yMin="0" xMax="1199" yMax="1397">
      <contour>
        <pt x="1120" y="340" on="1"/>
        <pt x="1199" y="320" on="1"/>
        <pt x="1120" y="0" on="1"/>
        <pt x="66" y="0" on="1"/>
        <pt x="82" y="85" on="1"/>
        <pt x="261" y="141" on="1"/>
        <pt x="261" y="1248" on="1"/>
        <pt x="73" y="1304" on="1"/>
        <pt x="94" y="1384" on="1"/>
        <pt x="959" y="1384" on="1"/>
        <pt x="1086" y="1397" on="1"/>
        <pt x="1120" y="1046" on="1"/>
        <pt x="1031" y="1024" on="1"/>
        <pt x="932" y="1246" on="1"/>
        <pt x="453" y="1296" on="1"/>
        <pt x="453" y="741" on="1"/>
        <pt x="598" y="759" on="0"/>
        <pt x="748" y="765" on="1"/>
        <pt x="810" y="935" on="1"/>
        <pt x="888" y="914" on="1"/>
        <pt x="870" y="463" on="1"/>
        <pt x="791" y="480" on="1"/>
        <pt x="746" y="639" on="1"/>
        <pt x="659" y="639" on="0"/>
        <pt x="518" y="647" on="0"/>
        <pt x="453" y="659" on="1"/>
        <pt x="453" y="99" on="1"/>
        <pt x="996" y="155" on="1"/>
      </contour>
    </TTGlyph>
    <TTGlyph name="Eacute" xMin="66" yMin="0" xMax="1199" yMax="1785">
      <contour>
        <pt x="812" y="1785" on="1"/>
        <pt x="873" y="1785" on="1"/>
        <pt x="900" y="1635" on="1"/>
        <pt x="462" y="1494" on="1"/>
        <pt x="444" y="1599" on="1"/>
      </contour>
      <contour>
        <pt x="1120" y="340" on="1"/>
        <pt x="1199" y="320" on="1"/>
        <pt x="1120" y="0" on="1"/>
        <pt x="66" y="0" on="1"/>
        <pt x="82" y="85" on="1"/>
        <pt x="261" y="141" on="1"/>
        <pt x="261" y="1248" on="1"/>
        <pt x="73" y="1304" on="1"/>
        <pt x="94" y="1384" on="1"/>
        <pt x="959" y="1384" on="1"/>
        <pt x="1086" y="1397" on="1"/>
        <pt x="1120" y="1046" on="1"/>
        <pt x="1031" y="1024" on="1"/>
        <pt x="932" y="1246" on="1"/>
        <pt x="453" y="1296" on="1"/>
        <pt x="453" y="741" on="1"/>
        <pt x="598" y="759" on="0"/>
        <pt x="748" y="765" on="1"/>
        <pt x="810" y="935" on="1"/>
        <pt x="888" y="914" on="1"/>
        <pt x="870" y="463" on="1"/>
        <pt x="791" y="480" on="1"/>
        <pt x="746" y="639" on="1"/>
        <pt x="659" y="639" on="0"/>
        <pt x="518" y="647" on="0"/>
        <pt x="453" y="659" on="1"/>
        <pt x="453" y="99" on="1"/>
        <pt x="996" y="155" on="1"/>
      </contour>
    </TTGlyph>
    <TTGlyph name="Ecaron" xMin="66" yMin="0" xMax="1199" yMax="1794">
      <contour>
        <pt x="379" y="1794" on="1"/>
        <pt x="622" y="1665" on="1"/>
        <pt x="865" y="1794" on="1"/>
        <pt x="927" y="1730" on="1"/>
        <pt x="670" y="1515" on="1"/>
        <pt x="574" y="1515" on="1"/>
        <pt x="317" y="1730" on="1"/>
      </contour>
      <contour>
        <pt x="1120" y="340" on="1"/>
        <pt x="1199" y="320" on="1"/>
        <pt x="1120" y="0" on="1"/>
        <pt x="66" y="0" on="1"/>
        <pt x="82" y="85" on="1"/>
        <pt x="261" y="141" on="1"/>
        <pt x="261" y="1248" on="1"/>
        <pt x="73" y="1304" on="1"/>
        <pt x="94" y="1384" on="1"/>
        <pt x="959" y="1384" on="1"/>
        <pt x="1086" y="1397" on="1"/>
        <pt x="1120" y="1046" on="1"/>
        <pt x="1031" y="1024" on="1"/>
        <pt x="932" y="1246" on="1"/>
        <pt x="453" y="1296" on="1"/>
        <pt x="453" y="741" on="1"/>
        <pt x="598" y="759" on="0"/>
        <pt x="748" y="765" on="1"/>
        <pt x="810" y="935" on="1"/>
        <pt x="888" y="914" on="1"/>
        <pt x="870" y="463" on="1"/>
        <pt x="791" y="480" on="1"/>
        <pt x="746" y="639" on="1"/>
        <pt x="659" y="639" on="0"/>
        <pt x="518" y="647" on="0"/>
        <pt x="453" y="659" on="1"/>
        <pt x="453" y="99" on="1"/>
        <pt x="996" y="155" on="1"/>
      </contour>
    </TTGlyph>
    <TTGlyph name="Ecircumflex" xMin="66" yMin="0" xMax="1199" yMax="1785">
      <contour>
        <pt x="573" y="1785" on="1"/>
        <pt x="671" y="1785" on="1"/>
        <pt x="928" y="1570" on="1"/>
        <pt x="865" y="1504" on="1"/>
        <pt x="622" y="1634" on="1"/>
        <pt x="379" y="1504" on="1"/>
        <pt x="317" y="1570" on="1"/>
      </contour>
      <contour>
        <pt x="1120" y="340" on="1"/>
        <pt x="1199" y="320" on="1"/>
        <pt x="1120" y="0" on="1"/>
        <pt x="66" y="0" on="1"/>
        <pt x="82" y="85" on="1"/>
        <pt x="261" y="141" on="1"/>
        <pt x="261" y="1248" on="1"/>
        <pt x="73" y="1304" on="1"/>
        <pt x="94" y="1384" on="1"/>
        <pt x="959" y="1384" on="1"/>
        <pt x="1086" y="1397" on="1"/>
        <pt x="1120" y="1046" on="1"/>
        <pt x="1031" y="1024" on="1"/>
        <pt x="932" y="1246" on="1"/>
        <pt x="453" y="1296" on="1"/>
        <pt x="453" y="741" on="1"/>
        <pt x="598" y="759" on="0"/>
        <pt x="748" y="765" on="1"/>
        <pt x="810" y="935" on="1"/>
        <pt x="888" y="914" on="1"/>
        <pt x="870" y="463" on="1"/>
        <pt x="791" y="480" on="1"/>
        <pt x="746" y="639" on="1"/>
        <pt x="659" y="639" on="0"/>
        <pt x="518" y="647" on="0"/>
        <pt x="453" y="659" on="1"/>
        <pt x="453" y="99" on="1"/>
        <pt x="996" y="155" on="1"/>
      </contour>
    </TTGlyph>
    <TTGlyph name="Edieresis" xMin="66" yMin="0" xMax="1199" yMax="1713">
      <contour>
        <pt x="714" y="1594" on="1"/>
        <pt x="714" y="1629" on="0"/>
        <pt x="730" y="1694" on="0"/>
        <pt x="744" y="1703" on="1"/>
        <pt x="755" y="1713" on="0"/>
        <pt x="791" y="1713" on="1"/>
        <pt x="825" y="1713" on="0"/>
        <pt x="893" y="1696" on="0"/>
        <pt x="903" y="1682" on="1"/>
        <pt x="912" y="1670" on="0"/>
        <pt x="912" y="1633" on="1"/>
        <pt x="912" y="1599" on="0"/>
        <pt x="896" y="1532" on="0"/>
        <pt x="883" y="1521" on="1"/>
        <pt x="869" y="1513" on="0"/>
        <pt x="835" y="1513" on="1"/>
        <pt x="800" y="1513" on="0"/>
        <pt x="734" y="1529" on="0"/>
        <pt x="723" y="1542" on="1"/>
        <pt x="714" y="1556" on="0"/>
      </contour>
      <contour>
        <pt x="331" y="1593" on="1"/>
        <pt x="331" y="1627" on="0"/>
        <pt x="348" y="1693" on="0"/>
        <pt x="361" y="1703" on="1"/>
        <pt x="373" y="1712" on="0"/>
        <pt x="408" y="1712" on="1"/>
        <pt x="442" y="1712" on="0"/>
        <pt x="510" y="1695" on="0"/>
        <pt x="521" y="1682" on="1"/>
        <pt x="530" y="1669" on="0"/>
        <pt x="530" y="1633" on="1"/>
        <pt x="530" y="1598" on="0"/>
        <pt x="514" y="1532" on="0"/>
        <pt x="500" y="1521" on="1"/>
        <pt x="489" y="1513" on="0"/>
        <pt x="452" y="1513" on="1"/>
        <pt x="417" y="1513" on="0"/>
        <pt x="351" y="1529" on="0"/>
        <pt x="341" y="1542" on="1"/>
        <pt x="331" y="1553" on="0"/>
      </contour>
      <contour>
        <pt x="1120" y="340" on="1"/>
        <pt x="1199" y="320" on="1"/>
        <pt x="1120" y="0" on="1"/>
        <pt x="66" y="0" on="1"/>
        <pt x="82" y="85" on="1"/>
        <pt x="261" y="141" on="1"/>
        <pt x="261" y="1248" on="1"/>
        <pt x="73" y="1304" on="1"/>
        <pt x="94" y="1384" on="1"/>
        <pt x="959" y="1384" on="1"/>
        <pt x="1086" y="1397" on="1"/>
        <pt x="1120" y="1046" on="1"/>
        <pt x="1031" y="1024" on="1"/>
        <pt x="932" y="1246" on="1"/>
        <pt x="453" y="1296" on="1"/>
        <pt x="453" y="741" on="1"/>
        <pt x="598" y="759" on="0"/>
        <pt x="748" y="765" on="1"/>
        <pt x="810" y="935" on="1"/>
        <pt x="888" y="914" on="1"/>
        <pt x="870" y="463" on="1"/>
        <pt x="791" y="480" on="1"/>
        <pt x="746" y="639" on="1"/>
        <pt x="659" y="639" on="0"/>
        <pt x="518" y="647" on="0"/>
        <pt x="453" y="659" on="1"/>
        <pt x="453" y="99" on="1"/>
        <pt x="996" y="155" on="1"/>
      </contour>
    </TTGlyph>
    <TTGlyph name="Edotaccent" xMin="66" yMin="0" xMax="1199" yMax="1712">
      <contour>
        <pt x="523" y="1592" on="1"/>
        <pt x="523" y="1626" on="0"/>
        <pt x="540" y="1693" on="0"/>
        <pt x="553" y="1703" on="1"/>
        <pt x="565" y="1712" on="0"/>
        <pt x="600" y="1712" on="1"/>
        <pt x="635" y="1712" on="0"/>
        <pt x="702" y="1695" on="0"/>
        <pt x="712" y="1682" on="1"/>
        <pt x="722" y="1671" on="0"/>
        <pt x="722" y="1632" on="1"/>
        <pt x="722" y="1597" on="0"/>
        <pt x="706" y="1531" on="0"/>
        <pt x="692" y="1521" on="1"/>
        <pt x="681" y="1513" on="0"/>
        <pt x="644" y="1513" on="1"/>
        <pt x="609" y="1513" on="0"/>
        <pt x="543" y="1529" on="0"/>
        <pt x="533" y="1542" on="1"/>
        <pt x="523" y="1553" on="0"/>
      </contour>
      <contour>
        <pt x="1120" y="340" on="1"/>
        <pt x="1199" y="320" on="1"/>
        <pt x="1120" y="0" on="1"/>
        <pt x="66" y="0" on="1"/>
        <pt x="82" y="85" on="1"/>
        <pt x="261" y="141" on="1"/>
        <pt x="261" y="1248" on="1"/>
        <pt x="73" y="1304" on="1"/>
        <pt x="94" y="1384" on="1"/>
        <pt x="959" y="1384" on="1"/>
        <pt x="1086" y="1397" on="1"/>
        <pt x="1120" y="1046" on="1"/>
        <pt x="1031" y="1024" on="1"/>
        <pt x="932" y="1246" on="1"/>
        <pt x="453" y="1296" on="1"/>
        <pt x="453" y="741" on="1"/>
        <pt x="598" y="759" on="0"/>
        <pt x="748" y="765" on="1"/>
        <pt x="810" y="935" on="1"/>
        <pt x="888" y="914" on="1"/>
        <pt x="870" y="463" on="1"/>
        <pt x="791" y="480" on="1"/>
        <pt x="746" y="639" on="1"/>
        <pt x="659" y="639" on="0"/>
        <pt x="518" y="647" on="0"/>
        <pt x="453" y="659" on="1"/>
        <pt x="453" y="99" on="1"/>
        <pt x="996" y="155" on="1"/>
      </contour>
    </TTGlyph>
    <TTGlyph name="Egrave" xMin="66" yMin="0" xMax="1199" yMax="1785">
      <contour>
        <pt x="421" y="1785" on="1"/>
        <pt x="482" y="1785" on="1"/>
        <pt x="850" y="1600" on="1"/>
        <pt x="831" y="1495" on="1"/>
        <pt x="394" y="1635" on="1"/>
      </contour>
      <contour>
        <pt x="1120" y="340" on="1"/>
        <pt x="1199" y="320" on="1"/>
        <pt x="1120" y="0" on="1"/>
        <pt x="66" y="0" on="1"/>
        <pt x="82" y="85" on="1"/>
        <pt x="261" y="141" on="1"/>
        <pt x="261" y="1248" on="1"/>
        <pt x="73" y="1304" on="1"/>
        <pt x="94" y="1384" on="1"/>
        <pt x="959" y="1384" on="1"/>
        <pt x="1086" y="1397" on="1"/>
        <pt x="1120" y="1046" on="1"/>
        <pt x="1031" y="1024" on="1"/>
        <pt x="932" y="1246" on="1"/>
        <pt x="453" y="1296" on="1"/>
        <pt x="453" y="741" on="1"/>
        <pt x="598" y="759" on="0"/>
        <pt x="748" y="765" on="1"/>
        <pt x="810" y="935" on="1"/>
        <pt x="888" y="914" on="1"/>
        <pt x="870" y="463" on="1"/>
        <pt x="791" y="480" on="1"/>
        <pt x="746" y="639" on="1"/>
        <pt x="659" y="639" on="0"/>
        <pt x="518" y="647" on="0"/>
        <pt x="453" y="659" on="1"/>
        <pt x="453" y="99" on="1"/>
        <pt x="996" y="155" on="1"/>
      </contour>
    </TTGlyph>
    <TTGlyph name="Emacron" xMin="66" yMin="0" xMax="1199" yMax="1671">
      <contour>
        <pt x="892" y="1671" on="1"/>
        <pt x="869" y="1552" on="1"/>
        <pt x="764" y="1546" on="0"/>
        <pt x="462" y="1540" on="0"/>
        <pt x="349" y="1540" on="1"/>
        <pt x="377" y="1671" on="1"/>
      </contour>
      <contour>
        <pt x="1120" y="340" on="1"/>
        <pt x="1199" y="320" on="1"/>
        <pt x="1120" y="0" on="1"/>
        <pt x="66" y="0" on="1"/>
        <pt x="82" y="85" on="1"/>
        <pt x="261" y="141" on="1"/>
        <pt x="261" y="1248" on="1"/>
        <pt x="73" y="1304" on="1"/>
        <pt x="94" y="1384" on="1"/>
        <pt x="959" y="1384" on="1"/>
        <pt x="1086" y="1397" on="1"/>
        <pt x="1120" y="1046" on="1"/>
        <pt x="1031" y="1024" on="1"/>
        <pt x="932" y="1246" on="1"/>
        <pt x="453" y="1296" on="1"/>
        <pt x="453" y="741" on="1"/>
        <pt x="598" y="759" on="0"/>
        <pt x="748" y="765" on="1"/>
        <pt x="810" y="935" on="1"/>
        <pt x="888" y="914" on="1"/>
        <pt x="870" y="463" on="1"/>
        <pt x="791" y="480" on="1"/>
        <pt x="746" y="639" on="1"/>
        <pt x="659" y="639" on="0"/>
        <pt x="518" y="647" on="0"/>
        <pt x="453" y="659" on="1"/>
        <pt x="453" y="99" on="1"/>
        <pt x="996" y="155" on="1"/>
      </contour>
    </TTGlyph>
    <TTGlyph name="Eogonek" xMin="66" yMin="-476" xMax="1199" yMax="1397">
      <contour>
        <pt x="1127" y="-315" on="1"/>
        <pt x="1147" y="-355" on="1"/>
        <pt x="1081" y="-413" on="0"/>
        <pt x="968" y="-476" on="0"/>
        <pt x="907" y="-476" on="1"/>
        <pt x="854" y="-476" on="0"/>
        <pt x="761" y="-430" on="0"/>
        <pt x="705" y="-344" on="0"/>
        <pt x="705" y="-287" on="1"/>
        <pt x="705" y="-188" on="0"/>
        <pt x="790" y="-105" on="1"/>
        <pt x="812" y="-83" on="0"/>
        <pt x="872" y="-37" on="0"/>
        <pt x="879" y="-31" on="1"/>
        <pt x="887" y="-25" on="0"/>
        <pt x="908" y="-9" on="0"/>
        <pt x="919" y="0" on="1"/>
        <pt x="66" y="0" on="1"/>
        <pt x="82" y="85" on="1"/>
        <pt x="261" y="141" on="1"/>
        <pt x="261" y="1248" on="1"/>
        <pt x="73" y="1304" on="1"/>
        <pt x="94" y="1384" on="1"/>
        <pt x="959" y="1384" on="1"/>
        <pt x="1086" y="1397" on="1"/>
        <pt x="1120" y="1046" on="1"/>
        <pt x="1031" y="1024" on="1"/>
        <pt x="932" y="1246" on="1"/>
        <pt x="453" y="1296" on="1"/>
        <pt x="453" y="741" on="1"/>
        <pt x="598" y="759" on="0"/>
        <pt x="748" y="765" on="1"/>
        <pt x="810" y="935" on="1"/>
        <pt x="888" y="914" on="1"/>
        <pt x="870" y="463" on="1"/>
        <pt x="791" y="480" on="1"/>
        <pt x="746" y="639" on="1"/>
        <pt x="659" y="639" on="0"/>
        <pt x="518" y="647" on="0"/>
        <pt x="453" y="659" on="1"/>
        <pt x="453" y="99" on="1"/>
        <pt x="996" y="155" on="1"/>
        <pt x="1120" y="340" on="1"/>
        <pt x="1199" y="320" on="1"/>
        <pt x="1120" y="0" on="1"/>
        <pt x="1034" y="0" on="1"/>
        <pt x="940" y="-82" on="0"/>
        <pt x="853" y="-196" on="0"/>
        <pt x="853" y="-236" on="1"/>
        <pt x="853" y="-271" on="0"/>
        <pt x="899" y="-336" on="0"/>
        <pt x="934" y="-349" on="1"/>
        <pt x="951" y="-356" on="0"/>
        <pt x="971" y="-356" on="1"/>
        <pt x="1001" y="-356" on="0"/>
        <pt x="1076" y="-335" on="0"/>
      </contour>
    </TTGlyph>
    <TTGlyph name="Eth" xMin="70" yMin="0" xMax="1335" yMax="1384">
      <contour>
        <pt x="1335" y="704" on="1"/>
        <pt x="1335" y="555" on="0"/>
        <pt x="1250" y="283" on="0"/>
        <pt x="1158" y="186" on="1"/>
        <pt x="1076" y="101" on="0"/>
        <pt x="850" y="20" on="0"/>
        <pt x="616" y="0" on="0"/>
        <pt x="451" y="0" on="1"/>
        <pt x="70" y="0" on="1"/>
        <pt x="87" y="85" on="1"/>
        <pt x="262" y="139" on="1"/>
        <pt x="262" y="620" on="1"/>
        <pt x="93" y="614" on="1"/>
        <pt x="124" y="757" on="1"/>
        <pt x="262" y="757" on="1"/>
        <pt x="262" y="1246" on="1"/>
        <pt x="75" y="1302" on="1"/>
        <pt x="92" y="1384" on="1"/>
        <pt x="531" y="1384" on="1"/>
        <pt x="694" y="1384" on="0"/>
        <pt x="968" y="1334" on="0"/>
        <pt x="1069" y="1266" on="1"/>
        <pt x="1206" y="1173" on="0"/>
        <pt x="1335" y="887" on="0"/>
      </contour>
      <contour>
        <pt x="1129" y="697" on="1"/>
        <pt x="1129" y="1026" on="0"/>
        <pt x="883" y="1180" on="1"/>
        <pt x="813" y="1224" on="0"/>
        <pt x="584" y="1286" on="0"/>
        <pt x="454" y="1301" on="1"/>
        <pt x="454" y="757" on="1"/>
        <pt x="748" y="757" on="1"/>
        <pt x="724" y="636" on="1"/>
        <pt x="454" y="627" on="1"/>
        <pt x="454" y="87" on="1"/>
        <pt x="698" y="118" on="0"/>
        <pt x="988" y="245" on="0"/>
        <pt x="1129" y="490" on="0"/>
      </contour>
    </TTGlyph>
    <TTGlyph name="Euro" xMin="66" yMin="-26" xMax="1100" yMax="1339">
      <contour>
        <pt x="1068" y="77" on="1"/>
        <pt x="899" y="-26" on="0"/>
        <pt x="742" y="-26" on="1"/>
        <pt x="620" y="-26" on="0"/>
        <pt x="415" y="89" on="0"/>
        <pt x="277" y="304" on="0"/>
        <pt x="255" y="448" on="1"/>
        <pt x="162" y="452" on="0"/>
        <pt x="67" y="466" on="1"/>
        <pt x="84" y="562" on="1"/>
        <pt x="246" y="562" on="1"/>
        <pt x="246" y="576" on="1"/>
        <pt x="246" y="657" on="0"/>
        <pt x="252" y="729" on="1"/>
        <pt x="150" y="733" on="0"/>
        <pt x="66" y="746" on="1"/>
        <pt x="84" y="843" on="1"/>
        <pt x="266" y="843" on="1"/>
        <pt x="289" y="976" on="0"/>
        <pt x="389" y="1168" on="0"/>
        <pt x="469" y="1231" on="1"/>
        <pt x="529" y="1278" on="0"/>
        <pt x="690" y="1339" on="0"/>
        <pt x="770" y="1339" on="1"/>
        <pt x="837" y="1339" on="0"/>
        <pt x="982" y="1312" on="0"/>
        <pt x="1065" y="1272" on="1"/>
        <pt x="1094" y="992" on="1"/>
        <pt x="1018" y="974" on="1"/>
        <pt x="928" y="1137" on="1"/>
        <pt x="897" y="1170" on="0"/>
        <pt x="791" y="1202" on="0"/>
        <pt x="730" y="1202" on="1"/>
        <pt x="681" y="1202" on="0"/>
        <pt x="588" y="1182" on="0"/>
        <pt x="557" y="1165" on="1"/>
        <pt x="524" y="1144" on="0"/>
        <pt x="456" y="975" on="0"/>
        <pt x="440" y="843" on="1"/>
        <pt x="931" y="843" on="1"/>
        <pt x="916" y="758" on="1"/>
        <pt x="841" y="748" on="0"/>
        <pt x="563" y="728" on="0"/>
        <pt x="431" y="726" on="1"/>
        <pt x="429" y="676" on="0"/>
        <pt x="429" y="646" on="1"/>
        <pt x="429" y="601" on="0"/>
        <pt x="433" y="562" on="1"/>
        <pt x="931" y="562" on="1"/>
        <pt x="916" y="477" on="1"/>
        <pt x="845" y="468" on="0"/>
        <pt x="578" y="448" on="0"/>
        <pt x="449" y="446" on="1"/>
        <pt x="467" y="359" on="0"/>
        <pt x="495" y="306" on="1"/>
        <pt x="516" y="266" on="0"/>
        <pt x="593" y="170" on="0"/>
        <pt x="687" y="100" on="0"/>
        <pt x="730" y="100" on="1"/>
        <pt x="777" y="100" on="0"/>
        <pt x="886" y="129" on="0"/>
        <pt x="918" y="151" on="1"/>
        <pt x="1007" y="322" on="1"/>
        <pt x="1100" y="302" on="1"/>
      </contour>
    </TTGlyph>
    <TTGlyph name="F" xMin="68" yMin="0" xMax="1137" yMax="1397">
      <contour>
        <pt x="92" y="1384" on="1"/>
        <pt x="977" y="1384" on="1"/>
        <pt x="1104" y="1397" on="1"/>
        <pt x="1137" y="1044" on="1"/>
        <pt x="1047" y="1024" on="1"/>
        <pt x="950" y="1246" on="1"/>
        <pt x="455" y="1291" on="1"/>
        <pt x="455" y="741" on="1"/>
        <pt x="574" y="760" on="0"/>
        <pt x="766" y="765" on="1"/>
        <pt x="830" y="936" on="1"/>
        <pt x="906" y="913" on="1"/>
        <pt x="887" y="463" on="1"/>
        <pt x="810" y="479" on="1"/>
        <pt x="764" y="637" on="1"/>
        <pt x="589" y="635" on="0"/>
        <pt x="455" y="657" on="1"/>
        <pt x="455" y="157" on="1"/>
        <pt x="719" y="102" on="1"/>
        <pt x="686" y="0" on="1"/>
        <pt x="68" y="0" on="1"/>
        <pt x="85" y="86" on="1"/>
        <pt x="263" y="141" on="1"/>
        <pt x="263" y="1248" on="1"/>
        <pt x="75" y="1301" on="1"/>
      </contour>
    </TTGlyph>
    <TTGlyph name="G" xMin="88" yMin="-35" xMax="1365" yMax="1419">
      <contour>
        <pt x="789" y="666" on="1"/>
        <pt x="1365" y="666" on="1"/>
        <pt x="1350" y="576" on="1"/>
        <pt x="1229" y="515" on="1"/>
        <pt x="1229" y="209" on="1"/>
        <pt x="1159" y="96" on="0"/>
        <pt x="899" y="-35" on="0"/>
        <pt x="744" y="-35" on="1"/>
        <pt x="638" y="-35" on="0"/>
        <pt x="490" y="-10" on="0"/>
        <pt x="354" y="60" on="0"/>
        <pt x="278" y="128" on="1"/>
        <pt x="187" y="211" on="0"/>
        <pt x="88" y="488" on="0"/>
        <pt x="88" y="642" on="1"/>
        <pt x="88" y="823" on="0"/>
        <pt x="210" y="1165" on="0"/>
        <pt x="359" y="1289" on="1"/>
        <pt x="434" y="1352" on="0"/>
        <pt x="656" y="1419" on="0"/>
        <pt x="776" y="1419" on="1"/>
        <pt x="838" y="1419" on="0"/>
        <pt x="971" y="1405" on="0"/>
        <pt x="1023" y="1393" on="1"/>
        <pt x="1155" y="1407" on="1"/>
        <pt x="1195" y="1044" on="1"/>
        <pt x="1098" y="1023" on="1"/>
        <pt x="1004" y="1227" on="1"/>
        <pt x="962" y="1252" on="0"/>
        <pt x="802" y="1285" on="0"/>
        <pt x="734" y="1285" on="1"/>
        <pt x="642" y="1285" on="0"/>
        <pt x="486" y="1245" on="0"/>
        <pt x="449" y="1210" on="1"/>
        <pt x="376" y="1140" on="0"/>
        <pt x="294" y="895" on="0"/>
        <pt x="294" y="684" on="1"/>
        <pt x="294" y="560" on="0"/>
        <pt x="373" y="315" on="0"/>
        <pt x="457" y="243" on="1"/>
        <pt x="535" y="173" on="0"/>
        <pt x="695" y="121" on="0"/>
        <pt x="791" y="121" on="1"/>
        <pt x="855" y="121" on="0"/>
        <pt x="1003" y="154" on="0"/>
        <pt x="1042" y="184" on="1"/>
        <pt x="1042" y="523" on="1"/>
        <pt x="772" y="582" on="1"/>
      </contour>
    </TTGlyph>
    <TTGlyph name="Gbreve" xMin="88" yMin="-35" xMax="1365" yMax="1766">
      <contour>
        <pt x="494" y="1702" on="1"/>
        <pt x="494" y="1753" on="0"/>
        <pt x="515" y="1766" on="1"/>
        <pt x="616" y="1765" on="1"/>
        <pt x="618" y="1713" on="0"/>
        <pt x="660" y="1639" on="0"/>
        <pt x="721" y="1603" on="0"/>
        <pt x="749" y="1603" on="1"/>
        <pt x="778" y="1603" on="0"/>
        <pt x="838" y="1639" on="0"/>
        <pt x="881" y="1713" on="0"/>
        <pt x="883" y="1766" on="1"/>
        <pt x="986" y="1766" on="1"/>
        <pt x="1005" y="1748" on="0"/>
        <pt x="1005" y="1703" on="1"/>
        <pt x="1005" y="1652" on="0"/>
        <pt x="946" y="1555" on="0"/>
        <pt x="830" y="1492" on="0"/>
        <pt x="749" y="1492" on="1"/>
        <pt x="668" y="1492" on="0"/>
        <pt x="553" y="1555" on="0"/>
        <pt x="494" y="1652" on="0"/>
      </contour>
      <contour>
        <pt x="789" y="666" on="1"/>
        <pt x="1365" y="666" on="1"/>
        <pt x="1350" y="576" on="1"/>
        <pt x="1229" y="515" on="1"/>
        <pt x="1229" y="209" on="1"/>
        <pt x="1159" y="96" on="0"/>
        <pt x="899" y="-35" on="0"/>
        <pt x="744" y="-35" on="1"/>
        <pt x="638" y="-35" on="0"/>
        <pt x="490" y="-10" on="0"/>
        <pt x="354" y="60" on="0"/>
        <pt x="278" y="128" on="1"/>
        <pt x="187" y="211" on="0"/>
        <pt x="88" y="488" on="0"/>
        <pt x="88" y="642" on="1"/>
        <pt x="88" y="823" on="0"/>
        <pt x="210" y="1165" on="0"/>
        <pt x="359" y="1289" on="1"/>
        <pt x="434" y="1352" on="0"/>
        <pt x="656" y="1419" on="0"/>
        <pt x="776" y="1419" on="1"/>
        <pt x="838" y="1419" on="0"/>
        <pt x="971" y="1405" on="0"/>
        <pt x="1023" y="1393" on="1"/>
        <pt x="1155" y="1407" on="1"/>
        <pt x="1195" y="1044" on="1"/>
        <pt x="1098" y="1023" on="1"/>
        <pt x="1004" y="1227" on="1"/>
        <pt x="962" y="1252" on="0"/>
        <pt x="802" y="1285" on="0"/>
        <pt x="734" y="1285" on="1"/>
        <pt x="642" y="1285" on="0"/>
        <pt x="486" y="1245" on="0"/>
        <pt x="449" y="1210" on="1"/>
        <pt x="376" y="1140" on="0"/>
        <pt x="294" y="895" on="0"/>
        <pt x="294" y="684" on="1"/>
        <pt x="294" y="560" on="0"/>
        <pt x="373" y="315" on="0"/>
        <pt x="457" y="243" on="1"/>
        <pt x="535" y="173" on="0"/>
        <pt x="695" y="121" on="0"/>
        <pt x="791" y="121" on="1"/>
        <pt x="855" y="121" on="0"/>
        <pt x="1003" y="154" on="0"/>
        <pt x="1042" y="184" on="1"/>
        <pt x="1042" y="523" on="1"/>
        <pt x="772" y="582" on="1"/>
      </contour>
    </TTGlyph>
    <TTGlyph name="Gcommaaccent" xMin="88" yMin="-472" xMax="1365" yMax="1419">
      <contour>
        <pt x="789" y="666" on="1"/>
        <pt x="1365" y="666" on="1"/>
        <pt x="1350" y="576" on="1"/>
        <pt x="1229" y="515" on="1"/>
        <pt x="1229" y="209" on="1"/>
        <pt x="1159" y="96" on="0"/>
        <pt x="899" y="-35" on="0"/>
        <pt x="744" y="-35" on="1"/>
        <pt x="638" y="-35" on="0"/>
        <pt x="490" y="-10" on="0"/>
        <pt x="354" y="60" on="0"/>
        <pt x="278" y="128" on="1"/>
        <pt x="187" y="211" on="0"/>
        <pt x="88" y="488" on="0"/>
        <pt x="88" y="642" on="1"/>
        <pt x="88" y="823" on="0"/>
        <pt x="210" y="1165" on="0"/>
        <pt x="359" y="1289" on="1"/>
        <pt x="434" y="1352" on="0"/>
        <pt x="656" y="1419" on="0"/>
        <pt x="776" y="1419" on="1"/>
        <pt x="838" y="1419" on="0"/>
        <pt x="971" y="1405" on="0"/>
        <pt x="1023" y="1393" on="1"/>
        <pt x="1155" y="1407" on="1"/>
        <pt x="1195" y="1044" on="1"/>
        <pt x="1098" y="1023" on="1"/>
        <pt x="1004" y="1227" on="1"/>
        <pt x="962" y="1252" on="0"/>
        <pt x="802" y="1285" on="0"/>
        <pt x="734" y="1285" on="1"/>
        <pt x="642" y="1285" on="0"/>
        <pt x="486" y="1245" on="0"/>
        <pt x="449" y="1210" on="1"/>
        <pt x="376" y="1140" on="0"/>
        <pt x="294" y="895" on="0"/>
        <pt x="294" y="684" on="1"/>
        <pt x="294" y="560" on="0"/>
        <pt x="373" y="315" on="0"/>
        <pt x="457" y="243" on="1"/>
        <pt x="535" y="173" on="0"/>
        <pt x="695" y="121" on="0"/>
        <pt x="791" y="121" on="1"/>
        <pt x="855" y="121" on="0"/>
        <pt x="1003" y="154" on="0"/>
        <pt x="1042" y="184" on="1"/>
        <pt x="1042" y="523" on="1"/>
        <pt x="772" y="582" on="1"/>
      </contour>
      <contour>
        <pt x="817" y="-152" on="1"/>
        <pt x="840" y="-174" on="0"/>
        <pt x="866" y="-230" on="0"/>
        <pt x="866" y="-261" on="1"/>
        <pt x="866" y="-325" on="0"/>
        <pt x="786" y="-421" on="0"/>
        <pt x="680" y="-472" on="0"/>
        <pt x="645" y="-472" on="1"/>
        <pt x="630" y="-427" on="1"/>
        <pt x="693" y="-381" on="0"/>
        <pt x="748" y="-319" on="0"/>
        <pt x="748" y="-289" on="1"/>
        <pt x="748" y="-263" on="0"/>
        <pt x="703" y="-223" on="0"/>
        <pt x="644" y="-206" on="1"/>
        <pt x="672" y="-95" on="1"/>
        <pt x="714" y="-96" on="0"/>
        <pt x="789" y="-125" on="0"/>
      </contour>
    </TTGlyph>
    <TTGlyph name="H" xMin="69" yMin="0" xMax="1473" yMax="1384">
      <contour>
        <pt x="641" y="0" on="1"/>
        <pt x="69" y="0" on="1"/>
        <pt x="82" y="84" on="1"/>
        <pt x="262" y="139" on="1"/>
        <pt x="262" y="1246" on="1"/>
        <pt x="75" y="1302" on="1"/>
        <pt x="92" y="1384" on="1"/>
        <pt x="665" y="1384" on="1"/>
        <pt x="647" y="1293" on="1"/>
        <pt x="454" y="1240" on="1"/>
        <pt x="454" y="757" on="1"/>
        <pt x="1086" y="757" on="1"/>
        <pt x="1086" y="1241" on="1"/>
        <pt x="881" y="1296" on="1"/>
        <pt x="901" y="1384" on="1"/>
        <pt x="1473" y="1384" on="1"/>
        <pt x="1459" y="1301" on="1"/>
        <pt x="1278" y="1245" on="1"/>
        <pt x="1278" y="138" on="1"/>
        <pt x="1468" y="82" on="1"/>
        <pt x="1448" y="0" on="1"/>
        <pt x="875" y="0" on="1"/>
        <pt x="892" y="90" on="1"/>
        <pt x="1086" y="144" on="1"/>
        <pt x="1086" y="649" on="1"/>
        <pt x="737" y="630" on="0"/>
        <pt x="454" y="623" on="1"/>
        <pt x="454" y="143" on="1"/>
        <pt x="661" y="88" on="1"/>
      </contour>
    </TTGlyph>
    <TTGlyph name="I" xMin="67" yMin="0" xMax="651" yMax="1384">
      <contour>
        <pt x="262" y="1246" on="1"/>
        <pt x="74" y="1301" on="1"/>
        <pt x="91" y="1384" on="1"/>
        <pt x="651" y="1384" on="1"/>
        <pt x="635" y="1299" on="1"/>
        <pt x="454" y="1244" on="1"/>
        <pt x="454" y="140" on="1"/>
        <pt x="647" y="84" on="1"/>
        <pt x="627" y="0" on="1"/>
        <pt x="67" y="0" on="1"/>
        <pt x="84" y="87" on="1"/>
        <pt x="262" y="140" on="1"/>
      </contour>
    </TTGlyph>
    <TTGlyph name="Iacute" xMin="67" yMin="0" xMax="651" yMax="1785">
      <contour>
        <pt x="549" y="1785" on="1"/>
        <pt x="610" y="1785" on="1"/>
        <pt x="637" y="1635" on="1"/>
        <pt x="199" y="1494" on="1"/>
        <pt x="181" y="1599" on="1"/>
      </contour>
      <contour>
        <pt x="262" y="1246" on="1"/>
        <pt x="74" y="1301" on="1"/>
        <pt x="91" y="1384" on="1"/>
        <pt x="651" y="1384" on="1"/>
        <pt x="635" y="1299" on="1"/>
        <pt x="454" y="1244" on="1"/>
        <pt x="454" y="140" on="1"/>
        <pt x="647" y="84" on="1"/>
        <pt x="627" y="0" on="1"/>
        <pt x="67" y="0" on="1"/>
        <pt x="84" y="87" on="1"/>
        <pt x="262" y="140" on="1"/>
      </contour>
    </TTGlyph>
    <TTGlyph name="Icircumflex" xMin="54" yMin="0" xMax="665" yMax="1785">
      <contour>
        <pt x="310" y="1785" on="1"/>
        <pt x="408" y="1785" on="1"/>
        <pt x="665" y="1570" on="1"/>
        <pt x="602" y="1504" on="1"/>
        <pt x="359" y="1634" on="1"/>
        <pt x="116" y="1504" on="1"/>
        <pt x="54" y="1570" on="1"/>
      </contour>
      <contour>
        <pt x="262" y="1246" on="1"/>
        <pt x="74" y="1301" on="1"/>
        <pt x="91" y="1384" on="1"/>
        <pt x="651" y="1384" on="1"/>
        <pt x="635" y="1299" on="1"/>
        <pt x="454" y="1244" on="1"/>
        <pt x="454" y="140" on="1"/>
        <pt x="647" y="84" on="1"/>
        <pt x="627" y="0" on="1"/>
        <pt x="67" y="0" on="1"/>
        <pt x="84" y="87" on="1"/>
        <pt x="262" y="140" on="1"/>
      </contour>
    </TTGlyph>
    <TTGlyph name="Idieresis" xMin="67" yMin="0" xMax="651" yMax="1713">
      <contour>
        <pt x="451" y="1594" on="1"/>
        <pt x="451" y="1629" on="0"/>
        <pt x="467" y="1694" on="0"/>
        <pt x="481" y="1703" on="1"/>
        <pt x="492" y="1713" on="0"/>
        <pt x="528" y="1713" on="1"/>
        <pt x="562" y="1713" on="0"/>
        <pt x="630" y="1696" on="0"/>
        <pt x="640" y="1682" on="1"/>
        <pt x="649" y="1670" on="0"/>
        <pt x="649" y="1633" on="1"/>
        <pt x="649" y="1599" on="0"/>
        <pt x="633" y="1532" on="0"/>
        <pt x="620" y="1521" on="1"/>
        <pt x="606" y="1513" on="0"/>
        <pt x="572" y="1513" on="1"/>
        <pt x="537" y="1513" on="0"/>
        <pt x="471" y="1529" on="0"/>
        <pt x="460" y="1542" on="1"/>
        <pt x="451" y="1556" on="0"/>
      </contour>
      <contour>
        <pt x="68" y="1593" on="1"/>
        <pt x="68" y="1627" on="0"/>
        <pt x="85" y="1693" on="0"/>
        <pt x="98" y="1703" on="1"/>
        <pt x="110" y="1712" on="0"/>
        <pt x="145" y="1712" on="1"/>
        <pt x="179" y="1712" on="0"/>
        <pt x="247" y="1695" on="0"/>
        <pt x="258" y="1682" on="1"/>
        <pt x="267" y="1669" on="0"/>
        <pt x="267" y="1633" on="1"/>
        <pt x="267" y="1598" on="0"/>
        <pt x="251" y="1532" on="0"/>
        <pt x="237" y="1521" on="1"/>
        <pt x="226" y="1513" on="0"/>
        <pt x="189" y="1513" on="1"/>
        <pt x="154" y="1513" on="0"/>
        <pt x="88" y="1529" on="0"/>
        <pt x="78" y="1542" on="1"/>
        <pt x="68" y="1553" on="0"/>
      </contour>
      <contour>
        <pt x="262" y="1246" on="1"/>
        <pt x="74" y="1301" on="1"/>
        <pt x="91" y="1384" on="1"/>
        <pt x="651" y="1384" on="1"/>
        <pt x="635" y="1299" on="1"/>
        <pt x="454" y="1244" on="1"/>
        <pt x="454" y="140" on="1"/>
        <pt x="647" y="84" on="1"/>
        <pt x="627" y="0" on="1"/>
        <pt x="67" y="0" on="1"/>
        <pt x="84" y="87" on="1"/>
        <pt x="262" y="140" on="1"/>
      </contour>
    </TTGlyph>
    <TTGlyph name="Idotaccent" xMin="67" yMin="0" xMax="651" yMax="1712">
      <contour>
        <pt x="259" y="1592" on="1"/>
        <pt x="259" y="1626" on="0"/>
        <pt x="276" y="1693" on="0"/>
        <pt x="289" y="1703" on="1"/>
        <pt x="301" y="1712" on="0"/>
        <pt x="336" y="1712" on="1"/>
        <pt x="371" y="1712" on="0"/>
        <pt x="438" y="1695" on="0"/>
        <pt x="448" y="1682" on="1"/>
        <pt x="458" y="1671" on="0"/>
        <pt x="458" y="1632" on="1"/>
        <pt x="458" y="1597" on="0"/>
        <pt x="442" y="1531" on="0"/>
        <pt x="428" y="1521" on="1"/>
        <pt x="417" y="1513" on="0"/>
        <pt x="380" y="1513" on="1"/>
        <pt x="345" y="1513" on="0"/>
        <pt x="279" y="1529" on="0"/>
        <pt x="269" y="1542" on="1"/>
        <pt x="259" y="1553" on="0"/>
      </contour>
      <contour>
        <pt x="262" y="1246" on="1"/>
        <pt x="74" y="1301" on="1"/>
        <pt x="91" y="1384" on="1"/>
        <pt x="651" y="1384" on="1"/>
        <pt x="635" y="1299" on="1"/>
        <pt x="454" y="1244" on="1"/>
        <pt x="454" y="140" on="1"/>
        <pt x="647" y="84" on="1"/>
        <pt x="627" y="0" on="1"/>
        <pt x="67" y="0" on="1"/>
        <pt x="84" y="87" on="1"/>
        <pt x="262" y="140" on="1"/>
      </contour>
    </TTGlyph>
    <TTGlyph name="Igrave" xMin="67" yMin="0" xMax="651" yMax="1785">
      <contour>
        <pt x="157" y="1785" on="1"/>
        <pt x="218" y="1785" on="1"/>
        <pt x="586" y="1600" on="1"/>
        <pt x="567" y="1495" on="1"/>
        <pt x="130" y="1635" on="1"/>
      </contour>
      <contour>
        <pt x="262" y="1246" on="1"/>
        <pt x="74" y="1301" on="1"/>
        <pt x="91" y="1384" on="1"/>
        <pt x="651" y="1384" on="1"/>
        <pt x="635" y="1299" on="1"/>
        <pt x="454" y="1244" on="1"/>
        <pt x="454" y="140" on="1"/>
        <pt x="647" y="84" on="1"/>
        <pt x="627" y="0" on="1"/>
        <pt x="67" y="0" on="1"/>
        <pt x="84" y="87" on="1"/>
        <pt x="262" y="140" on="1"/>
      </contour>
    </TTGlyph>
    <TTGlyph name="Imacron" xMin="67" yMin="0" xMax="651" yMax="1671">
      <contour>
        <pt x="628" y="1671" on="1"/>
        <pt x="605" y="1552" on="1"/>
        <pt x="500" y="1546" on="0"/>
        <pt x="198" y="1540" on="0"/>
        <pt x="85" y="1540" on="1"/>
        <pt x="113" y="1671" on="1"/>
      </contour>
      <contour>
        <pt x="262" y="1246" on="1"/>
        <pt x="74" y="1301" on="1"/>
        <pt x="91" y="1384" on="1"/>
        <pt x="651" y="1384" on="1"/>
        <pt x="635" y="1299" on="1"/>
        <pt x="454" y="1244" on="1"/>
        <pt x="454" y="140" on="1"/>
        <pt x="647" y="84" on="1"/>
        <pt x="627" y="0" on="1"/>
        <pt x="67" y="0" on="1"/>
        <pt x="84" y="87" on="1"/>
        <pt x="262" y="140" on="1"/>
      </contour>
    </TTGlyph>
    <TTGlyph name="Iogonek" xMin="68" yMin="-476" xMax="655" yMax="1384">
      <contour>
        <pt x="262" y="1246" on="1"/>
        <pt x="75" y="1303" on="1"/>
        <pt x="91" y="1384" on="1"/>
        <pt x="651" y="1384" on="1"/>
        <pt x="635" y="1299" on="1"/>
        <pt x="454" y="1245" on="1"/>
        <pt x="454" y="138" on="1"/>
        <pt x="646" y="81" on="1"/>
        <pt x="628" y="0" on="1"/>
        <pt x="546" y="-32" on="0"/>
        <pt x="423" y="-125" on="0"/>
        <pt x="358" y="-216" on="0"/>
        <pt x="358" y="-242" on="1"/>
        <pt x="358" y="-272" on="0"/>
        <pt x="406" y="-336" on="0"/>
        <pt x="442" y="-350" on="1"/>
        <pt x="458" y="-356" on="0"/>
        <pt x="476" y="-356" on="1"/>
        <pt x="528" y="-356" on="0"/>
        <pt x="631" y="-317" on="1"/>
        <pt x="655" y="-355" on="1"/>
        <pt x="604" y="-396" on="0"/>
        <pt x="539" y="-442" on="0"/>
        <pt x="458" y="-476" on="0"/>
        <pt x="414" y="-476" on="1"/>
        <pt x="360" y="-476" on="0"/>
        <pt x="267" y="-431" on="0"/>
        <pt x="211" y="-346" on="0"/>
        <pt x="211" y="-287" on="1"/>
        <pt x="211" y="-219" on="0"/>
        <pt x="279" y="-117" on="0"/>
        <pt x="372" y="-49" on="0"/>
        <pt x="455" y="0" on="1"/>
        <pt x="68" y="0" on="1"/>
        <pt x="84" y="86" on="1"/>
        <pt x="262" y="139" on="1"/>
      </contour>
    </TTGlyph>
    <TTGlyph name="J" xMin="45" yMin="-332" xMax="632" yMax="1384">
      <contour>
        <pt x="63" y="1384" on="1"/>
        <pt x="632" y="1384" on="1"/>
        <pt x="617" y="1299" on="1"/>
        <pt x="449" y="1245" on="1"/>
        <pt x="449" y="424" on="1"/>
        <pt x="449" y="226" on="0"/>
        <pt x="408" y="15" on="0"/>
        <pt x="293" y="-168" on="0"/>
        <pt x="154" y="-332" on="1"/>
        <pt x="87" y="-284" on="1"/>
        <pt x="131" y="-190" on="0"/>
        <pt x="257" y="138" on="0"/>
        <pt x="257" y="175" on="1"/>
        <pt x="257" y="1246" on="1"/>
        <pt x="45" y="1301" on="1"/>
      </contour>
    </TTGlyph>
    <TTGlyph name="K" xMin="69" yMin="0" xMax="1402" yMax="1384">
      <contour>
        <pt x="261" y="1246" on="1"/>
        <pt x="75" y="1303" on="1"/>
        <pt x="93" y="1384" on="1"/>
        <pt x="653" y="1384" on="1"/>
        <pt x="638" y="1298" on="1"/>
        <pt x="453" y="1245" on="1"/>
        <pt x="453" y="151" on="1"/>
        <pt x="661" y="95" on="1"/>
        <pt x="640" y="0" on="1"/>
        <pt x="69" y="0" on="1"/>
        <pt x="85" y="85" on="1"/>
        <pt x="261" y="139" on="1"/>
      </contour>
      <contour>
        <pt x="1402" y="81" on="1"/>
        <pt x="1384" y="0" on="1"/>
        <pt x="988" y="0" on="1"/>
        <pt x="1001" y="71" on="1"/>
        <pt x="520" y="703" on="1"/>
        <pt x="1018" y="1246" on="1"/>
        <pt x="823" y="1303" on="1"/>
        <pt x="841" y="1384" on="1"/>
        <pt x="1381" y="1384" on="1"/>
        <pt x="1363" y="1297" on="1"/>
        <pt x="1201" y="1243" on="1"/>
        <pt x="724" y="751" on="1"/>
        <pt x="1212" y="146" on="1"/>
      </contour>
    </TTGlyph>
    <TTGlyph name="Kcommaaccent" xMin="69" yMin="-472" xMax="1402" yMax="1384">
      <contour>
        <pt x="261" y="1246" on="1"/>
        <pt x="75" y="1303" on="1"/>
        <pt x="93" y="1384" on="1"/>
        <pt x="653" y="1384" on="1"/>
        <pt x="638" y="1298" on="1"/>
        <pt x="453" y="1245" on="1"/>
        <pt x="453" y="151" on="1"/>
        <pt x="661" y="95" on="1"/>
        <pt x="640" y="0" on="1"/>
        <pt x="69" y="0" on="1"/>
        <pt x="85" y="85" on="1"/>
        <pt x="261" y="139" on="1"/>
      </contour>
      <contour>
        <pt x="1402" y="81" on="1"/>
        <pt x="1384" y="0" on="1"/>
        <pt x="988" y="0" on="1"/>
        <pt x="1001" y="71" on="1"/>
        <pt x="520" y="703" on="1"/>
        <pt x="1018" y="1246" on="1"/>
        <pt x="823" y="1303" on="1"/>
        <pt x="841" y="1384" on="1"/>
        <pt x="1381" y="1384" on="1"/>
        <pt x="1363" y="1297" on="1"/>
        <pt x="1201" y="1243" on="1"/>
        <pt x="724" y="751" on="1"/>
        <pt x="1212" y="146" on="1"/>
      </contour>
      <contour>
        <pt x="772" y="-152" on="1"/>
        <pt x="795" y="-174" on="0"/>
        <pt x="821" y="-230" on="0"/>
        <pt x="821" y="-261" on="1"/>
        <pt x="821" y="-325" on="0"/>
        <pt x="741" y="-421" on="0"/>
        <pt x="635" y="-472" on="0"/>
        <pt x="600" y="-472" on="1"/>
        <pt x="585" y="-427" on="1"/>
        <pt x="648" y="-381" on="0"/>
        <pt x="703" y="-319" on="0"/>
        <pt x="703" y="-289" on="1"/>
        <pt x="703" y="-263" on="0"/>
        <pt x="658" y="-223" on="0"/>
        <pt x="599" y="-206" on="1"/>
        <pt x="627" y="-95" on="1"/>
        <pt x="669" y="-96" on="0"/>
        <pt x="744" y="-125" on="0"/>
      </contour>
    </TTGlyph>
    <TTGlyph name="L" xMin="68" yMin="0" xMax="1185" yMax="1384">
      <contour>
        <pt x="1185" y="322" on="1"/>
        <pt x="1112" y="0" on="1"/>
        <pt x="68" y="0" on="1"/>
        <pt x="83" y="86" on="1"/>
        <pt x="262" y="141" on="1"/>
        <pt x="262" y="1248" on="1"/>
        <pt x="75" y="1300" on="1"/>
        <pt x="92" y="1384" on="1"/>
        <pt x="657" y="1384" on="1"/>
        <pt x="641" y="1298" on="1"/>
        <pt x="454" y="1243" on="1"/>
        <pt x="454" y="100" on="1"/>
        <pt x="979" y="155" on="1"/>
        <pt x="1109" y="342" on="1"/>
      </contour>
    </TTGlyph>
    <TTGlyph name="Lacute" xMin="68" yMin="0" xMax="1185" yMax="1785">
      <contour>
        <pt x="565" y="1785" on="1"/>
        <pt x="626" y="1785" on="1"/>
        <pt x="653" y="1635" on="1"/>
        <pt x="215" y="1494" on="1"/>
        <pt x="197" y="1599" on="1"/>
      </contour>
      <contour>
        <pt x="1185" y="322" on="1"/>
        <pt x="1112" y="0" on="1"/>
        <pt x="68" y="0" on="1"/>
        <pt x="83" y="86" on="1"/>
        <pt x="262" y="141" on="1"/>
        <pt x="262" y="1248" on="1"/>
        <pt x="75" y="1300" on="1"/>
        <pt x="92" y="1384" on="1"/>
        <pt x="657" y="1384" on="1"/>
        <pt x="641" y="1298" on="1"/>
        <pt x="454" y="1243" on="1"/>
        <pt x="454" y="100" on="1"/>
        <pt x="979" y="155" on="1"/>
        <pt x="1109" y="342" on="1"/>
      </contour>
    </TTGlyph>
    <TTGlyph name="Lcaron" xMin="68" yMin="0" xMax="1185" yMax="1400">
      <contour>
        <pt x="912" y="1244" on="1"/>
        <pt x="832" y="1278" on="1"/>
        <pt x="846" y="1378" on="1"/>
        <pt x="969" y="1399" on="0"/>
        <pt x="1047" y="1400" on="1"/>
        <pt x="1066" y="1361" on="0"/>
        <pt x="1066" y="1319" on="1"/>
        <pt x="1066" y="1238" on="0"/>
        <pt x="960" y="1036" on="0"/>
        <pt x="883" y="963" on="1"/>
        <pt x="816" y="982" on="1"/>
        <pt x="887" y="1126" on="0"/>
      </contour>
      <contour>
        <pt x="1185" y="322" on="1"/>
        <pt x="1112" y="0" on="1"/>
        <pt x="68" y="0" on="1"/>
        <pt x="83" y="86" on="1"/>
        <pt x="262" y="141" on="1"/>
        <pt x="262" y="1248" on="1"/>
        <pt x="75" y="1300" on="1"/>
        <pt x="92" y="1384" on="1"/>
        <pt x="657" y="1384" on="1"/>
        <pt x="641" y="1298" on="1"/>
        <pt x="454" y="1243" on="1"/>
        <pt x="454" y="100" on="1"/>
        <pt x="979" y="155" on="1"/>
        <pt x="1109" y="342" on="1"/>
      </contour>
    </TTGlyph>
    <TTGlyph name="Lcommaaccent" xMin="68" yMin="-472" xMax="1185" yMax="1384">
      <contour>
        <pt x="1185" y="322" on="1"/>
        <pt x="1112" y="0" on="1"/>
        <pt x="68" y="0" on="1"/>
        <pt x="83" y="86" on="1"/>
        <pt x="262" y="141" on="1"/>
        <pt x="262" y="1248" on="1"/>
        <pt x="75" y="1300" on="1"/>
        <pt x="92" y="1384" on="1"/>
        <pt x="657" y="1384" on="1"/>
        <pt x="641" y="1298" on="1"/>
        <pt x="454" y="1243" on="1"/>
        <pt x="454" y="100" on="1"/>
        <pt x="979" y="155" on="1"/>
        <pt x="1109" y="342" on="1"/>
      </contour>
      <contour>
        <pt x="663" y="-152" on="1"/>
        <pt x="686" y="-174" on="0"/>
        <pt x="712" y="-230" on="0"/>
        <pt x="712" y="-261" on="1"/>
        <pt x="712" y="-325" on="0"/>
        <pt x="632" y="-421" on="0"/>
        <pt x="526" y="-472" on="0"/>
        <pt x="491" y="-472" on="1"/>
        <pt x="476" y="-427" on="1"/>
        <pt x="539" y="-381" on="0"/>
        <pt x="594" y="-319" on="0"/>
        <pt x="594" y="-289" on="1"/>
        <pt x="594" y="-263" on="0"/>
        <pt x="549" y="-223" on="0"/>
        <pt x="490" y="-206" on="1"/>
        <pt x="518" y="-95" on="1"/>
        <pt x="560" y="-96" on="0"/>
        <pt x="635" y="-125" on="0"/>
      </contour>
    </TTGlyph>
    <TTGlyph name="Lslash" xMin="47" yMin="0" xMax="1185" yMax="1384">
      <contour>
        <pt x="1112" y="0" on="1"/>
        <pt x="68" y="0" on="1"/>
        <pt x="83" y="86" on="1"/>
        <pt x="262" y="141" on="1"/>
        <pt x="262" y="571" on="1"/>
        <pt x="75" y="486" on="1"/>
        <pt x="47" y="616" on="1"/>
        <pt x="262" y="712" on="1"/>
        <pt x="262" y="1248" on="1"/>
        <pt x="75" y="1300" on="1"/>
        <pt x="92" y="1384" on="1"/>
        <pt x="657" y="1384" on="1"/>
        <pt x="641" y="1298" on="1"/>
        <pt x="454" y="1243" on="1"/>
        <pt x="454" y="798" on="1"/>
        <pt x="946" y="1018" on="1"/>
        <pt x="977" y="895" on="1"/>
        <pt x="454" y="658" on="1"/>
        <pt x="454" y="100" on="1"/>
        <pt x="979" y="155" on="1"/>
        <pt x="1109" y="342" on="1"/>
        <pt x="1185" y="322" on="1"/>
      </contour>
    </TTGlyph>
    <TTGlyph name="M" xMin="70" yMin="-15" xMax="1813" yMax="1384">
      <contour>
        <pt x="96" y="1384" on="1"/>
        <pt x="457" y="1384" on="1"/>
        <pt x="958" y="248" on="1"/>
        <pt x="1423" y="1384" on="1"/>
        <pt x="1813" y="1384" on="1"/>
        <pt x="1796" y="1289" on="1"/>
        <pt x="1617" y="1235" on="1"/>
        <pt x="1617" y="138" on="1"/>
        <pt x="1807" y="83" on="1"/>
        <pt x="1789" y="0" on="1"/>
        <pt x="1232" y="0" on="1"/>
        <pt x="1248" y="85" on="1"/>
        <pt x="1425" y="139" on="1"/>
        <pt x="1425" y="1149" on="1"/>
        <pt x="1261" y="677" on="0"/>
        <pt x="988" y="25" on="1"/>
        <pt x="846" y="-15" on="1"/>
        <pt x="371" y="1143" on="1"/>
        <pt x="388" y="1011" on="0"/>
        <pt x="397" y="507" on="0"/>
        <pt x="397" y="138" on="1"/>
        <pt x="590" y="84" on="1"/>
        <pt x="573" y="0" on="1"/>
        <pt x="70" y="0" on="1"/>
        <pt x="88" y="87" on="1"/>
        <pt x="261" y="139" on="1"/>
        <pt x="261" y="1236" on="1"/>
        <pt x="77" y="1291" on="1"/>
      </contour>
    </TTGlyph>
    <TTGlyph name="N" xMin="73" yMin="-25" xMax="1470" yMax="1384">
      <contour>
        <pt x="261" y="1246" on="1"/>
        <pt x="73" y="1301" on="1"/>
        <pt x="92" y="1384" on="1"/>
        <pt x="415" y="1384" on="1"/>
        <pt x="1165" y="299" on="1"/>
        <pt x="1152" y="510" on="0"/>
        <pt x="1146" y="931" on="0"/>
        <pt x="1146" y="1247" on="1"/>
        <pt x="942" y="1301" on="1"/>
        <pt x="959" y="1384" on="1"/>
        <pt x="1470" y="1384" on="1"/>
        <pt x="1455" y="1300" on="1"/>
        <pt x="1286" y="1245" on="1"/>
        <pt x="1286" y="15" on="1"/>
        <pt x="1142" y="-25" on="1"/>
        <pt x="377" y="1099" on="1"/>
        <pt x="393" y="886" on="0"/>
        <pt x="401" y="458" on="0"/>
        <pt x="401" y="138" on="1"/>
        <pt x="606" y="84" on="1"/>
        <pt x="588" y="0" on="1"/>
        <pt x="74" y="0" on="1"/>
        <pt x="91" y="86" on="1"/>
        <pt x="261" y="139" on="1"/>
      </contour>
    </TTGlyph>
    <TTGlyph name="Nacute" xMin="73" yMin="-25" xMax="1470" yMax="1785">
      <contour>
        <pt x="952" y="1785" on="1"/>
        <pt x="1013" y="1785" on="1"/>
        <pt x="1040" y="1635" on="1"/>
        <pt x="602" y="1494" on="1"/>
        <pt x="584" y="1599" on="1"/>
      </contour>
      <contour>
        <pt x="261" y="1246" on="1"/>
        <pt x="73" y="1301" on="1"/>
        <pt x="92" y="1384" on="1"/>
        <pt x="415" y="1384" on="1"/>
        <pt x="1165" y="299" on="1"/>
        <pt x="1152" y="510" on="0"/>
        <pt x="1146" y="931" on="0"/>
        <pt x="1146" y="1247" on="1"/>
        <pt x="942" y="1301" on="1"/>
        <pt x="959" y="1384" on="1"/>
        <pt x="1470" y="1384" on="1"/>
        <pt x="1455" y="1300" on="1"/>
        <pt x="1286" y="1245" on="1"/>
        <pt x="1286" y="15" on="1"/>
        <pt x="1142" y="-25" on="1"/>
        <pt x="377" y="1099" on="1"/>
        <pt x="393" y="886" on="0"/>
        <pt x="401" y="458" on="0"/>
        <pt x="401" y="138" on="1"/>
        <pt x="606" y="84" on="1"/>
        <pt x="588" y="0" on="1"/>
        <pt x="74" y="0" on="1"/>
        <pt x="91" y="86" on="1"/>
        <pt x="261" y="139" on="1"/>
      </contour>
    </TTGlyph>
    <TTGlyph name="Ncaron" xMin="73" yMin="-25" xMax="1470" yMax="1794">
      <contour>
        <pt x="519" y="1794" on="1"/>
        <pt x="762" y="1665" on="1"/>
        <pt x="1005" y="1794" on="1"/>
        <pt x="1067" y="1730" on="1"/>
        <pt x="810" y="1515" on="1"/>
        <pt x="714" y="1515" on="1"/>
        <pt x="457" y="1730" on="1"/>
      </contour>
      <contour>
        <pt x="261" y="1246" on="1"/>
        <pt x="73" y="1301" on="1"/>
        <pt x="92" y="1384" on="1"/>
        <pt x="415" y="1384" on="1"/>
        <pt x="1165" y="299" on="1"/>
        <pt x="1152" y="510" on="0"/>
        <pt x="1146" y="931" on="0"/>
        <pt x="1146" y="1247" on="1"/>
        <pt x="942" y="1301" on="1"/>
        <pt x="959" y="1384" on="1"/>
        <pt x="1470" y="1384" on="1"/>
        <pt x="1455" y="1300" on="1"/>
        <pt x="1286" y="1245" on="1"/>
        <pt x="1286" y="15" on="1"/>
        <pt x="1142" y="-25" on="1"/>
        <pt x="377" y="1099" on="1"/>
        <pt x="393" y="886" on="0"/>
        <pt x="401" y="458" on="0"/>
        <pt x="401" y="138" on="1"/>
        <pt x="606" y="84" on="1"/>
        <pt x="588" y="0" on="1"/>
        <pt x="74" y="0" on="1"/>
        <pt x="91" y="86" on="1"/>
        <pt x="261" y="139" on="1"/>
      </contour>
    </TTGlyph>
    <TTGlyph name="Ncommaaccent" xMin="73" yMin="-472" xMax="1470" yMax="1384">
      <contour>
        <pt x="261" y="1246" on="1"/>
        <pt x="73" y="1301" on="1"/>
        <pt x="92" y="1384" on="1"/>
        <pt x="415" y="1384" on="1"/>
        <pt x="1165" y="299" on="1"/>
        <pt x="1152" y="510" on="0"/>
        <pt x="1146" y="931" on="0"/>
        <pt x="1146" y="1247" on="1"/>
        <pt x="942" y="1301" on="1"/>
        <pt x="959" y="1384" on="1"/>
        <pt x="1470" y="1384" on="1"/>
        <pt x="1455" y="1300" on="1"/>
        <pt x="1286" y="1245" on="1"/>
        <pt x="1286" y="15" on="1"/>
        <pt x="1142" y="-25" on="1"/>
        <pt x="377" y="1099" on="1"/>
        <pt x="393" y="886" on="0"/>
        <pt x="401" y="458" on="0"/>
        <pt x="401" y="138" on="1"/>
        <pt x="606" y="84" on="1"/>
        <pt x="588" y="0" on="1"/>
        <pt x="74" y="0" on="1"/>
        <pt x="91" y="86" on="1"/>
        <pt x="261" y="139" on="1"/>
      </contour>
      <contour>
        <pt x="830" y="-152" on="1"/>
        <pt x="853" y="-174" on="0"/>
        <pt x="879" y="-230" on="0"/>
        <pt x="879" y="-261" on="1"/>
        <pt x="879" y="-325" on="0"/>
        <pt x="799" y="-421" on="0"/>
        <pt x="693" y="-472" on="0"/>
        <pt x="658" y="-472" on="1"/>
        <pt x="643" y="-427" on="1"/>
        <pt x="706" y="-381" on="0"/>
        <pt x="761" y="-319" on="0"/>
        <pt x="761" y="-289" on="1"/>
        <pt x="761" y="-263" on="0"/>
        <pt x="716" y="-223" on="0"/>
        <pt x="657" y="-206" on="1"/>
        <pt x="685" y="-95" on="1"/>
        <pt x="727" y="-96" on="0"/>
        <pt x="802" y="-125" on="0"/>
      </contour>
    </TTGlyph>
    <TTGlyph name="Ntilde" xMin="73" yMin="-25" xMax="1470" yMax="1790">
      <contour>
        <pt x="648" y="1790" on="1"/>
        <pt x="692" y="1790" on="0"/>
        <pt x="765" y="1748" on="0"/>
        <pt x="814" y="1709" on="1"/>
        <pt x="841" y="1687" on="0"/>
        <pt x="874" y="1665" on="0"/>
        <pt x="888" y="1665" on="1"/>
        <pt x="915" y="1665" on="0"/>
        <pt x="1025" y="1726" on="0"/>
        <pt x="1075" y="1768" on="1"/>
        <pt x="1093" y="1657" on="1"/>
        <pt x="1035" y="1593" on="0"/>
        <pt x="933" y="1521" on="0"/>
        <pt x="875" y="1521" on="1"/>
        <pt x="831" y="1521" on="0"/>
        <pt x="755" y="1564" on="0"/>
        <pt x="711" y="1601" on="1"/>
        <pt x="684" y="1623" on="0"/>
        <pt x="651" y="1645" on="0"/>
        <pt x="637" y="1645" on="1"/>
        <pt x="607" y="1645" on="0"/>
        <pt x="493" y="1585" on="0"/>
        <pt x="451" y="1543" on="1"/>
        <pt x="430" y="1653" on="1"/>
        <pt x="473" y="1698" on="0"/>
        <pt x="535" y="1753" on="0"/>
        <pt x="608" y="1790" on="0"/>
      </contour>
      <contour>
        <pt x="261" y="1246" on="1"/>
        <pt x="73" y="1301" on="1"/>
        <pt x="92" y="1384" on="1"/>
        <pt x="415" y="1384" on="1"/>
        <pt x="1165" y="299" on="1"/>
        <pt x="1152" y="510" on="0"/>
        <pt x="1146" y="931" on="0"/>
        <pt x="1146" y="1247" on="1"/>
        <pt x="942" y="1301" on="1"/>
        <pt x="959" y="1384" on="1"/>
        <pt x="1470" y="1384" on="1"/>
        <pt x="1455" y="1300" on="1"/>
        <pt x="1286" y="1245" on="1"/>
        <pt x="1286" y="15" on="1"/>
        <pt x="1142" y="-25" on="1"/>
        <pt x="377" y="1099" on="1"/>
        <pt x="393" y="886" on="0"/>
        <pt x="401" y="458" on="0"/>
        <pt x="401" y="138" on="1"/>
        <pt x="606" y="84" on="1"/>
        <pt x="588" y="0" on="1"/>
        <pt x="74" y="0" on="1"/>
        <pt x="91" y="86" on="1"/>
        <pt x="261" y="139" on="1"/>
      </contour>
    </TTGlyph>
    <TTGlyph name="O" xMin="89" yMin="-35" xMax="1315" yMax="1419">
      <contour>
        <pt x="742" y="1419" on="1"/>
        <pt x="898" y="1419" on="0"/>
        <pt x="1160" y="1260" on="0"/>
        <pt x="1315" y="961" on="0"/>
        <pt x="1315" y="762" on="1"/>
        <pt x="1315" y="546" on="0"/>
        <pt x="1160" y="181" on="0"/>
        <pt x="868" y="-35" on="0"/>
        <pt x="671" y="-35" on="1"/>
        <pt x="507" y="-35" on="0"/>
        <pt x="242" y="124" on="0"/>
        <pt x="89" y="422" on="0"/>
        <pt x="89" y="623" on="1"/>
        <pt x="89" y="838" on="0"/>
        <pt x="240" y="1201" on="0"/>
        <pt x="535" y="1419" on="0"/>
      </contour>
      <contour>
        <pt x="759" y="123" on="1"/>
        <pt x="828" y="123" on="0"/>
        <pt x="955" y="166" on="0"/>
        <pt x="999" y="213" on="1"/>
        <pt x="1053" y="271" on="0"/>
        <pt x="1110" y="511" on="0"/>
        <pt x="1110" y="616" on="1"/>
        <pt x="1110" y="740" on="0"/>
        <pt x="1089" y="911" on="0"/>
        <pt x="1059" y="982" on="1"/>
        <pt x="1024" y="1065" on="0"/>
        <pt x="897" y="1191" on="0"/>
        <pt x="735" y="1261" on="0"/>
        <pt x="650" y="1261" on="1"/>
        <pt x="584" y="1261" on="0"/>
        <pt x="455" y="1219" on="0"/>
        <pt x="410" y="1176" on="1"/>
        <pt x="371" y="1138" on="0"/>
        <pt x="319" y="993" on="0"/>
        <pt x="294" y="831" on="0"/>
        <pt x="294" y="765" on="1"/>
        <pt x="294" y="615" on="0"/>
        <pt x="344" y="375" on="0"/>
        <pt x="413" y="289" on="1"/>
        <pt x="474" y="212" on="0"/>
        <pt x="658" y="123" on="0"/>
      </contour>
    </TTGlyph>
    <TTGlyph name="OE" xMin="89" yMin="-35" xMax="1854" yMax="1419">
      <contour>
        <pt x="671" y="-35" on="1"/>
        <pt x="507" y="-35" on="0"/>
        <pt x="242" y="124" on="0"/>
        <pt x="89" y="422" on="0"/>
        <pt x="89" y="623" on="1"/>
        <pt x="89" y="838" on="0"/>
        <pt x="240" y="1201" on="0"/>
        <pt x="535" y="1419" on="0"/>
        <pt x="742" y="1419" on="1"/>
        <pt x="843" y="1419" on="0"/>
        <pt x="937" y="1384" on="1"/>
        <pt x="1619" y="1384" on="1"/>
        <pt x="1746" y="1397" on="1"/>
        <pt x="1780" y="1046" on="1"/>
        <pt x="1691" y="1023" on="1"/>
        <pt x="1592" y="1246" on="1"/>
        <pt x="1158" y="1296" on="1"/>
        <pt x="1158" y="741" on="1"/>
        <pt x="1277" y="758" on="0"/>
        <pt x="1433" y="765" on="1"/>
        <pt x="1491" y="933" on="1"/>
        <pt x="1563" y="912" on="1"/>
        <pt x="1545" y="463" on="1"/>
        <pt x="1472" y="478" on="1"/>
        <pt x="1431" y="639" on="1"/>
        <pt x="1273" y="641" on="0"/>
        <pt x="1158" y="659" on="1"/>
        <pt x="1158" y="99" on="1"/>
        <pt x="1657" y="155" on="1"/>
        <pt x="1779" y="339" on="1"/>
        <pt x="1854" y="322" on="1"/>
        <pt x="1778" y="0" on="1"/>
        <pt x="876" y="0" on="1"/>
        <pt x="776" y="-35" on="0"/>
      </contour>
      <contour>
        <pt x="966" y="185" on="1"/>
        <pt x="966" y="1151" on="1"/>
        <pt x="904" y="1206" on="0"/>
        <pt x="740" y="1262" on="0"/>
        <pt x="650" y="1262" on="1"/>
        <pt x="585" y="1262" on="0"/>
        <pt x="456" y="1219" on="0"/>
        <pt x="411" y="1176" on="1"/>
        <pt x="372" y="1138" on="0"/>
        <pt x="319" y="993" on="0"/>
        <pt x="294" y="832" on="0"/>
        <pt x="294" y="766" on="1"/>
        <pt x="294" y="616" on="0"/>
        <pt x="344" y="376" on="0"/>
        <pt x="413" y="290" on="1"/>
        <pt x="474" y="213" on="0"/>
        <pt x="658" y="124" on="0"/>
        <pt x="759" y="124" on="1"/>
        <pt x="815" y="124" on="0"/>
        <pt x="924" y="153" on="0"/>
      </contour>
    </TTGlyph>
    <TTGlyph name="Oacute" xMin="89" yMin="-35" xMax="1315" yMax="1785">
      <contour>
        <pt x="894" y="1785" on="1"/>
        <pt x="955" y="1785" on="1"/>
        <pt x="982" y="1635" on="1"/>
        <pt x="544" y="1494" on="1"/>
        <pt x="526" y="1599" on="1"/>
      </contour>
      <contour>
        <pt x="742" y="1419" on="1"/>
        <pt x="898" y="1419" on="0"/>
        <pt x="1160" y="1260" on="0"/>
        <pt x="1315" y="961" on="0"/>
        <pt x="1315" y="762" on="1"/>
        <pt x="1315" y="546" on="0"/>
        <pt x="1160" y="181" on="0"/>
        <pt x="868" y="-35" on="0"/>
        <pt x="671" y="-35" on="1"/>
        <pt x="507" y="-35" on="0"/>
        <pt x="242" y="124" on="0"/>
        <pt x="89" y="422" on="0"/>
        <pt x="89" y="623" on="1"/>
        <pt x="89" y="838" on="0"/>
        <pt x="240" y="1201" on="0"/>
        <pt x="535" y="1419" on="0"/>
      </contour>
      <contour>
        <pt x="759" y="123" on="1"/>
        <pt x="828" y="123" on="0"/>
        <pt x="955" y="166" on="0"/>
        <pt x="999" y="213" on="1"/>
        <pt x="1053" y="271" on="0"/>
        <pt x="1110" y="511" on="0"/>
        <pt x="1110" y="616" on="1"/>
        <pt x="1110" y="740" on="0"/>
        <pt x="1089" y="911" on="0"/>
        <pt x="1059" y="982" on="1"/>
        <pt x="1024" y="1065" on="0"/>
        <pt x="897" y="1191" on="0"/>
        <pt x="735" y="1261" on="0"/>
        <pt x="650" y="1261" on="1"/>
        <pt x="584" y="1261" on="0"/>
        <pt x="455" y="1219" on="0"/>
        <pt x="410" y="1176" on="1"/>
        <pt x="371" y="1138" on="0"/>
        <pt x="319" y="993" on="0"/>
        <pt x="294" y="831" on="0"/>
        <pt x="294" y="765" on="1"/>
        <pt x="294" y="615" on="0"/>
        <pt x="344" y="375" on="0"/>
        <pt x="413" y="289" on="1"/>
        <pt x="474" y="212" on="0"/>
        <pt x="658" y="123" on="0"/>
      </contour>
    </TTGlyph>
    <TTGlyph name="Ocircumflex" xMin="89" yMin="-35" xMax="1315" yMax="1785">
      <contour>
        <pt x="655" y="1785" on="1"/>
        <pt x="753" y="1785" on="1"/>
        <pt x="1010" y="1570" on="1"/>
        <pt x="947" y="1504" on="1"/>
        <pt x="704" y="1634" on="1"/>
        <pt x="461" y="1504" on="1"/>
        <pt x="399" y="1570" on="1"/>
      </contour>
      <contour>
        <pt x="742" y="1419" on="1"/>
        <pt x="898" y="1419" on="0"/>
        <pt x="1160" y="1260" on="0"/>
        <pt x="1315" y="961" on="0"/>
        <pt x="1315" y="762" on="1"/>
        <pt x="1315" y="546" on="0"/>
        <pt x="1160" y="181" on="0"/>
        <pt x="868" y="-35" on="0"/>
        <pt x="671" y="-35" on="1"/>
        <pt x="507" y="-35" on="0"/>
        <pt x="242" y="124" on="0"/>
        <pt x="89" y="422" on="0"/>
        <pt x="89" y="623" on="1"/>
        <pt x="89" y="838" on="0"/>
        <pt x="240" y="1201" on="0"/>
        <pt x="535" y="1419" on="0"/>
      </contour>
      <contour>
        <pt x="759" y="123" on="1"/>
        <pt x="828" y="123" on="0"/>
        <pt x="955" y="166" on="0"/>
        <pt x="999" y="213" on="1"/>
        <pt x="1053" y="271" on="0"/>
        <pt x="1110" y="511" on="0"/>
        <pt x="1110" y="616" on="1"/>
        <pt x="1110" y="740" on="0"/>
        <pt x="1089" y="911" on="0"/>
        <pt x="1059" y="982" on="1"/>
        <pt x="1024" y="1065" on="0"/>
        <pt x="897" y="1191" on="0"/>
        <pt x="735" y="1261" on="0"/>
        <pt x="650" y="1261" on="1"/>
        <pt x="584" y="1261" on="0"/>
        <pt x="455" y="1219" on="0"/>
        <pt x="410" y="1176" on="1"/>
        <pt x="371" y="1138" on="0"/>
        <pt x="319" y="993" on="0"/>
        <pt x="294" y="831" on="0"/>
        <pt x="294" y="765" on="1"/>
        <pt x="294" y="615" on="0"/>
        <pt x="344" y="375" on="0"/>
        <pt x="413" y="289" on="1"/>
        <pt x="474" y="212" on="0"/>
        <pt x="658" y="123" on="0"/>
      </contour>
    </TTGlyph>
    <TTGlyph name="Odieresis" xMin="89" yMin="-35" xMax="1315" yMax="1713">
      <contour>
        <pt x="796" y="1594" on="1"/>
        <pt x="796" y="1629" on="0"/>
        <pt x="812" y="1694" on="0"/>
        <pt x="826" y="1703" on="1"/>
        <pt x="837" y="1713" on="0"/>
        <pt x="873" y="1713" on="1"/>
        <pt x="907" y="1713" on="0"/>
        <pt x="975" y="1696" on="0"/>
        <pt x="985" y="1682" on="1"/>
        <pt x="994" y="1670" on="0"/>
        <pt x="994" y="1633" on="1"/>
        <pt x="994" y="1599" on="0"/>
        <pt x="978" y="1532" on="0"/>
        <pt x="965" y="1521" on="1"/>
        <pt x="951" y="1513" on="0"/>
        <pt x="917" y="1513" on="1"/>
        <pt x="882" y="1513" on="0"/>
        <pt x="816" y="1529" on="0"/>
        <pt x="805" y="1542" on="1"/>
        <pt x="796" y="1556" on="0"/>
      </contour>
      <contour>
        <pt x="413" y="1593" on="1"/>
        <pt x="413" y="1627" on="0"/>
        <pt x="430" y="1693" on="0"/>
        <pt x="443" y="1703" on="1"/>
        <pt x="455" y="1712" on="0"/>
        <pt x="490" y="1712" on="1"/>
        <pt x="524" y="1712" on="0"/>
        <pt x="592" y="1695" on="0"/>
        <pt x="603" y="1682" on="1"/>
        <pt x="612" y="1669" on="0"/>
        <pt x="612" y="1633" on="1"/>
        <pt x="612" y="1598" on="0"/>
        <pt x="596" y="1532" on="0"/>
        <pt x="582" y="1521" on="1"/>
        <pt x="571" y="1513" on="0"/>
        <pt x="534" y="1513" on="1"/>
        <pt x="499" y="1513" on="0"/>
        <pt x="433" y="1529" on="0"/>
        <pt x="423" y="1542" on="1"/>
        <pt x="413" y="1553" on="0"/>
      </contour>
      <contour>
        <pt x="742" y="1419" on="1"/>
        <pt x="898" y="1419" on="0"/>
        <pt x="1160" y="1260" on="0"/>
        <pt x="1315" y="961" on="0"/>
        <pt x="1315" y="762" on="1"/>
        <pt x="1315" y="546" on="0"/>
        <pt x="1160" y="181" on="0"/>
        <pt x="868" y="-35" on="0"/>
        <pt x="671" y="-35" on="1"/>
        <pt x="507" y="-35" on="0"/>
        <pt x="242" y="124" on="0"/>
        <pt x="89" y="422" on="0"/>
        <pt x="89" y="623" on="1"/>
        <pt x="89" y="838" on="0"/>
        <pt x="240" y="1201" on="0"/>
        <pt x="535" y="1419" on="0"/>
      </contour>
      <contour>
        <pt x="759" y="123" on="1"/>
        <pt x="828" y="123" on="0"/>
        <pt x="955" y="166" on="0"/>
        <pt x="999" y="213" on="1"/>
        <pt x="1053" y="271" on="0"/>
        <pt x="1110" y="511" on="0"/>
        <pt x="1110" y="616" on="1"/>
        <pt x="1110" y="740" on="0"/>
        <pt x="1089" y="911" on="0"/>
        <pt x="1059" y="982" on="1"/>
        <pt x="1024" y="1065" on="0"/>
        <pt x="897" y="1191" on="0"/>
        <pt x="735" y="1261" on="0"/>
        <pt x="650" y="1261" on="1"/>
        <pt x="584" y="1261" on="0"/>
        <pt x="455" y="1219" on="0"/>
        <pt x="410" y="1176" on="1"/>
        <pt x="371" y="1138" on="0"/>
        <pt x="319" y="993" on="0"/>
        <pt x="294" y="831" on="0"/>
        <pt x="294" y="765" on="1"/>
        <pt x="294" y="615" on="0"/>
        <pt x="344" y="375" on="0"/>
        <pt x="413" y="289" on="1"/>
        <pt x="474" y="212" on="0"/>
        <pt x="658" y="123" on="0"/>
      </contour>
    </TTGlyph>
    <TTGlyph name="Ograve" xMin="89" yMin="-35" xMax="1315" yMax="1785">
      <contour>
        <pt x="503" y="1785" on="1"/>
        <pt x="564" y="1785" on="1"/>
        <pt x="932" y="1600" on="1"/>
        <pt x="913" y="1495" on="1"/>
        <pt x="476" y="1635" on="1"/>
      </contour>
      <contour>
        <pt x="742" y="1419" on="1"/>
        <pt x="898" y="1419" on="0"/>
        <pt x="1160" y="1260" on="0"/>
        <pt x="1315" y="961" on="0"/>
        <pt x="1315" y="762" on="1"/>
        <pt x="1315" y="546" on="0"/>
        <pt x="1160" y="181" on="0"/>
        <pt x="868" y="-35" on="0"/>
        <pt x="671" y="-35" on="1"/>
        <pt x="507" y="-35" on="0"/>
        <pt x="242" y="124" on="0"/>
        <pt x="89" y="422" on="0"/>
        <pt x="89" y="623" on="1"/>
        <pt x="89" y="838" on="0"/>
        <pt x="240" y="1201" on="0"/>
        <pt x="535" y="1419" on="0"/>
      </contour>
      <contour>
        <pt x="759" y="123" on="1"/>
        <pt x="828" y="123" on="0"/>
        <pt x="955" y="166" on="0"/>
        <pt x="999" y="213" on="1"/>
        <pt x="1053" y="271" on="0"/>
        <pt x="1110" y="511" on="0"/>
        <pt x="1110" y="616" on="1"/>
        <pt x="1110" y="740" on="0"/>
        <pt x="1089" y="911" on="0"/>
        <pt x="1059" y="982" on="1"/>
        <pt x="1024" y="1065" on="0"/>
        <pt x="897" y="1191" on="0"/>
        <pt x="735" y="1261" on="0"/>
        <pt x="650" y="1261" on="1"/>
        <pt x="584" y="1261" on="0"/>
        <pt x="455" y="1219" on="0"/>
        <pt x="410" y="1176" on="1"/>
        <pt x="371" y="1138" on="0"/>
        <pt x="319" y="993" on="0"/>
        <pt x="294" y="831" on="0"/>
        <pt x="294" y="765" on="1"/>
        <pt x="294" y="615" on="0"/>
        <pt x="344" y="375" on="0"/>
        <pt x="413" y="289" on="1"/>
        <pt x="474" y="212" on="0"/>
        <pt x="658" y="123" on="0"/>
      </contour>
    </TTGlyph>
    <TTGlyph name="Ohm" xMin="64" yMin="0" xMax="1501" yMax="1419">
      <contour>
        <pt x="305" y="159" on="1"/>
        <pt x="547" y="134" on="1"/>
        <pt x="449" y="226" on="0"/>
        <pt x="285" y="455" on="0"/>
        <pt x="183" y="714" on="0"/>
        <pt x="183" y="842" on="1"/>
        <pt x="183" y="1010" on="0"/>
        <pt x="331" y="1272" on="0"/>
        <pt x="604" y="1419" on="0"/>
        <pt x="785" y="1419" on="1"/>
        <pt x="967" y="1419" on="0"/>
        <pt x="1240" y="1272" on="0"/>
        <pt x="1387" y="1010" on="0"/>
        <pt x="1387" y="842" on="1"/>
        <pt x="1387" y="714" on="0"/>
        <pt x="1289" y="454" on="0"/>
        <pt x="1129" y="225" on="0"/>
        <pt x="1033" y="134" on="1"/>
        <pt x="1264" y="159" on="1"/>
        <pt x="1405" y="380" on="1"/>
        <pt x="1501" y="352" on="1"/>
        <pt x="1408" y="0" on="1"/>
        <pt x="956" y="0" on="1"/>
        <pt x="911" y="159" on="1"/>
        <pt x="985" y="254" on="0"/>
        <pt x="1103" y="486" on="0"/>
        <pt x="1169" y="713" on="0"/>
        <pt x="1169" y="801" on="1"/>
        <pt x="1169" y="1047" on="0"/>
        <pt x="954" y="1261" on="0"/>
        <pt x="784" y="1261" on="1"/>
        <pt x="615" y="1261" on="0"/>
        <pt x="401" y="1047" on="0"/>
        <pt x="401" y="801" on="1"/>
        <pt x="401" y="713" on="0"/>
        <pt x="466" y="488" on="0"/>
        <pt x="583" y="254" on="0"/>
        <pt x="660" y="154" on="1"/>
        <pt x="616" y="0" on="1"/>
        <pt x="171" y="0" on="1"/>
        <pt x="64" y="354" on="1"/>
        <pt x="162" y="374" on="1"/>
      </contour>
    </TTGlyph>
    <TTGlyph name="Ohungarumlaut" xMin="89" yMin="-35" xMax="1315" yMax="1800">
      <contour>
        <pt x="739" y="1800" on="1"/>
        <pt x="759" y="1698" on="1"/>
        <pt x="499" y="1460" on="1"/>
        <pt x="462" y="1605" on="1"/>
        <pt x="628" y="1800" on="1"/>
      </contour>
      <contour>
        <pt x="1036" y="1800" on="1"/>
        <pt x="1056" y="1698" on="1"/>
        <pt x="797" y="1460" on="1"/>
        <pt x="759" y="1605" on="1"/>
        <pt x="925" y="1800" on="1"/>
      </contour>
      <contour>
        <pt x="742" y="1419" on="1"/>
        <pt x="898" y="1419" on="0"/>
        <pt x="1160" y="1260" on="0"/>
        <pt x="1315" y="961" on="0"/>
        <pt x="1315" y="762" on="1"/>
        <pt x="1315" y="546" on="0"/>
        <pt x="1160" y="181" on="0"/>
        <pt x="868" y="-35" on="0"/>
        <pt x="671" y="-35" on="1"/>
        <pt x="507" y="-35" on="0"/>
        <pt x="242" y="124" on="0"/>
        <pt x="89" y="422" on="0"/>
        <pt x="89" y="623" on="1"/>
        <pt x="89" y="838" on="0"/>
        <pt x="240" y="1201" on="0"/>
        <pt x="535" y="1419" on="0"/>
      </contour>
      <contour>
        <pt x="759" y="123" on="1"/>
        <pt x="828" y="123" on="0"/>
        <pt x="955" y="166" on="0"/>
        <pt x="999" y="213" on="1"/>
        <pt x="1053" y="271" on="0"/>
        <pt x="1110" y="511" on="0"/>
        <pt x="1110" y="616" on="1"/>
        <pt x="1110" y="740" on="0"/>
        <pt x="1089" y="911" on="0"/>
        <pt x="1059" y="982" on="1"/>
        <pt x="1024" y="1065" on="0"/>
        <pt x="897" y="1191" on="0"/>
        <pt x="735" y="1261" on="0"/>
        <pt x="650" y="1261" on="1"/>
        <pt x="584" y="1261" on="0"/>
        <pt x="455" y="1219" on="0"/>
        <pt x="410" y="1176" on="1"/>
        <pt x="371" y="1138" on="0"/>
        <pt x="319" y="993" on="0"/>
        <pt x="294" y="831" on="0"/>
        <pt x="294" y="765" on="1"/>
        <pt x="294" y="615" on="0"/>
        <pt x="344" y="375" on="0"/>
        <pt x="413" y="289" on="1"/>
        <pt x="474" y="212" on="0"/>
        <pt x="658" y="123" on="0"/>
      </contour>
    </TTGlyph>
    <TTGlyph name="Omacron" xMin="89" yMin="-35" xMax="1315" yMax="1671">
      <contour>
        <pt x="974" y="1671" on="1"/>
        <pt x="951" y="1552" on="1"/>
        <pt x="846" y="1546" on="0"/>
        <pt x="544" y="1540" on="0"/>
        <pt x="431" y="1540" on="1"/>
        <pt x="459" y="1671" on="1"/>
      </contour>
      <contour>
        <pt x="742" y="1419" on="1"/>
        <pt x="898" y="1419" on="0"/>
        <pt x="1160" y="1260" on="0"/>
        <pt x="1315" y="961" on="0"/>
        <pt x="1315" y="762" on="1"/>
        <pt x="1315" y="546" on="0"/>
        <pt x="1160" y="181" on="0"/>
        <pt x="868" y="-35" on="0"/>
        <pt x="671" y="-35" on="1"/>
        <pt x="507" y="-35" on="0"/>
        <pt x="242" y="124" on="0"/>
        <pt x="89" y="422" on="0"/>
        <pt x="89" y="623" on="1"/>
        <pt x="89" y="838" on="0"/>
        <pt x="240" y="1201" on="0"/>
        <pt x="535" y="1419" on="0"/>
      </contour>
      <contour>
        <pt x="759" y="123" on="1"/>
        <pt x="828" y="123" on="0"/>
        <pt x="955" y="166" on="0"/>
        <pt x="999" y="213" on="1"/>
        <pt x="1053" y="271" on="0"/>
        <pt x="1110" y="511" on="0"/>
        <pt x="1110" y="616" on="1"/>
        <pt x="1110" y="740" on="0"/>
        <pt x="1089" y="911" on="0"/>
        <pt x="1059" y="982" on="1"/>
        <pt x="1024" y="1065" on="0"/>
        <pt x="897" y="1191" on="0"/>
        <pt x="735" y="1261" on="0"/>
        <pt x="650" y="1261" on="1"/>
        <pt x="584" y="1261" on="0"/>
        <pt x="455" y="1219" on="0"/>
        <pt x="410" y="1176" on="1"/>
        <pt x="371" y="1138" on="0"/>
        <pt x="319" y="993" on="0"/>
        <pt x="294" y="831" on="0"/>
        <pt x="294" y="765" on="1"/>
        <pt x="294" y="615" on="0"/>
        <pt x="344" y="375" on="0"/>
        <pt x="413" y="289" on="1"/>
        <pt x="474" y="212" on="0"/>
        <pt x="658" y="123" on="0"/>
      </contour>
    </TTGlyph>
    <TTGlyph name="Oslash" xMin="89" yMin="-152" xMax="1315" yMax="1509">
      <contour>
        <pt x="1315" y="762" on="1"/>
        <pt x="1315" y="546" on="0"/>
        <pt x="1160" y="181" on="0"/>
        <pt x="868" y="-35" on="0"/>
        <pt x="671" y="-35" on="1"/>
        <pt x="587" y="-35" on="0"/>
        <pt x="512" y="-14" on="1"/>
        <pt x="456" y="-152" on="1"/>
        <pt x="316" y="-100" on="1"/>
        <pt x="374" y="44" on="1"/>
        <pt x="241" y="124" on="0"/>
        <pt x="89" y="423" on="0"/>
        <pt x="89" y="623" on="1"/>
        <pt x="89" y="838" on="0"/>
        <pt x="240" y="1201" on="0"/>
        <pt x="535" y="1419" on="0"/>
        <pt x="742" y="1419" on="1"/>
        <pt x="834" y="1419" on="0"/>
        <pt x="917" y="1391" on="1"/>
        <pt x="964" y="1509" on="1"/>
        <pt x="1104" y="1456" on="1"/>
        <pt x="1051" y="1325" on="1"/>
        <pt x="1173" y="1242" on="0"/>
        <pt x="1315" y="952" on="0"/>
      </contour>
      <contour>
        <pt x="452" y="238" on="1"/>
        <pt x="848" y="1221" on="1"/>
        <pt x="758" y="1266" on="0"/>
        <pt x="660" y="1266" on="1"/>
        <pt x="595" y="1266" on="0"/>
        <pt x="455" y="1220" on="0"/>
        <pt x="410" y="1177" on="1"/>
        <pt x="371" y="1139" on="0"/>
        <pt x="319" y="994" on="0"/>
        <pt x="294" y="832" on="0"/>
        <pt x="294" y="766" on="1"/>
        <pt x="294" y="614" on="0"/>
        <pt x="339" y="375" on="0"/>
        <pt x="403" y="289" on="1"/>
        <pt x="431" y="256" on="0"/>
      </contour>
      <contour>
        <pt x="1110" y="617" on="1"/>
        <pt x="1110" y="748" on="0"/>
        <pt x="1092" y="920" on="0"/>
        <pt x="1063" y="990" on="1"/>
        <pt x="1030" y="1069" on="0"/>
        <pt x="972" y="1129" on="1"/>
        <pt x="580" y="155" on="1"/>
        <pt x="663" y="120" on="0"/>
        <pt x="749" y="120" on="1"/>
        <pt x="818" y="120" on="0"/>
        <pt x="955" y="166" on="0"/>
        <pt x="999" y="214" on="1"/>
        <pt x="1053" y="272" on="0"/>
        <pt x="1110" y="512" on="0"/>
      </contour>
    </TTGlyph>
    <TTGlyph name="Otilde" xMin="89" yMin="-35" xMax="1315" yMax="1790">
      <contour>
        <pt x="590" y="1790" on="1"/>
        <pt x="634" y="1790" on="0"/>
        <pt x="707" y="1748" on="0"/>
        <pt x="756" y="1709" on="1"/>
        <pt x="783" y="1687" on="0"/>
        <pt x="816" y="1665" on="0"/>
        <pt x="830" y="1665" on="1"/>
        <pt x="857" y="1665" on="0"/>
        <pt x="967" y="1726" on="0"/>
        <pt x="1017" y="1768" on="1"/>
        <pt x="1035" y="1657" on="1"/>
        <pt x="977" y="1593" on="0"/>
        <pt x="875" y="1521" on="0"/>
        <pt x="817" y="1521" on="1"/>
        <pt x="773" y="1521" on="0"/>
        <pt x="697" y="1564" on="0"/>
        <pt x="653" y="1601" on="1"/>
        <pt x="626" y="1623" on="0"/>
        <pt x="593" y="1645" on="0"/>
        <pt x="579" y="1645" on="1"/>
        <pt x="549" y="1645" on="0"/>
        <pt x="435" y="1585" on="0"/>
        <pt x="393" y="1543" on="1"/>
        <pt x="372" y="1653" on="1"/>
        <pt x="415" y="1698" on="0"/>
        <pt x="477" y="1753" on="0"/>
        <pt x="550" y="1790" on="0"/>
      </contour>
      <contour>
        <pt x="742" y="1419" on="1"/>
        <pt x="898" y="1419" on="0"/>
        <pt x="1160" y="1260" on="0"/>
        <pt x="1315" y="961" on="0"/>
        <pt x="1315" y="762" on="1"/>
        <pt x="1315" y="546" on="0"/>
        <pt x="1160" y="181" on="0"/>
        <pt x="868" y="-35" on="0"/>
        <pt x="671" y="-35" on="1"/>
        <pt x="507" y="-35" on="0"/>
        <pt x="242" y="124" on="0"/>
        <pt x="89" y="422" on="0"/>
        <pt x="89" y="623" on="1"/>
        <pt x="89" y="838" on="0"/>
        <pt x="240" y="1201" on="0"/>
        <pt x="535" y="1419" on="0"/>
      </contour>
      <contour>
        <pt x="759" y="123" on="1"/>
        <pt x="828" y="123" on="0"/>
        <pt x="955" y="166" on="0"/>
        <pt x="999" y="213" on="1"/>
        <pt x="1053" y="271" on="0"/>
        <pt x="1110" y="511" on="0"/>
        <pt x="1110" y="616" on="1"/>
        <pt x="1110" y="740" on="0"/>
        <pt x="1089" y="911" on="0"/>
        <pt x="1059" y="982" on="1"/>
        <pt x="1024" y="1065" on="0"/>
        <pt x="897" y="1191" on="0"/>
        <pt x="735" y="1261" on="0"/>
        <pt x="650" y="1261" on="1"/>
        <pt x="584" y="1261" on="0"/>
        <pt x="455" y="1219" on="0"/>
        <pt x="410" y="1176" on="1"/>
        <pt x="371" y="1138" on="0"/>
        <pt x="319" y="993" on="0"/>
        <pt x="294" y="831" on="0"/>
        <pt x="294" y="765" on="1"/>
        <pt x="294" y="615" on="0"/>
        <pt x="344" y="375" on="0"/>
        <pt x="413" y="289" on="1"/>
        <pt x="474" y="212" on="0"/>
        <pt x="658" y="123" on="0"/>
      </contour>
    </TTGlyph>
    <TTGlyph name="P" xMin="66" yMin="0" xMax="1096" yMax="1384">
      <contour>
        <pt x="262" y="1246" on="1"/>
        <pt x="74" y="1302" on="1"/>
        <pt x="91" y="1384" on="1"/>
        <pt x="471" y="1384" on="1"/>
        <pt x="580" y="1384" on="0"/>
        <pt x="739" y="1373" on="0"/>
        <pt x="901" y="1327" on="0"/>
        <pt x="963" y="1280" on="1"/>
        <pt x="1025" y="1232" on="0"/>
        <pt x="1096" y="1079" on="0"/>
        <pt x="1096" y="975" on="1"/>
        <pt x="1096" y="881" on="0"/>
        <pt x="1018" y="730" on="0"/>
        <pt x="949" y="678" on="1"/>
        <pt x="878" y="624" on="0"/>
        <pt x="676" y="573" on="0"/>
        <pt x="579" y="573" on="1"/>
        <pt x="591" y="639" on="1"/>
        <pt x="711" y="690" on="0"/>
        <pt x="831" y="769" on="0"/>
        <pt x="888" y="885" on="0"/>
        <pt x="888" y="982" on="1"/>
        <pt x="888" y="1152" on="0"/>
        <pt x="648" y="1300" on="0"/>
        <pt x="454" y="1303" on="1"/>
        <pt x="454" y="138" on="1"/>
        <pt x="688" y="83" on="1"/>
        <pt x="671" y="0" on="1"/>
        <pt x="66" y="0" on="1"/>
        <pt x="84" y="85" on="1"/>
        <pt x="262" y="139" on="1"/>
      </contour>
    </TTGlyph>
    <TTGlyph name="Q" xMin="89" yMin="-322" xMax="1318" yMax="1419">
      <contour>
        <pt x="797" y="-22" on="1"/>
        <pt x="739" y="-35" on="0"/>
        <pt x="671" y="-35" on="1"/>
        <pt x="507" y="-35" on="0"/>
        <pt x="242" y="124" on="0"/>
        <pt x="89" y="422" on="0"/>
        <pt x="89" y="623" on="1"/>
        <pt x="89" y="838" on="0"/>
        <pt x="240" y="1201" on="0"/>
        <pt x="535" y="1419" on="0"/>
        <pt x="742" y="1419" on="1"/>
        <pt x="898" y="1419" on="0"/>
        <pt x="1160" y="1260" on="0"/>
        <pt x="1315" y="961" on="0"/>
        <pt x="1315" y="762" on="1"/>
        <pt x="1315" y="543" on="0"/>
        <pt x="1156" y="175" on="0"/>
        <pt x="1011" y="71" on="1"/>
        <pt x="1318" y="-256" on="1"/>
        <pt x="1280" y="-322" on="1"/>
        <pt x="1218" y="-322" on="0"/>
        <pt x="926" y="-134" on="0"/>
      </contour>
      <contour>
        <pt x="759" y="123" on="1"/>
        <pt x="828" y="123" on="0"/>
        <pt x="955" y="166" on="0"/>
        <pt x="999" y="213" on="1"/>
        <pt x="1053" y="271" on="0"/>
        <pt x="1110" y="511" on="0"/>
        <pt x="1110" y="616" on="1"/>
        <pt x="1110" y="740" on="0"/>
        <pt x="1089" y="911" on="0"/>
        <pt x="1059" y="982" on="1"/>
        <pt x="1024" y="1065" on="0"/>
        <pt x="897" y="1191" on="0"/>
        <pt x="735" y="1261" on="0"/>
        <pt x="650" y="1261" on="1"/>
        <pt x="584" y="1261" on="0"/>
        <pt x="455" y="1219" on="0"/>
        <pt x="410" y="1176" on="1"/>
        <pt x="371" y="1138" on="0"/>
        <pt x="319" y="993" on="0"/>
        <pt x="294" y="831" on="0"/>
        <pt x="294" y="765" on="1"/>
        <pt x="294" y="615" on="0"/>
        <pt x="344" y="375" on="0"/>
        <pt x="413" y="289" on="1"/>
        <pt x="474" y="212" on="0"/>
        <pt x="658" y="123" on="0"/>
      </contour>
    </TTGlyph>
    <TTGlyph name="R" xMin="68" yMin="0" xMax="1301" yMax="1384">
      <contour>
        <pt x="262" y="1246" on="1"/>
        <pt x="75" y="1302" on="1"/>
        <pt x="92" y="1384" on="1"/>
        <pt x="461" y="1384" on="1"/>
        <pt x="571" y="1384" on="0"/>
        <pt x="729" y="1373" on="0"/>
        <pt x="890" y="1331" on="0"/>
        <pt x="958" y="1286" on="1"/>
        <pt x="1023" y="1243" on="0"/>
        <pt x="1099" y="1101" on="0"/>
        <pt x="1099" y="1021" on="1"/>
        <pt x="1099" y="756" on="0"/>
        <pt x="796" y="670" on="1"/>
        <pt x="1106" y="148" on="1"/>
        <pt x="1301" y="81" on="1"/>
        <pt x="1282" y="0" on="1"/>
        <pt x="906" y="0" on="1"/>
        <pt x="921" y="77" on="1"/>
        <pt x="588" y="685" on="1"/>
        <pt x="720" y="734" on="0"/>
        <pt x="853" y="840" on="0"/>
        <pt x="894" y="948" on="0"/>
        <pt x="894" y="1022" on="1"/>
        <pt x="894" y="1117" on="0"/>
        <pt x="764" y="1240" on="0"/>
        <pt x="565" y="1299" on="0"/>
        <pt x="454" y="1304" on="1"/>
        <pt x="454" y="151" on="1"/>
        <pt x="660" y="96" on="1"/>
        <pt x="639" y="0" on="1"/>
        <pt x="68" y="0" on="1"/>
        <pt x="82" y="84" on="1"/>
        <pt x="262" y="139" on="1"/>
      </contour>
    </TTGlyph>
    <TTGlyph name="Racute" xMin="68" yMin="0" xMax="1301" yMax="1785">
      <contour>
        <pt x="786" y="1785" on="1"/>
        <pt x="847" y="1785" on="1"/>
        <pt x="874" y="1635" on="1"/>
        <pt x="436" y="1494" on="1"/>
        <pt x="418" y="1599" on="1"/>
      </contour>
      <contour>
        <pt x="262" y="1246" on="1"/>
        <pt x="75" y="1302" on="1"/>
        <pt x="92" y="1384" on="1"/>
        <pt x="461" y="1384" on="1"/>
        <pt x="571" y="1384" on="0"/>
        <pt x="729" y="1373" on="0"/>
        <pt x="890" y="1331" on="0"/>
        <pt x="958" y="1286" on="1"/>
        <pt x="1023" y="1243" on="0"/>
        <pt x="1099" y="1101" on="0"/>
        <pt x="1099" y="1021" on="1"/>
        <pt x="1099" y="756" on="0"/>
        <pt x="796" y="670" on="1"/>
        <pt x="1106" y="148" on="1"/>
        <pt x="1301" y="81" on="1"/>
        <pt x="1282" y="0" on="1"/>
        <pt x="906" y="0" on="1"/>
        <pt x="921" y="77" on="1"/>
        <pt x="588" y="685" on="1"/>
        <pt x="720" y="734" on="0"/>
        <pt x="853" y="840" on="0"/>
        <pt x="894" y="948" on="0"/>
        <pt x="894" y="1022" on="1"/>
        <pt x="894" y="1117" on="0"/>
        <pt x="764" y="1240" on="0"/>
        <pt x="565" y="1299" on="0"/>
        <pt x="454" y="1304" on="1"/>
        <pt x="454" y="151" on="1"/>
        <pt x="660" y="96" on="1"/>
        <pt x="639" y="0" on="1"/>
        <pt x="68" y="0" on="1"/>
        <pt x="82" y="84" on="1"/>
        <pt x="262" y="139" on="1"/>
      </contour>
    </TTGlyph>
    <TTGlyph name="Rcaron" xMin="68" yMin="0" xMax="1301" yMax="1794">
      <contour>
        <pt x="353" y="1794" on="1"/>
        <pt x="596" y="1665" on="1"/>
        <pt x="839" y="1794" on="1"/>
        <pt x="901" y="1730" on="1"/>
        <pt x="644" y="1515" on="1"/>
        <pt x="548" y="1515" on="1"/>
        <pt x="291" y="1730" on="1"/>
      </contour>
      <contour>
        <pt x="262" y="1246" on="1"/>
        <pt x="75" y="1302" on="1"/>
        <pt x="92" y="1384" on="1"/>
        <pt x="461" y="1384" on="1"/>
        <pt x="571" y="1384" on="0"/>
        <pt x="729" y="1373" on="0"/>
        <pt x="890" y="1331" on="0"/>
        <pt x="958" y="1286" on="1"/>
        <pt x="1023" y="1243" on="0"/>
        <pt x="1099" y="1101" on="0"/>
        <pt x="1099" y="1021" on="1"/>
        <pt x="1099" y="756" on="0"/>
        <pt x="796" y="670" on="1"/>
        <pt x="1106" y="148" on="1"/>
        <pt x="1301" y="81" on="1"/>
        <pt x="1282" y="0" on="1"/>
        <pt x="906" y="0" on="1"/>
        <pt x="921" y="77" on="1"/>
        <pt x="588" y="685" on="1"/>
        <pt x="720" y="734" on="0"/>
        <pt x="853" y="840" on="0"/>
        <pt x="894" y="948" on="0"/>
        <pt x="894" y="1022" on="1"/>
        <pt x="894" y="1117" on="0"/>
        <pt x="764" y="1240" on="0"/>
        <pt x="565" y="1299" on="0"/>
        <pt x="454" y="1304" on="1"/>
        <pt x="454" y="151" on="1"/>
        <pt x="660" y="96" on="1"/>
        <pt x="639" y="0" on="1"/>
        <pt x="68" y="0" on="1"/>
        <pt x="82" y="84" on="1"/>
        <pt x="262" y="139" on="1"/>
      </contour>
    </TTGlyph>
    <TTGlyph name="Rcommaaccent" xMin="68" yMin="-472" xMax="1301" yMax="1384">
      <contour>
        <pt x="262" y="1246" on="1"/>
        <pt x="75" y="1302" on="1"/>
        <pt x="92" y="1384" on="1"/>
        <pt x="461" y="1384" on="1"/>
        <pt x="571" y="1384" on="0"/>
        <pt x="729" y="1373" on="0"/>
        <pt x="890" y="1331" on="0"/>
        <pt x="958" y="1286" on="1"/>
        <pt x="1023" y="1243" on="0"/>
        <pt x="1099" y="1101" on="0"/>
        <pt x="1099" y="1021" on="1"/>
        <pt x="1099" y="756" on="0"/>
        <pt x="796" y="670" on="1"/>
        <pt x="1106" y="148" on="1"/>
        <pt x="1301" y="81" on="1"/>
        <pt x="1282" y="0" on="1"/>
        <pt x="906" y="0" on="1"/>
        <pt x="921" y="77" on="1"/>
        <pt x="588" y="685" on="1"/>
        <pt x="720" y="734" on="0"/>
        <pt x="853" y="840" on="0"/>
        <pt x="894" y="948" on="0"/>
        <pt x="894" y="1022" on="1"/>
        <pt x="894" y="1117" on="0"/>
        <pt x="764" y="1240" on="0"/>
        <pt x="565" y="1299" on="0"/>
        <pt x="454" y="1304" on="1"/>
        <pt x="454" y="151" on="1"/>
        <pt x="660" y="96" on="1"/>
        <pt x="639" y="0" on="1"/>
        <pt x="68" y="0" on="1"/>
        <pt x="82" y="84" on="1"/>
        <pt x="262" y="139" on="1"/>
      </contour>
      <contour>
        <pt x="724" y="-152" on="1"/>
        <pt x="747" y="-174" on="0"/>
        <pt x="773" y="-230" on="0"/>
        <pt x="773" y="-261" on="1"/>
        <pt x="773" y="-325" on="0"/>
        <pt x="693" y="-421" on="0"/>
        <pt x="587" y="-472" on="0"/>
        <pt x="552" y="-472" on="1"/>
        <pt x="537" y="-427" on="1"/>
        <pt x="600" y="-381" on="0"/>
        <pt x="655" y="-319" on="0"/>
        <pt x="655" y="-289" on="1"/>
        <pt x="655" y="-263" on="0"/>
        <pt x="610" y="-223" on="0"/>
        <pt x="551" y="-206" on="1"/>
        <pt x="579" y="-95" on="1"/>
        <pt x="621" y="-96" on="0"/>
        <pt x="696" y="-125" on="0"/>
      </contour>
    </TTGlyph>
    <TTGlyph name="S" xMin="65" yMin="-35" xMax="967" yMax="1419">
      <contour>
        <pt x="671" y="1295" on="1"/>
        <pt x="586" y="1295" on="0"/>
        <pt x="440" y="1263" on="0"/>
        <pt x="344" y="1214" on="0"/>
        <pt x="330" y="1188" on="1"/>
        <pt x="319" y="1169" on="0"/>
        <pt x="308" y="1104" on="0"/>
        <pt x="308" y="1073" on="1"/>
        <pt x="308" y="996" on="0"/>
        <pt x="377" y="903" on="0"/>
        <pt x="496" y="844" on="0"/>
        <pt x="620" y="797" on="1"/>
        <pt x="731" y="755" on="0"/>
        <pt x="876" y="667" on="0"/>
        <pt x="967" y="522" on="0"/>
        <pt x="967" y="413" on="1"/>
        <pt x="967" y="280" on="0"/>
        <pt x="839" y="76" on="0"/>
        <pt x="611" y="-35" on="0"/>
        <pt x="465" y="-35" on="1"/>
        <pt x="347" y="-35" on="0"/>
        <pt x="135" y="33" on="0"/>
        <pt x="65" y="82" on="1"/>
        <pt x="140" y="405" on="1"/>
        <pt x="245" y="377" on="1"/>
        <pt x="266" y="111" on="1"/>
        <pt x="305" y="108" on="0"/>
        <pt x="351" y="108" on="1"/>
        <pt x="472" y="108" on="0"/>
        <pt x="693" y="159" on="0"/>
        <pt x="728" y="209" on="1"/>
        <pt x="743" y="231" on="0"/>
        <pt x="761" y="311" on="0"/>
        <pt x="761" y="354" on="1"/>
        <pt x="761" y="437" on="0"/>
        <pt x="689" y="540" on="0"/>
        <pt x="580" y="599" on="0"/>
        <pt x="479" y="638" on="1"/>
        <pt x="368" y="680" on="0"/>
        <pt x="218" y="772" on="0"/>
        <pt x="122" y="925" on="0"/>
        <pt x="122" y="1041" on="1"/>
        <pt x="122" y="1153" on="0"/>
        <pt x="252" y="1325" on="0"/>
        <pt x="470" y="1419" on="0"/>
        <pt x="598" y="1419" on="1"/>
        <pt x="649" y="1419" on="0"/>
        <pt x="762" y="1399" on="0"/>
        <pt x="795" y="1390" on="1"/>
        <pt x="900" y="1394" on="1"/>
        <pt x="935" y="1045" on="1"/>
        <pt x="842" y="1020" on="1"/>
        <pt x="718" y="1294" on="1"/>
        <pt x="703" y="1295" on="0"/>
      </contour>
    </TTGlyph>
    <TTGlyph name="Sacute" xMin="65" yMin="-35" xMax="967" yMax="1785">
      <contour>
        <pt x="719" y="1785" on="1"/>
        <pt x="780" y="1785" on="1"/>
        <pt x="807" y="1635" on="1"/>
        <pt x="369" y="1494" on="1"/>
        <pt x="351" y="1599" on="1"/>
      </contour>
      <contour>
        <pt x="671" y="1295" on="1"/>
        <pt x="586" y="1295" on="0"/>
        <pt x="440" y="1263" on="0"/>
        <pt x="344" y="1214" on="0"/>
        <pt x="330" y="1188" on="1"/>
        <pt x="319" y="1169" on="0"/>
        <pt x="308" y="1104" on="0"/>
        <pt x="308" y="1073" on="1"/>
        <pt x="308" y="996" on="0"/>
        <pt x="377" y="903" on="0"/>
        <pt x="496" y="844" on="0"/>
        <pt x="620" y="797" on="1"/>
        <pt x="731" y="755" on="0"/>
        <pt x="876" y="667" on="0"/>
        <pt x="967" y="522" on="0"/>
        <pt x="967" y="413" on="1"/>
        <pt x="967" y="280" on="0"/>
        <pt x="839" y="76" on="0"/>
        <pt x="611" y="-35" on="0"/>
        <pt x="465" y="-35" on="1"/>
        <pt x="347" y="-35" on="0"/>
        <pt x="135" y="33" on="0"/>
        <pt x="65" y="82" on="1"/>
        <pt x="140" y="405" on="1"/>
        <pt x="245" y="377" on="1"/>
        <pt x="266" y="111" on="1"/>
        <pt x="305" y="108" on="0"/>
        <pt x="351" y="108" on="1"/>
        <pt x="472" y="108" on="0"/>
        <pt x="693" y="159" on="0"/>
        <pt x="728" y="209" on="1"/>
        <pt x="743" y="231" on="0"/>
        <pt x="761" y="311" on="0"/>
        <pt x="761" y="354" on="1"/>
        <pt x="761" y="437" on="0"/>
        <pt x="689" y="540" on="0"/>
        <pt x="580" y="599" on="0"/>
        <pt x="479" y="638" on="1"/>
        <pt x="368" y="680" on="0"/>
        <pt x="218" y="772" on="0"/>
        <pt x="122" y="925" on="0"/>
        <pt x="122" y="1041" on="1"/>
        <pt x="122" y="1153" on="0"/>
        <pt x="252" y="1325" on="0"/>
        <pt x="470" y="1419" on="0"/>
        <pt x="598" y="1419" on="1"/>
        <pt x="649" y="1419" on="0"/>
        <pt x="762" y="1399" on="0"/>
        <pt x="795" y="1390" on="1"/>
        <pt x="900" y="1394" on="1"/>
        <pt x="935" y="1045" on="1"/>
        <pt x="842" y="1020" on="1"/>
        <pt x="718" y="1294" on="1"/>
        <pt x="703" y="1295" on="0"/>
      </contour>
    </TTGlyph>
    <TTGlyph name="Scaron" xMin="65" yMin="-35" xMax="967" yMax="1794">
      <contour>
        <pt x="286" y="1794" on="1"/>
        <pt x="529" y="1665" on="1"/>
        <pt x="772" y="1794" on="1"/>
        <pt x="834" y="1730" on="1"/>
        <pt x="577" y="1515" on="1"/>
        <pt x="481" y="1515" on="1"/>
        <pt x="224" y="1730" on="1"/>
      </contour>
      <contour>
        <pt x="671" y="1295" on="1"/>
        <pt x="586" y="1295" on="0"/>
        <pt x="440" y="1263" on="0"/>
        <pt x="344" y="1214" on="0"/>
        <pt x="330" y="1188" on="1"/>
        <pt x="319" y="1169" on="0"/>
        <pt x="308" y="1104" on="0"/>
        <pt x="308" y="1073" on="1"/>
        <pt x="308" y="996" on="0"/>
        <pt x="377" y="903" on="0"/>
        <pt x="496" y="844" on="0"/>
        <pt x="620" y="797" on="1"/>
        <pt x="731" y="755" on="0"/>
        <pt x="876" y="667" on="0"/>
        <pt x="967" y="522" on="0"/>
        <pt x="967" y="413" on="1"/>
        <pt x="967" y="280" on="0"/>
        <pt x="839" y="76" on="0"/>
        <pt x="611" y="-35" on="0"/>
        <pt x="465" y="-35" on="1"/>
        <pt x="347" y="-35" on="0"/>
        <pt x="135" y="33" on="0"/>
        <pt x="65" y="82" on="1"/>
        <pt x="140" y="405" on="1"/>
        <pt x="245" y="377" on="1"/>
        <pt x="266" y="111" on="1"/>
        <pt x="305" y="108" on="0"/>
        <pt x="351" y="108" on="1"/>
        <pt x="472" y="108" on="0"/>
        <pt x="693" y="159" on="0"/>
        <pt x="728" y="209" on="1"/>
        <pt x="743" y="231" on="0"/>
        <pt x="761" y="311" on="0"/>
        <pt x="761" y="354" on="1"/>
        <pt x="761" y="437" on="0"/>
        <pt x="689" y="540" on="0"/>
        <pt x="580" y="599" on="0"/>
        <pt x="479" y="638" on="1"/>
        <pt x="368" y="680" on="0"/>
        <pt x="218" y="772" on="0"/>
        <pt x="122" y="925" on="0"/>
        <pt x="122" y="1041" on="1"/>
        <pt x="122" y="1153" on="0"/>
        <pt x="252" y="1325" on="0"/>
        <pt x="470" y="1419" on="0"/>
        <pt x="598" y="1419" on="1"/>
        <pt x="649" y="1419" on="0"/>
        <pt x="762" y="1399" on="0"/>
        <pt x="795" y="1390" on="1"/>
        <pt x="900" y="1394" on="1"/>
        <pt x="935" y="1045" on="1"/>
        <pt x="842" y="1020" on="1"/>
        <pt x="718" y="1294" on="1"/>
        <pt x="703" y="1295" on="0"/>
      </contour>
    </TTGlyph>
    <TTGlyph name="Scedilla" xMin="65" yMin="-500" xMax="967" yMax="1419">
      <contour>
        <pt x="562" y="-28" on="1"/>
        <pt x="523" y="-114" on="1"/>
        <pt x="611" y="-128" on="0"/>
        <pt x="730" y="-212" on="0"/>
        <pt x="730" y="-279" on="1"/>
        <pt x="730" y="-356" on="0"/>
        <pt x="613" y="-455" on="0"/>
        <pt x="433" y="-500" on="0"/>
        <pt x="338" y="-500" on="1"/>
        <pt x="324" y="-447" on="1"/>
        <pt x="428" y="-403" on="0"/>
        <pt x="538" y="-344" on="0"/>
        <pt x="576" y="-308" on="0"/>
        <pt x="576" y="-293" on="1"/>
        <pt x="576" y="-264" on="0"/>
        <pt x="465" y="-206" on="0"/>
        <pt x="366" y="-176" on="1"/>
        <pt x="397" y="-111" on="0"/>
        <pt x="459" y="-35" on="1"/>
        <pt x="343" y="-34" on="0"/>
        <pt x="134" y="34" on="0"/>
        <pt x="65" y="82" on="1"/>
        <pt x="140" y="405" on="1"/>
        <pt x="245" y="377" on="1"/>
        <pt x="266" y="111" on="1"/>
        <pt x="305" y="108" on="0"/>
        <pt x="351" y="108" on="1"/>
        <pt x="472" y="108" on="0"/>
        <pt x="693" y="159" on="0"/>
        <pt x="728" y="209" on="1"/>
        <pt x="743" y="231" on="0"/>
        <pt x="761" y="311" on="0"/>
        <pt x="761" y="354" on="1"/>
        <pt x="761" y="437" on="0"/>
        <pt x="689" y="540" on="0"/>
        <pt x="580" y="599" on="0"/>
        <pt x="479" y="638" on="1"/>
        <pt x="368" y="680" on="0"/>
        <pt x="218" y="772" on="0"/>
        <pt x="122" y="925" on="0"/>
        <pt x="122" y="1041" on="1"/>
        <pt x="122" y="1153" on="0"/>
        <pt x="252" y="1325" on="0"/>
        <pt x="470" y="1419" on="0"/>
        <pt x="598" y="1419" on="1"/>
        <pt x="649" y="1419" on="0"/>
        <pt x="762" y="1399" on="0"/>
        <pt x="795" y="1390" on="1"/>
        <pt x="900" y="1394" on="1"/>
        <pt x="935" y="1045" on="1"/>
        <pt x="842" y="1020" on="1"/>
        <pt x="718" y="1294" on="1"/>
        <pt x="703" y="1295" on="0"/>
        <pt x="671" y="1295" on="1"/>
        <pt x="586" y="1295" on="0"/>
        <pt x="440" y="1263" on="0"/>
        <pt x="344" y="1214" on="0"/>
        <pt x="330" y="1188" on="1"/>
        <pt x="319" y="1169" on="0"/>
        <pt x="308" y="1104" on="0"/>
        <pt x="308" y="1073" on="1"/>
        <pt x="308" y="996" on="0"/>
        <pt x="377" y="903" on="0"/>
        <pt x="496" y="844" on="0"/>
        <pt x="620" y="797" on="1"/>
        <pt x="731" y="755" on="0"/>
        <pt x="876" y="667" on="0"/>
        <pt x="967" y="522" on="0"/>
        <pt x="967" y="413" on="1"/>
        <pt x="967" y="295" on="0"/>
        <pt x="866" y="108" on="0"/>
        <pt x="682" y="-11" on="0"/>
      </contour>
    </TTGlyph>
    <TTGlyph name="Scommaaccent" xMin="65" yMin="-472" xMax="967" yMax="1419">
      <contour>
        <pt x="671" y="1295" on="1"/>
        <pt x="586" y="1295" on="0"/>
        <pt x="440" y="1263" on="0"/>
        <pt x="344" y="1214" on="0"/>
        <pt x="330" y="1188" on="1"/>
        <pt x="319" y="1169" on="0"/>
        <pt x="308" y="1104" on="0"/>
        <pt x="308" y="1073" on="1"/>
        <pt x="308" y="996" on="0"/>
        <pt x="377" y="903" on="0"/>
        <pt x="496" y="844" on="0"/>
        <pt x="620" y="797" on="1"/>
        <pt x="731" y="755" on="0"/>
        <pt x="876" y="667" on="0"/>
        <pt x="967" y="522" on="0"/>
        <pt x="967" y="413" on="1"/>
        <pt x="967" y="280" on="0"/>
        <pt x="839" y="76" on="0"/>
        <pt x="611" y="-35" on="0"/>
        <pt x="465" y="-35" on="1"/>
        <pt x="347" y="-35" on="0"/>
        <pt x="135" y="33" on="0"/>
        <pt x="65" y="82" on="1"/>
        <pt x="140" y="405" on="1"/>
        <pt x="245" y="377" on="1"/>
        <pt x="266" y="111" on="1"/>
        <pt x="305" y="108" on="0"/>
        <pt x="351" y="108" on="1"/>
        <pt x="472" y="108" on="0"/>
        <pt x="693" y="159" on="0"/>
        <pt x="728" y="209" on="1"/>
        <pt x="743" y="231" on="0"/>
        <pt x="761" y="311" on="0"/>
        <pt x="761" y="354" on="1"/>
        <pt x="761" y="437" on="0"/>
        <pt x="689" y="540" on="0"/>
        <pt x="580" y="599" on="0"/>
        <pt x="479" y="638" on="1"/>
        <pt x="368" y="680" on="0"/>
        <pt x="218" y="772" on="0"/>
        <pt x="122" y="925" on="0"/>
        <pt x="122" y="1041" on="1"/>
        <pt x="122" y="1153" on="0"/>
        <pt x="252" y="1325" on="0"/>
        <pt x="470" y="1419" on="0"/>
        <pt x="598" y="1419" on="1"/>
        <pt x="649" y="1419" on="0"/>
        <pt x="762" y="1399" on="0"/>
        <pt x="795" y="1390" on="1"/>
        <pt x="900" y="1394" on="1"/>
        <pt x="935" y="1045" on="1"/>
        <pt x="842" y="1020" on="1"/>
        <pt x="718" y="1294" on="1"/>
        <pt x="703" y="1295" on="0"/>
      </contour>
      <contour>
        <pt x="597" y="-152" on="1"/>
        <pt x="620" y="-174" on="0"/>
        <pt x="646" y="-230" on="0"/>
        <pt x="646" y="-261" on="1"/>
        <pt x="646" y="-325" on="0"/>
        <pt x="566" y="-421" on="0"/>
        <pt x="460" y="-472" on="0"/>
        <pt x="425" y="-472" on="1"/>
        <pt x="410" y="-427" on="1"/>
        <pt x="473" y="-381" on="0"/>
        <pt x="528" y="-319" on="0"/>
        <pt x="528" y="-289" on="1"/>
        <pt x="528" y="-263" on="0"/>
        <pt x="483" y="-223" on="0"/>
        <pt x="424" y="-206" on="1"/>
        <pt x="452" y="-95" on="1"/>
        <pt x="494" y="-96" on="0"/>
        <pt x="569" y="-125" on="0"/>
      </contour>
    </TTGlyph>
    <TTGlyph name="T" xMin="14" yMin="0" xMax="1324" yMax="1396">
      <contour>
        <pt x="577" y="1287" on="1"/>
        <pt x="246" y="1252" on="1"/>
        <pt x="106" y="1002" on="1"/>
        <pt x="14" y="1023" on="1"/>
        <pt x="96" y="1393" on="1"/>
        <pt x="227" y="1384" on="1"/>
        <pt x="1158" y="1384" on="1"/>
        <pt x="1284" y="1396" on="1"/>
        <pt x="1324" y="1020" on="1"/>
        <pt x="1235" y="993" on="1"/>
        <pt x="1114" y="1251" on="1"/>
        <pt x="769" y="1289" on="1"/>
        <pt x="769" y="143" on="1"/>
        <pt x="988" y="90" on="1"/>
        <pt x="970" y="0" on="1"/>
        <pt x="368" y="0" on="1"/>
        <pt x="386" y="90" on="1"/>
        <pt x="577" y="144" on="1"/>
      </contour>
    </TTGlyph>
    <TTGlyph name="Tcaron" xMin="14" yMin="0" xMax="1324" yMax="1794">
      <contour>
        <pt x="434" y="1794" on="1"/>
        <pt x="677" y="1665" on="1"/>
        <pt x="920" y="1794" on="1"/>
        <pt x="982" y="1730" on="1"/>
        <pt x="725" y="1515" on="1"/>
        <pt x="629" y="1515" on="1"/>
        <pt x="372" y="1730" on="1"/>
      </contour>
      <contour>
        <pt x="577" y="1287" on="1"/>
        <pt x="246" y="1252" on="1"/>
        <pt x="106" y="1002" on="1"/>
        <pt x="14" y="1023" on="1"/>
        <pt x="96" y="1393" on="1"/>
        <pt x="227" y="1384" on="1"/>
        <pt x="1158" y="1384" on="1"/>
        <pt x="1284" y="1396" on="1"/>
        <pt x="1324" y="1020" on="1"/>
        <pt x="1235" y="993" on="1"/>
        <pt x="1114" y="1251" on="1"/>
        <pt x="769" y="1289" on="1"/>
        <pt x="769" y="143" on="1"/>
        <pt x="988" y="90" on="1"/>
        <pt x="970" y="0" on="1"/>
        <pt x="368" y="0" on="1"/>
        <pt x="386" y="90" on="1"/>
        <pt x="577" y="144" on="1"/>
      </contour>
    </TTGlyph>
    <TTGlyph name="Thorn" xMin="67" yMin="0" xMax="1095" yMax="1384">
      <contour>
        <pt x="1095" y="735" on="1"/>
        <pt x="1095" y="641" on="0"/>
        <pt x="1018" y="489" on="0"/>
        <pt x="949" y="438" on="1"/>
        <pt x="874" y="383" on="0"/>
        <pt x="675" y="332" on="0"/>
        <pt x="577" y="332" on="1"/>
        <pt x="591" y="401" on="1"/>
        <pt x="709" y="448" on="0"/>
        <pt x="831" y="528" on="0"/>
        <pt x="888" y="645" on="0"/>
        <pt x="888" y="742" on="1"/>
        <pt x="888" y="1054" on="0"/>
        <pt x="454" y="1063" on="1"/>
        <pt x="454" y="140" on="1"/>
        <pt x="687" y="84" on="1"/>
        <pt x="667" y="0" on="1"/>
        <pt x="67" y="0" on="1"/>
        <pt x="84" y="87" on="1"/>
        <pt x="262" y="140" on="1"/>
        <pt x="262" y="1246" on="1"/>
        <pt x="74" y="1301" on="1"/>
        <pt x="91" y="1384" on="1"/>
        <pt x="651" y="1384" on="1"/>
        <pt x="635" y="1299" on="1"/>
        <pt x="454" y="1244" on="1"/>
        <pt x="454" y="1144" on="1"/>
        <pt x="644" y="1143" on="0"/>
        <pt x="904" y="1094" on="0"/>
        <pt x="985" y="1023" on="1"/>
        <pt x="1095" y="926" on="0"/>
      </contour>
    </TTGlyph>
    <TTGlyph name="U" xMin="47" yMin="-35" xMax="1418" yMax="1384">
      <contour>
        <pt x="809" y="103" on="1"/>
        <pt x="871" y="103" on="0"/>
        <pt x="972" y="143" on="0"/>
        <pt x="1009" y="180" on="1"/>
        <pt x="1057" y="228" on="0"/>
        <pt x="1107" y="380" on="0"/>
        <pt x="1107" y="477" on="1"/>
        <pt x="1107" y="1242" on="1"/>
        <pt x="910" y="1301" on="1"/>
        <pt x="926" y="1384" on="1"/>
        <pt x="1418" y="1384" on="1"/>
        <pt x="1402" y="1299" on="1"/>
        <pt x="1249" y="1242" on="1"/>
        <pt x="1249" y="472" on="1"/>
        <pt x="1249" y="322" on="0"/>
        <pt x="1130" y="93" on="0"/>
        <pt x="895" y="-35" on="0"/>
        <pt x="728" y="-35" on="1"/>
        <pt x="559" y="-35" on="0"/>
        <pt x="330" y="92" on="0"/>
        <pt x="218" y="318" on="0"/>
        <pt x="218" y="469" on="1"/>
        <pt x="218" y="1246" on="1"/>
        <pt x="47" y="1301" on="1"/>
        <pt x="63" y="1384" on="1"/>
        <pt x="623" y="1384" on="1"/>
        <pt x="601" y="1282" on="1"/>
        <pt x="410" y="1235" on="1"/>
        <pt x="410" y="536" on="1"/>
        <pt x="410" y="412" on="0"/>
        <pt x="513" y="215" on="0"/>
        <pt x="695" y="103" on="0"/>
      </contour>
    </TTGlyph>
    <TTGlyph name="Uacute" xMin="47" yMin="-35" xMax="1418" yMax="1785">
      <contour>
        <pt x="962" y="1785" on="1"/>
        <pt x="1023" y="1785" on="1"/>
        <pt x="1050" y="1635" on="1"/>
        <pt x="612" y="1494" on="1"/>
        <pt x="594" y="1599" on="1"/>
      </contour>
      <contour>
        <pt x="809" y="103" on="1"/>
        <pt x="871" y="103" on="0"/>
        <pt x="972" y="143" on="0"/>
        <pt x="1009" y="180" on="1"/>
        <pt x="1057" y="228" on="0"/>
        <pt x="1107" y="380" on="0"/>
        <pt x="1107" y="477" on="1"/>
        <pt x="1107" y="1242" on="1"/>
        <pt x="910" y="1301" on="1"/>
        <pt x="926" y="1384" on="1"/>
        <pt x="1418" y="1384" on="1"/>
        <pt x="1402" y="1299" on="1"/>
        <pt x="1249" y="1242" on="1"/>
        <pt x="1249" y="472" on="1"/>
        <pt x="1249" y="322" on="0"/>
        <pt x="1130" y="93" on="0"/>
        <pt x="895" y="-35" on="0"/>
        <pt x="728" y="-35" on="1"/>
        <pt x="559" y="-35" on="0"/>
        <pt x="330" y="92" on="0"/>
        <pt x="218" y="318" on="0"/>
        <pt x="218" y="469" on="1"/>
        <pt x="218" y="1246" on="1"/>
        <pt x="47" y="1301" on="1"/>
        <pt x="63" y="1384" on="1"/>
        <pt x="623" y="1384" on="1"/>
        <pt x="601" y="1282" on="1"/>
        <pt x="410" y="1235" on="1"/>
        <pt x="410" y="536" on="1"/>
        <pt x="410" y="412" on="0"/>
        <pt x="513" y="215" on="0"/>
        <pt x="695" y="103" on="0"/>
      </contour>
    </TTGlyph>
    <TTGlyph name="Ucircumflex" xMin="47" yMin="-35" xMax="1418" yMax="1785">
      <contour>
        <pt x="723" y="1785" on="1"/>
        <pt x="821" y="1785" on="1"/>
        <pt x="1078" y="1570" on="1"/>
        <pt x="1015" y="1504" on="1"/>
        <pt x="772" y="1634" on="1"/>
        <pt x="529" y="1504" on="1"/>
        <pt x="467" y="1570" on="1"/>
      </contour>
      <contour>
        <pt x="809" y="103" on="1"/>
        <pt x="871" y="103" on="0"/>
        <pt x="972" y="143" on="0"/>
        <pt x="1009" y="180" on="1"/>
        <pt x="1057" y="228" on="0"/>
        <pt x="1107" y="380" on="0"/>
        <pt x="1107" y="477" on="1"/>
        <pt x="1107" y="1242" on="1"/>
        <pt x="910" y="1301" on="1"/>
        <pt x="926" y="1384" on="1"/>
        <pt x="1418" y="1384" on="1"/>
        <pt x="1402" y="1299" on="1"/>
        <pt x="1249" y="1242" on="1"/>
        <pt x="1249" y="472" on="1"/>
        <pt x="1249" y="322" on="0"/>
        <pt x="1130" y="93" on="0"/>
        <pt x="895" y="-35" on="0"/>
        <pt x="728" y="-35" on="1"/>
        <pt x="559" y="-35" on="0"/>
        <pt x="330" y="92" on="0"/>
        <pt x="218" y="318" on="0"/>
        <pt x="218" y="469" on="1"/>
        <pt x="218" y="1246" on="1"/>
        <pt x="47" y="1301" on="1"/>
        <pt x="63" y="1384" on="1"/>
        <pt x="623" y="1384" on="1"/>
        <pt x="601" y="1282" on="1"/>
        <pt x="410" y="1235" on="1"/>
        <pt x="410" y="536" on="1"/>
        <pt x="410" y="412" on="0"/>
        <pt x="513" y="215" on="0"/>
        <pt x="695" y="103" on="0"/>
      </contour>
    </TTGlyph>
    <TTGlyph name="Udieresis" xMin="47" yMin="-35" xMax="1418" yMax="1713">
      <contour>
        <pt x="864" y="1594" on="1"/>
        <pt x="864" y="1629" on="0"/>
        <pt x="880" y="1694" on="0"/>
        <pt x="894" y="1703" on="1"/>
        <pt x="905" y="1713" on="0"/>
        <pt x="941" y="1713" on="1"/>
        <pt x="975" y="1713" on="0"/>
        <pt x="1043" y="1696" on="0"/>
        <pt x="1053" y="1682" on="1"/>
        <pt x="1062" y="1670" on="0"/>
        <pt x="1062" y="1633" on="1"/>
        <pt x="1062" y="1599" on="0"/>
        <pt x="1046" y="1532" on="0"/>
        <pt x="1033" y="1521" on="1"/>
        <pt x="1019" y="1513" on="0"/>
        <pt x="985" y="1513" on="1"/>
        <pt x="950" y="1513" on="0"/>
        <pt x="884" y="1529" on="0"/>
        <pt x="873" y="1542" on="1"/>
        <pt x="864" y="1556" on="0"/>
      </contour>
      <contour>
        <pt x="481" y="1593" on="1"/>
        <pt x="481" y="1627" on="0"/>
        <pt x="498" y="1693" on="0"/>
        <pt x="511" y="1703" on="1"/>
        <pt x="523" y="1712" on="0"/>
        <pt x="558" y="1712" on="1"/>
        <pt x="592" y="1712" on="0"/>
        <pt x="660" y="1695" on="0"/>
        <pt x="671" y="1682" on="1"/>
        <pt x="680" y="1669" on="0"/>
        <pt x="680" y="1633" on="1"/>
        <pt x="680" y="1598" on="0"/>
        <pt x="664" y="1532" on="0"/>
        <pt x="650" y="1521" on="1"/>
        <pt x="639" y="1513" on="0"/>
        <pt x="602" y="1513" on="1"/>
        <pt x="567" y="1513" on="0"/>
        <pt x="501" y="1529" on="0"/>
        <pt x="491" y="1542" on="1"/>
        <pt x="481" y="1553" on="0"/>
      </contour>
      <contour>
        <pt x="809" y="103" on="1"/>
        <pt x="871" y="103" on="0"/>
        <pt x="972" y="143" on="0"/>
        <pt x="1009" y="180" on="1"/>
        <pt x="1057" y="228" on="0"/>
        <pt x="1107" y="380" on="0"/>
        <pt x="1107" y="477" on="1"/>
        <pt x="1107" y="1242" on="1"/>
        <pt x="910" y="1301" on="1"/>
        <pt x="926" y="1384" on="1"/>
        <pt x="1418" y="1384" on="1"/>
        <pt x="1402" y="1299" on="1"/>
        <pt x="1249" y="1242" on="1"/>
        <pt x="1249" y="472" on="1"/>
        <pt x="1249" y="322" on="0"/>
        <pt x="1130" y="93" on="0"/>
        <pt x="895" y="-35" on="0"/>
        <pt x="728" y="-35" on="1"/>
        <pt x="559" y="-35" on="0"/>
        <pt x="330" y="92" on="0"/>
        <pt x="218" y="318" on="0"/>
        <pt x="218" y="469" on="1"/>
        <pt x="218" y="1246" on="1"/>
        <pt x="47" y="1301" on="1"/>
        <pt x="63" y="1384" on="1"/>
        <pt x="623" y="1384" on="1"/>
        <pt x="601" y="1282" on="1"/>
        <pt x="410" y="1235" on="1"/>
        <pt x="410" y="536" on="1"/>
        <pt x="410" y="412" on="0"/>
        <pt x="513" y="215" on="0"/>
        <pt x="695" y="103" on="0"/>
      </contour>
    </TTGlyph>
    <TTGlyph name="Ugrave" xMin="47" yMin="-35" xMax="1418" yMax="1785">
      <contour>
        <pt x="571" y="1785" on="1"/>
        <pt x="632" y="1785" on="1"/>
        <pt x="1000" y="1600" on="1"/>
        <pt x="981" y="1495" on="1"/>
        <pt x="544" y="1635" on="1"/>
      </contour>
      <contour>
        <pt x="809" y="103" on="1"/>
        <pt x="871" y="103" on="0"/>
        <pt x="972" y="143" on="0"/>
        <pt x="1009" y="180" on="1"/>
        <pt x="1057" y="228" on="0"/>
        <pt x="1107" y="380" on="0"/>
        <pt x="1107" y="477" on="1"/>
        <pt x="1107" y="1242" on="1"/>
        <pt x="910" y="1301" on="1"/>
        <pt x="926" y="1384" on="1"/>
        <pt x="1418" y="1384" on="1"/>
        <pt x="1402" y="1299" on="1"/>
        <pt x="1249" y="1242" on="1"/>
        <pt x="1249" y="472" on="1"/>
        <pt x="1249" y="322" on="0"/>
        <pt x="1130" y="93" on="0"/>
        <pt x="895" y="-35" on="0"/>
        <pt x="728" y="-35" on="1"/>
        <pt x="559" y="-35" on="0"/>
        <pt x="330" y="92" on="0"/>
        <pt x="218" y="318" on="0"/>
        <pt x="218" y="469" on="1"/>
        <pt x="218" y="1246" on="1"/>
        <pt x="47" y="1301" on="1"/>
        <pt x="63" y="1384" on="1"/>
        <pt x="623" y="1384" on="1"/>
        <pt x="601" y="1282" on="1"/>
        <pt x="410" y="1235" on="1"/>
        <pt x="410" y="536" on="1"/>
        <pt x="410" y="412" on="0"/>
        <pt x="513" y="215" on="0"/>
        <pt x="695" y="103" on="0"/>
      </contour>
    </TTGlyph>
    <TTGlyph name="Uhungarumlaut" xMin="47" yMin="-35" xMax="1418" yMax="1800">
      <contour>
        <pt x="807" y="1800" on="1"/>
        <pt x="827" y="1698" on="1"/>
        <pt x="567" y="1460" on="1"/>
        <pt x="530" y="1605" on="1"/>
        <pt x="696" y="1800" on="1"/>
      </contour>
      <contour>
        <pt x="1104" y="1800" on="1"/>
        <pt x="1124" y="1698" on="1"/>
        <pt x="865" y="1460" on="1"/>
        <pt x="827" y="1605" on="1"/>
        <pt x="993" y="1800" on="1"/>
      </contour>
      <contour>
        <pt x="809" y="103" on="1"/>
        <pt x="871" y="103" on="0"/>
        <pt x="972" y="143" on="0"/>
        <pt x="1009" y="180" on="1"/>
        <pt x="1057" y="228" on="0"/>
        <pt x="1107" y="380" on="0"/>
        <pt x="1107" y="477" on="1"/>
        <pt x="1107" y="1242" on="1"/>
        <pt x="910" y="1301" on="1"/>
        <pt x="926" y="1384" on="1"/>
        <pt x="1418" y="1384" on="1"/>
        <pt x="1402" y="1299" on="1"/>
        <pt x="1249" y="1242" on="1"/>
        <pt x="1249" y="472" on="1"/>
        <pt x="1249" y="322" on="0"/>
        <pt x="1130" y="93" on="0"/>
        <pt x="895" y="-35" on="0"/>
        <pt x="728" y="-35" on="1"/>
        <pt x="559" y="-35" on="0"/>
        <pt x="330" y="92" on="0"/>
        <pt x="218" y="318" on="0"/>
        <pt x="218" y="469" on="1"/>
        <pt x="218" y="1246" on="1"/>
        <pt x="47" y="1301" on="1"/>
        <pt x="63" y="1384" on="1"/>
        <pt x="623" y="1384" on="1"/>
        <pt x="601" y="1282" on="1"/>
        <pt x="410" y="1235" on="1"/>
        <pt x="410" y="536" on="1"/>
        <pt x="410" y="412" on="0"/>
        <pt x="513" y="215" on="0"/>
        <pt x="695" y="103" on="0"/>
      </contour>
    </TTGlyph>
    <TTGlyph name="Umacron" xMin="47" yMin="-35" xMax="1418" yMax="1671">
      <contour>
        <pt x="1042" y="1671" on="1"/>
        <pt x="1019" y="1552" on="1"/>
        <pt x="914" y="1546" on="0"/>
        <pt x="612" y="1540" on="0"/>
        <pt x="499" y="1540" on="1"/>
        <pt x="527" y="1671" on="1"/>
      </contour>
      <contour>
        <pt x="809" y="103" on="1"/>
        <pt x="871" y="103" on="0"/>
        <pt x="972" y="143" on="0"/>
        <pt x="1009" y="180" on="1"/>
        <pt x="1057" y="228" on="0"/>
        <pt x="1107" y="380" on="0"/>
        <pt x="1107" y="477" on="1"/>
        <pt x="1107" y="1242" on="1"/>
        <pt x="910" y="1301" on="1"/>
        <pt x="926" y="1384" on="1"/>
        <pt x="1418" y="1384" on="1"/>
        <pt x="1402" y="1299" on="1"/>
        <pt x="1249" y="1242" on="1"/>
        <pt x="1249" y="472" on="1"/>
        <pt x="1249" y="322" on="0"/>
        <pt x="1130" y="93" on="0"/>
        <pt x="895" y="-35" on="0"/>
        <pt x="728" y="-35" on="1"/>
        <pt x="559" y="-35" on="0"/>
        <pt x="330" y="92" on="0"/>
        <pt x="218" y="318" on="0"/>
        <pt x="218" y="469" on="1"/>
        <pt x="218" y="1246" on="1"/>
        <pt x="47" y="1301" on="1"/>
        <pt x="63" y="1384" on="1"/>
        <pt x="623" y="1384" on="1"/>
        <pt x="601" y="1282" on="1"/>
        <pt x="410" y="1235" on="1"/>
        <pt x="410" y="536" on="1"/>
        <pt x="410" y="412" on="0"/>
        <pt x="513" y="215" on="0"/>
        <pt x="695" y="103" on="0"/>
      </contour>
    </TTGlyph>
    <TTGlyph name="Uogonek" xMin="44" yMin="-475" xMax="1420" yMax="1384">
      <contour>
        <pt x="810" y="103" on="1"/>
        <pt x="955" y="103" on="0"/>
        <pt x="1107" y="302" on="0"/>
        <pt x="1107" y="477" on="1"/>
        <pt x="1107" y="1242" on="1"/>
        <pt x="907" y="1301" on="1"/>
        <pt x="928" y="1384" on="1"/>
        <pt x="1420" y="1384" on="1"/>
        <pt x="1399" y="1297" on="1"/>
        <pt x="1250" y="1242" on="1"/>
        <pt x="1250" y="472" on="1"/>
        <pt x="1250" y="355" on="0"/>
        <pt x="1188" y="185" on="0"/>
        <pt x="1087" y="69" on="0"/>
        <pt x="1013" y="14" on="1"/>
        <pt x="801" y="-143" on="0"/>
        <pt x="801" y="-236" on="1"/>
        <pt x="801" y="-271" on="0"/>
        <pt x="848" y="-336" on="0"/>
        <pt x="883" y="-349" on="1"/>
        <pt x="899" y="-355" on="0"/>
        <pt x="919" y="-355" on="1"/>
        <pt x="950" y="-355" on="0"/>
        <pt x="1032" y="-332" on="0"/>
        <pt x="1073" y="-313" on="1"/>
        <pt x="1096" y="-353" on="1"/>
        <pt x="1029" y="-412" on="0"/>
        <pt x="917" y="-475" on="0"/>
        <pt x="856" y="-475" on="1"/>
        <pt x="802" y="-475" on="0"/>
        <pt x="710" y="-430" on="0"/>
        <pt x="654" y="-344" on="0"/>
        <pt x="654" y="-287" on="1"/>
        <pt x="654" y="-189" on="0"/>
        <pt x="738" y="-105" on="1"/>
        <pt x="758" y="-85" on="0"/>
        <pt x="821" y="-42" on="0"/>
        <pt x="852" y="-25" on="1"/>
        <pt x="801" y="-35" on="0"/>
        <pt x="729" y="-35" on="1"/>
        <pt x="560" y="-35" on="0"/>
        <pt x="331" y="92" on="0"/>
        <pt x="218" y="319" on="0"/>
        <pt x="218" y="469" on="1"/>
        <pt x="218" y="1246" on="1"/>
        <pt x="44" y="1302" on="1"/>
        <pt x="64" y="1384" on="1"/>
        <pt x="622" y="1384" on="1"/>
        <pt x="601" y="1282" on="1"/>
        <pt x="410" y="1235" on="1"/>
        <pt x="410" y="536" on="1"/>
        <pt x="410" y="412" on="0"/>
        <pt x="513" y="215" on="0"/>
        <pt x="695" y="103" on="0"/>
      </contour>
    </TTGlyph>
    <TTGlyph name="Uring" xMin="47" yMin="-35" xMax="1418" yMax="1829">
      <contour>
        <pt x="587" y="1644" on="1"/>
        <pt x="587" y="1696" on="0"/>
        <pt x="634" y="1781" on="0"/>
        <pt x="720" y="1829" on="0"/>
        <pt x="777" y="1829" on="1"/>
        <pt x="824" y="1829" on="0"/>
        <pt x="907" y="1786" on="0"/>
        <pt x="957" y="1709" on="0"/>
        <pt x="957" y="1660" on="1"/>
        <pt x="957" y="1607" on="0"/>
        <pt x="909" y="1523" on="0"/>
        <pt x="824" y="1476" on="0"/>
        <pt x="770" y="1476" on="1"/>
        <pt x="720" y="1476" on="0"/>
        <pt x="636" y="1518" on="0"/>
        <pt x="587" y="1594" on="0"/>
      </contour>
      <contour>
        <pt x="849" y="1643" on="1"/>
        <pt x="849" y="1682" on="0"/>
        <pt x="803" y="1738" on="0"/>
        <pt x="763" y="1738" on="1"/>
        <pt x="732" y="1738" on="0"/>
        <pt x="693" y="1692" on="0"/>
        <pt x="693" y="1661" on="1"/>
        <pt x="693" y="1623" on="0"/>
        <pt x="737" y="1569" on="0"/>
        <pt x="779" y="1569" on="1"/>
        <pt x="811" y="1569" on="0"/>
        <pt x="849" y="1611" on="0"/>
      </contour>
      <contour>
        <pt x="809" y="103" on="1"/>
        <pt x="871" y="103" on="0"/>
        <pt x="972" y="143" on="0"/>
        <pt x="1009" y="180" on="1"/>
        <pt x="1057" y="228" on="0"/>
        <pt x="1107" y="380" on="0"/>
        <pt x="1107" y="477" on="1"/>
        <pt x="1107" y="1242" on="1"/>
        <pt x="910" y="1301" on="1"/>
        <pt x="926" y="1384" on="1"/>
        <pt x="1418" y="1384" on="1"/>
        <pt x="1402" y="1299" on="1"/>
        <pt x="1249" y="1242" on="1"/>
        <pt x="1249" y="472" on="1"/>
        <pt x="1249" y="322" on="0"/>
        <pt x="1130" y="93" on="0"/>
        <pt x="895" y="-35" on="0"/>
        <pt x="728" y="-35" on="1"/>
        <pt x="559" y="-35" on="0"/>
        <pt x="330" y="92" on="0"/>
        <pt x="218" y="318" on="0"/>
        <pt x="218" y="469" on="1"/>
        <pt x="218" y="1246" on="1"/>
        <pt x="47" y="1301" on="1"/>
        <pt x="63" y="1384" on="1"/>
        <pt x="623" y="1384" on="1"/>
        <pt x="601" y="1282" on="1"/>
        <pt x="410" y="1235" on="1"/>
        <pt x="410" y="536" on="1"/>
        <pt x="410" y="412" on="0"/>
        <pt x="513" y="215" on="0"/>
        <pt x="695" y="103" on="0"/>
      </contour>
    </TTGlyph>
    <TTGlyph name="V" xMin="-27" yMin="-35" xMax="1370" yMax="1384">
      <contour>
        <pt x="897" y="1290" on="1"/>
        <pt x="914" y="1384" on="1"/>
        <pt x="1370" y="1384" on="1"/>
        <pt x="1351" y="1289" on="1"/>
        <pt x="1223" y="1252" on="1"/>
        <pt x="762" y="0" on="1"/>
        <pt x="615" y="-35" on="1"/>
        <pt x="108" y="1252" on="1"/>
        <pt x="-27" y="1288" on="1"/>
        <pt x="-10" y="1384" on="1"/>
        <pt x="522" y="1384" on="1"/>
        <pt x="506" y="1291" on="1"/>
        <pt x="340" y="1250" on="1"/>
        <pt x="731" y="202" on="1"/>
        <pt x="1078" y="1256" on="1"/>
      </contour>
    </TTGlyph>
    <TTGlyph name="W" xMin="-9" yMin="-35" xMax="2008" yMax="1384">
      <contour>
        <pt x="1991" y="1289" on="1"/>
        <pt x="1864" y="1252" on="1"/>
        <pt x="1438" y="0" on="1"/>
        <pt x="1297" y="-35" on="1"/>
        <pt x="993" y="921" on="1"/>
        <pt x="687" y="0" on="1"/>
        <pt x="543" y="-35" on="1"/>
        <pt x="133" y="1251" on="1"/>
        <pt x="-9" y="1288" on="1"/>
        <pt x="9" y="1384" on="1"/>
        <pt x="526" y="1384" on="1"/>
        <pt x="510" y="1291" on="1"/>
        <pt x="352" y="1250" on="1"/>
        <pt x="653" y="235" on="1"/>
        <pt x="943" y="1078" on="1"/>
        <pt x="887" y="1255" on="1"/>
        <pt x="748" y="1293" on="1"/>
        <pt x="764" y="1384" on="1"/>
        <pt x="1305" y="1384" on="1"/>
        <pt x="1289" y="1290" on="1"/>
        <pt x="1094" y="1248" on="1"/>
        <pt x="1406" y="235" on="1"/>
        <pt x="1725" y="1255" on="1"/>
        <pt x="1524" y="1289" on="1"/>
        <pt x="1543" y="1384" on="1"/>
        <pt x="2008" y="1384" on="1"/>
      </contour>
    </TTGlyph>
    <TTGlyph name="X" xMin="26" yMin="0" xMax="1319" yMax="1384">
      <contour>
        <pt x="1304" y="0" on="1"/>
        <pt x="771" y="0" on="1"/>
        <pt x="786" y="88" on="1"/>
        <pt x="934" y="136" on="1"/>
        <pt x="634" y="584" on="1"/>
        <pt x="341" y="135" on="1"/>
        <pt x="514" y="83" on="1"/>
        <pt x="495" y="0" on="1"/>
        <pt x="26" y="0" on="1"/>
        <pt x="42" y="93" on="1"/>
        <pt x="180" y="136" on="1"/>
        <pt x="572" y="675" on="1"/>
        <pt x="171" y="1252" on="1"/>
        <pt x="31" y="1284" on="1"/>
        <pt x="49" y="1384" on="1"/>
        <pt x="577" y="1384" on="1"/>
        <pt x="562" y="1296" on="1"/>
        <pt x="413" y="1248" on="1"/>
        <pt x="713" y="794" on="1"/>
        <pt x="1002" y="1249" on="1"/>
        <pt x="830" y="1301" on="1"/>
        <pt x="847" y="1384" on="1"/>
        <pt x="1317" y="1384" on="1"/>
        <pt x="1298" y="1286" on="1"/>
        <pt x="1162" y="1252" on="1"/>
        <pt x="776" y="702" on="1"/>
        <pt x="1177" y="132" on="1"/>
        <pt x="1319" y="89" on="1"/>
      </contour>
    </TTGlyph>
    <TTGlyph name="Y" xMin="-30" yMin="0" xMax="1214" yMax="1384">
      <contour>
        <pt x="510" y="558" on="1"/>
        <pt x="101" y="1251" on="1"/>
        <pt x="-30" y="1290" on="1"/>
        <pt x="-13" y="1384" on="1"/>
        <pt x="494" y="1384" on="1"/>
        <pt x="478" y="1295" on="1"/>
        <pt x="316" y="1247" on="1"/>
        <pt x="652" y="667" on="1"/>
        <pt x="679" y="734" on="0"/>
        <pt x="759" y="904" on="0"/>
        <pt x="826" y="1040" on="1"/>
        <pt x="885" y="1157" on="0"/>
        <pt x="926" y="1244" on="1"/>
        <pt x="738" y="1301" on="1"/>
        <pt x="755" y="1384" on="1"/>
        <pt x="1214" y="1384" on="1"/>
        <pt x="1199" y="1289" on="1"/>
        <pt x="1070" y="1252" on="1"/>
        <pt x="702" y="560" on="1"/>
        <pt x="702" y="139" on="1"/>
        <pt x="901" y="83" on="1"/>
        <pt x="885" y="0" on="1"/>
        <pt x="323" y="0" on="1"/>
        <pt x="337" y="84" on="1"/>
        <pt x="510" y="139" on="1"/>
      </contour>
    </TTGlyph>
    <TTGlyph name="Yacute" xMin="-30" yMin="0" xMax="1214" yMax="1785">
      <contour>
        <pt x="800" y="1785" on="1"/>
        <pt x="861" y="1785" on="1"/>
        <pt x="888" y="1635" on="1"/>
        <pt x="450" y="1494" on="1"/>
        <pt x="432" y="1599" on="1"/>
      </contour>
      <contour>
        <pt x="510" y="558" on="1"/>
        <pt x="101" y="1251" on="1"/>
        <pt x="-30" y="1290" on="1"/>
        <pt x="-13" y="1384" on="1"/>
        <pt x="494" y="1384" on="1"/>
        <pt x="478" y="1295" on="1"/>
        <pt x="316" y="1247" on="1"/>
        <pt x="652" y="667" on="1"/>
        <pt x="679" y="734" on="0"/>
        <pt x="759" y="904" on="0"/>
        <pt x="826" y="1040" on="1"/>
        <pt x="885" y="1157" on="0"/>
        <pt x="926" y="1244" on="1"/>
        <pt x="738" y="1301" on="1"/>
        <pt x="755" y="1384" on="1"/>
        <pt x="1214" y="1384" on="1"/>
        <pt x="1199" y="1289" on="1"/>
        <pt x="1070" y="1252" on="1"/>
        <pt x="702" y="560" on="1"/>
        <pt x="702" y="139" on="1"/>
        <pt x="901" y="83" on="1"/>
        <pt x="885" y="0" on="1"/>
        <pt x="323" y="0" on="1"/>
        <pt x="337" y="84" on="1"/>
        <pt x="510" y="139" on="1"/>
      </contour>
    </TTGlyph>
    <TTGlyph name="Ydieresis" xMin="-30" yMin="0" xMax="1214" yMax="1713">
      <contour>
        <pt x="702" y="1594" on="1"/>
        <pt x="702" y="1629" on="0"/>
        <pt x="718" y="1694" on="0"/>
        <pt x="732" y="1703" on="1"/>
        <pt x="743" y="1713" on="0"/>
        <pt x="779" y="1713" on="1"/>
        <pt x="813" y="1713" on="0"/>
        <pt x="881" y="1696" on="0"/>
        <pt x="891" y="1682" on="1"/>
        <pt x="900" y="1670" on="0"/>
        <pt x="900" y="1633" on="1"/>
        <pt x="900" y="1599" on="0"/>
        <pt x="884" y="1532" on="0"/>
        <pt x="871" y="1521" on="1"/>
        <pt x="857" y="1513" on="0"/>
        <pt x="823" y="1513" on="1"/>
        <pt x="788" y="1513" on="0"/>
        <pt x="722" y="1529" on="0"/>
        <pt x="711" y="1542" on="1"/>
        <pt x="702" y="1556" on="0"/>
      </contour>
      <contour>
        <pt x="319" y="1593" on="1"/>
        <pt x="319" y="1627" on="0"/>
        <pt x="336" y="1693" on="0"/>
        <pt x="349" y="1703" on="1"/>
        <pt x="361" y="1712" on="0"/>
        <pt x="396" y="1712" on="1"/>
        <pt x="430" y="1712" on="0"/>
        <pt x="498" y="1695" on="0"/>
        <pt x="509" y="1682" on="1"/>
        <pt x="518" y="1669" on="0"/>
        <pt x="518" y="1633" on="1"/>
        <pt x="518" y="1598" on="0"/>
        <pt x="502" y="1532" on="0"/>
        <pt x="488" y="1521" on="1"/>
        <pt x="477" y="1513" on="0"/>
        <pt x="440" y="1513" on="1"/>
        <pt x="405" y="1513" on="0"/>
        <pt x="339" y="1529" on="0"/>
        <pt x="329" y="1542" on="1"/>
        <pt x="319" y="1553" on="0"/>
      </contour>
      <contour>
        <pt x="510" y="558" on="1"/>
        <pt x="101" y="1251" on="1"/>
        <pt x="-30" y="1290" on="1"/>
        <pt x="-13" y="1384" on="1"/>
        <pt x="494" y="1384" on="1"/>
        <pt x="478" y="1295" on="1"/>
        <pt x="316" y="1247" on="1"/>
        <pt x="652" y="667" on="1"/>
        <pt x="679" y="734" on="0"/>
        <pt x="759" y="904" on="0"/>
        <pt x="826" y="1040" on="1"/>
        <pt x="885" y="1157" on="0"/>
        <pt x="926" y="1244" on="1"/>
        <pt x="738" y="1301" on="1"/>
        <pt x="755" y="1384" on="1"/>
        <pt x="1214" y="1384" on="1"/>
        <pt x="1199" y="1289" on="1"/>
        <pt x="1070" y="1252" on="1"/>
        <pt x="702" y="560" on="1"/>
        <pt x="702" y="139" on="1"/>
        <pt x="901" y="83" on="1"/>
        <pt x="885" y="0" on="1"/>
        <pt x="323" y="0" on="1"/>
        <pt x="337" y="84" on="1"/>
        <pt x="510" y="139" on="1"/>
      </contour>
    </TTGlyph>
    <TTGlyph name="Z" xMin="64" yMin="0" xMax="1162" yMax="1394">
      <contour>
        <pt x="1162" y="355" on="1"/>
        <pt x="1078" y="0" on="1"/>
        <pt x="124" y="0" on="1"/>
        <pt x="64" y="151" on="1"/>
        <pt x="935" y="1283" on="1"/>
        <pt x="299" y="1232" on="1"/>
        <pt x="197" y="1010" on="1"/>
        <pt x="98" y="1035" on="1"/>
        <pt x="152" y="1394" on="1"/>
        <pt x="280" y="1384" on="1"/>
        <pt x="1110" y="1384" on="1"/>
        <pt x="1152" y="1261" on="1"/>
        <pt x="278" y="116" on="1"/>
        <pt x="945" y="160" on="1"/>
        <pt x="1070" y="377" on="1"/>
      </contour>
    </TTGlyph>
    <TTGlyph name="Zacute" xMin="64" yMin="0" xMax="1162" yMax="1785">
      <contour>
        <pt x="814" y="1785" on="1"/>
        <pt x="875" y="1785" on="1"/>
        <pt x="902" y="1635" on="1"/>
        <pt x="464" y="1494" on="1"/>
        <pt x="446" y="1599" on="1"/>
      </contour>
      <contour>
        <pt x="1162" y="355" on="1"/>
        <pt x="1078" y="0" on="1"/>
        <pt x="124" y="0" on="1"/>
        <pt x="64" y="151" on="1"/>
        <pt x="935" y="1283" on="1"/>
        <pt x="299" y="1232" on="1"/>
        <pt x="197" y="1010" on="1"/>
        <pt x="98" y="1035" on="1"/>
        <pt x="152" y="1394" on="1"/>
        <pt x="280" y="1384" on="1"/>
        <pt x="1110" y="1384" on="1"/>
        <pt x="1152" y="1261" on="1"/>
        <pt x="278" y="116" on="1"/>
        <pt x="945" y="160" on="1"/>
        <pt x="1070" y="377" on="1"/>
      </contour>
    </TTGlyph>
    <TTGlyph name="Zcaron" xMin="64" yMin="0" xMax="1162" yMax="1794">
      <contour>
        <pt x="381" y="1794" on="1"/>
        <pt x="624" y="1665" on="1"/>
        <pt x="867" y="1794" on="1"/>
        <pt x="929" y="1730" on="1"/>
        <pt x="672" y="1515" on="1"/>
        <pt x="576" y="1515" on="1"/>
        <pt x="319" y="1730" on="1"/>
      </contour>
      <contour>
        <pt x="1162" y="355" on="1"/>
        <pt x="1078" y="0" on="1"/>
        <pt x="124" y="0" on="1"/>
        <pt x="64" y="151" on="1"/>
        <pt x="935" y="1283" on="1"/>
        <pt x="299" y="1232" on="1"/>
        <pt x="197" y="1010" on="1"/>
        <pt x="98" y="1035" on="1"/>
        <pt x="152" y="1394" on="1"/>
        <pt x="280" y="1384" on="1"/>
        <pt x="1110" y="1384" on="1"/>
        <pt x="1152" y="1261" on="1"/>
        <pt x="278" y="116" on="1"/>
        <pt x="945" y="160" on="1"/>
        <pt x="1070" y="377" on="1"/>
      </contour>
    </TTGlyph>
    <TTGlyph name="Zdotaccent" xMin="64" yMin="0" xMax="1162" yMax="1712">
      <contour>
        <pt x="525" y="1592" on="1"/>
        <pt x="525" y="1626" on="0"/>
        <pt x="542" y="1693" on="0"/>
        <pt x="555" y="1703" on="1"/>
        <pt x="567" y="1712" on="0"/>
        <pt x="602" y="1712" on="1"/>
        <pt x="637" y="1712" on="0"/>
        <pt x="704" y="1695" on="0"/>
        <pt x="714" y="1682" on="1"/>
        <pt x="724" y="1671" on="0"/>
        <pt x="724" y="1632" on="1"/>
        <pt x="724" y="1597" on="0"/>
        <pt x="708" y="1531" on="0"/>
        <pt x="694" y="1521" on="1"/>
        <pt x="683" y="1513" on="0"/>
        <pt x="646" y="1513" on="1"/>
        <pt x="611" y="1513" on="0"/>
        <pt x="545" y="1529" on="0"/>
        <pt x="535" y="1542" on="1"/>
        <pt x="525" y="1553" on="0"/>
      </contour>
      <contour>
        <pt x="1162" y="355" on="1"/>
        <pt x="1078" y="0" on="1"/>
        <pt x="124" y="0" on="1"/>
        <pt x="64" y="151" on="1"/>
        <pt x="935" y="1283" on="1"/>
        <pt x="299" y="1232" on="1"/>
        <pt x="197" y="1010" on="1"/>
        <pt x="98" y="1035" on="1"/>
        <pt x="152" y="1394" on="1"/>
        <pt x="280" y="1384" on="1"/>
        <pt x="1110" y="1384" on="1"/>
        <pt x="1152" y="1261" on="1"/>
        <pt x="278" y="116" on="1"/>
        <pt x="945" y="160" on="1"/>
        <pt x="1070" y="377" on="1"/>
      </contour>
    </TTGlyph>
    <TTGlyph name="a" xMin="67" yMin="-25" xMax="962" yMax="975">
      <contour>
        <pt x="217" y="475" on="1"/>
        <pt x="275" y="500" on="0"/>
        <pt x="452" y="524" on="0"/>
        <pt x="530" y="524" on="1"/>
        <pt x="571" y="524" on="0"/>
        <pt x="610" y="521" on="1"/>
        <pt x="610" y="575" on="1"/>
        <pt x="610" y="667" on="0"/>
        <pt x="569" y="818" on="0"/>
        <pt x="509" y="851" on="1"/>
        <pt x="488" y="863" on="0"/>
        <pt x="419" y="875" on="0"/>
        <pt x="381" y="875" on="1"/>
        <pt x="347" y="875" on="0"/>
        <pt x="314" y="868" on="1"/>
        <pt x="280" y="686" on="1"/>
        <pt x="252" y="671" on="0"/>
        <pt x="219" y="671" on="1"/>
        <pt x="193" y="671" on="0"/>
        <pt x="138" y="701" on="0"/>
        <pt x="102" y="751" on="0"/>
        <pt x="102" y="779" on="1"/>
        <pt x="102" y="832" on="0"/>
        <pt x="186" y="879" on="1"/>
        <pt x="236" y="906" on="0"/>
        <pt x="373" y="950" on="0"/>
        <pt x="498" y="975" on="0"/>
        <pt x="529" y="975" on="1"/>
        <pt x="667" y="975" on="0"/>
        <pt x="789" y="813" on="0"/>
        <pt x="789" y="674" on="1"/>
        <pt x="789" y="192" on="1"/>
        <pt x="826" y="154" on="0"/>
        <pt x="910" y="105" on="0"/>
        <pt x="962" y="93" on="1"/>
        <pt x="950" y="35" on="1"/>
        <pt x="894" y="9" on="0"/>
        <pt x="775" y="-22" on="0"/>
        <pt x="722" y="-25" on="1"/>
        <pt x="706" y="22" on="0"/>
        <pt x="667" y="96" on="0"/>
        <pt x="637" y="132" on="1"/>
        <pt x="615" y="100" on="0"/>
        <pt x="507" y="25" on="0"/>
        <pt x="378" y="-25" on="0"/>
        <pt x="325" y="-25" on="1"/>
        <pt x="237" y="-25" on="0"/>
        <pt x="121" y="56" on="0"/>
        <pt x="67" y="178" on="0"/>
        <pt x="67" y="241" on="1"/>
        <pt x="67" y="337" on="0"/>
        <pt x="135" y="441" on="0"/>
      </contour>
      <contour>
        <pt x="389" y="106" on="1"/>
        <pt x="434" y="106" on="0"/>
        <pt x="567" y="143" on="0"/>
        <pt x="610" y="165" on="1"/>
        <pt x="610" y="458" on="1"/>
        <pt x="511" y="451" on="0"/>
        <pt x="367" y="415" on="0"/>
        <pt x="285" y="374" on="0"/>
        <pt x="270" y="357" on="1"/>
        <pt x="251" y="338" on="0"/>
        <pt x="251" y="291" on="1"/>
        <pt x="251" y="257" on="0"/>
        <pt x="280" y="181" on="0"/>
        <pt x="328" y="122" on="0"/>
        <pt x="355" y="112" on="1"/>
        <pt x="368" y="106" on="0"/>
      </contour>
    </TTGlyph>
    <TTGlyph name="aacute" xMin="68" yMin="-25" xMax="963" yMax="1447">
      <contour>
        <pt x="218" y="475" on="1"/>
        <pt x="276" y="500" on="0"/>
        <pt x="453" y="524" on="0"/>
        <pt x="531" y="524" on="1"/>
        <pt x="572" y="524" on="0"/>
        <pt x="611" y="521" on="1"/>
        <pt x="611" y="575" on="1"/>
        <pt x="611" y="667" on="0"/>
        <pt x="570" y="818" on="0"/>
        <pt x="510" y="851" on="1"/>
        <pt x="489" y="863" on="0"/>
        <pt x="420" y="875" on="0"/>
        <pt x="382" y="875" on="1"/>
        <pt x="348" y="875" on="0"/>
        <pt x="315" y="868" on="1"/>
        <pt x="281" y="686" on="1"/>
        <pt x="253" y="671" on="0"/>
        <pt x="220" y="671" on="1"/>
        <pt x="194" y="671" on="0"/>
        <pt x="139" y="701" on="0"/>
        <pt x="103" y="751" on="0"/>
        <pt x="103" y="779" on="1"/>
        <pt x="103" y="832" on="0"/>
        <pt x="187" y="879" on="1"/>
        <pt x="237" y="906" on="0"/>
        <pt x="374" y="950" on="0"/>
        <pt x="499" y="975" on="0"/>
        <pt x="530" y="975" on="1"/>
        <pt x="668" y="975" on="0"/>
        <pt x="790" y="813" on="0"/>
        <pt x="790" y="674" on="1"/>
        <pt x="790" y="192" on="1"/>
        <pt x="827" y="154" on="0"/>
        <pt x="911" y="105" on="0"/>
        <pt x="963" y="93" on="1"/>
        <pt x="951" y="35" on="1"/>
        <pt x="895" y="9" on="0"/>
        <pt x="776" y="-22" on="0"/>
        <pt x="723" y="-25" on="1"/>
        <pt x="707" y="22" on="0"/>
        <pt x="668" y="96" on="0"/>
        <pt x="638" y="132" on="1"/>
        <pt x="616" y="100" on="0"/>
        <pt x="508" y="25" on="0"/>
        <pt x="379" y="-25" on="0"/>
        <pt x="326" y="-25" on="1"/>
        <pt x="238" y="-25" on="0"/>
        <pt x="122" y="56" on="0"/>
        <pt x="68" y="178" on="0"/>
        <pt x="68" y="241" on="1"/>
        <pt x="68" y="337" on="0"/>
        <pt x="136" y="441" on="0"/>
      </contour>
      <contour>
        <pt x="390" y="106" on="1"/>
        <pt x="435" y="106" on="0"/>
        <pt x="568" y="143" on="0"/>
        <pt x="611" y="165" on="1"/>
        <pt x="611" y="458" on="1"/>
        <pt x="512" y="451" on="0"/>
        <pt x="368" y="415" on="0"/>
        <pt x="286" y="374" on="0"/>
        <pt x="271" y="357" on="1"/>
        <pt x="252" y="338" on="0"/>
        <pt x="252" y="291" on="1"/>
        <pt x="252" y="257" on="0"/>
        <pt x="281" y="181" on="0"/>
        <pt x="329" y="122" on="0"/>
        <pt x="356" y="112" on="1"/>
        <pt x="369" y="106" on="0"/>
      </contour>
      <contour>
        <pt x="642" y="1447" on="1"/>
        <pt x="671" y="1298" on="1"/>
        <pt x="303" y="1061" on="1"/>
        <pt x="280" y="1183" on="1"/>
        <pt x="578" y="1447" on="1"/>
      </contour>
    </TTGlyph>
    <TTGlyph name="aadeva" xMin="17" yMin="-101" xMax="2024" yMax="1198">
      <contour>
        <pt x="1808" y="1053" on="1"/>
        <pt x="1808" y="-101" on="1"/>
        <pt x="1654" y="-40" on="1"/>
        <pt x="1654" y="1053" on="1"/>
        <pt x="1283" y="1053" on="1"/>
        <pt x="1283" y="-100" on="1"/>
        <pt x="1129" y="-38" on="1"/>
        <pt x="1129" y="528" on="1"/>
        <pt x="1071" y="488" on="0"/>
        <pt x="982" y="488" on="1"/>
        <pt x="911" y="488" on="0"/>
        <pt x="819" y="526" on="1"/>
        <pt x="857" y="482" on="0"/>
        <pt x="894" y="391" on="0"/>
        <pt x="894" y="338" on="1"/>
        <pt x="894" y="246" on="0"/>
        <pt x="800" y="106" on="0"/>
        <pt x="639" y="31" on="0"/>
        <pt x="542" y="31" on="1"/>
        <pt x="215" y="31" on="0"/>
        <pt x="17" y="474" on="1"/>
        <pt x="107" y="516" on="1"/>
        <pt x="180" y="392" on="0"/>
        <pt x="309" y="242" on="0"/>
        <pt x="436" y="172" on="0"/>
        <pt x="508" y="172" on="1"/>
        <pt x="572" y="172" on="0"/>
        <pt x="675" y="228" on="0"/>
        <pt x="733" y="323" on="0"/>
        <pt x="733" y="381" on="1"/>
        <pt x="733" y="515" on="0"/>
        <pt x="607" y="614" on="1"/>
        <pt x="543" y="583" on="0"/>
        <pt x="458" y="569" on="1"/>
        <pt x="369" y="707" on="1"/>
        <pt x="487" y="740" on="0"/>
        <pt x="621" y="813" on="0"/>
        <pt x="681" y="908" on="0"/>
        <pt x="682" y="976" on="1"/>
        <pt x="682" y="1003" on="0"/>
        <pt x="669" y="1051" on="0"/>
        <pt x="658" y="1062" on="1"/>
        <pt x="649" y="1072" on="0"/>
        <pt x="602" y="1083" on="0"/>
        <pt x="570" y="1083" on="1"/>
        <pt x="505" y="1083" on="0"/>
        <pt x="345" y="985" on="0"/>
        <pt x="278" y="905" on="1"/>
        <pt x="168" y="1037" on="1"/>
        <pt x="232" y="1111" on="0"/>
        <pt x="401" y="1198" on="0"/>
        <pt x="488" y="1198" on="1"/>
        <pt x="573" y="1198" on="0"/>
        <pt x="716" y="1111" on="0"/>
        <pt x="800" y="971" on="0"/>
        <pt x="800" y="896" on="1"/>
        <pt x="800" y="827" on="0"/>
        <pt x="744" y="710" on="0"/>
        <pt x="690" y="665" on="1"/>
        <pt x="773" y="616" on="0"/>
        <pt x="892" y="616" on="1"/>
        <pt x="965" y="616" on="0"/>
        <pt x="1095" y="673" on="0"/>
        <pt x="1129" y="720" on="1"/>
        <pt x="1129" y="1053" on="1"/>
        <pt x="980" y="1053" on="1"/>
        <pt x="926" y="1187" on="1"/>
        <pt x="1975" y="1187" on="1"/>
        <pt x="2024" y="1053" on="1"/>
      </contour>
    </TTGlyph>
    <TTGlyph name="abbreviationsigndeva" xMin="195" yMin="248" xMax="777" yMax="875">
      <contour>
        <pt x="195" y="561" on="1"/>
        <pt x="195" y="648" on="0"/>
        <pt x="268" y="791" on="0"/>
        <pt x="401" y="875" on="0"/>
        <pt x="488" y="875" on="1"/>
        <pt x="625" y="875" on="0"/>
        <pt x="777" y="707" on="0"/>
        <pt x="777" y="561" on="1"/>
        <pt x="777" y="474" on="0"/>
        <pt x="705" y="331" on="0"/>
        <pt x="574" y="248" on="0"/>
        <pt x="488" y="248" on="1"/>
        <pt x="398" y="248" on="0"/>
        <pt x="266" y="325" on="0"/>
        <pt x="195" y="466" on="0"/>
      </contour>
      <contour>
        <pt x="605" y="387" on="1"/>
        <pt x="620" y="398" on="0"/>
        <pt x="649" y="481" on="0"/>
        <pt x="649" y="557" on="1"/>
        <pt x="649" y="613" on="0"/>
        <pt x="603" y="703" on="0"/>
        <pt x="516" y="755" on="0"/>
        <pt x="457" y="755" on="1"/>
        <pt x="428" y="755" on="0"/>
        <pt x="378" y="744" on="0"/>
        <pt x="369" y="736" on="1"/>
        <pt x="325" y="692" on="0"/>
        <pt x="325" y="563" on="1"/>
        <pt x="325" y="507" on="0"/>
        <pt x="372" y="419" on="0"/>
        <pt x="460" y="368" on="0"/>
        <pt x="521" y="368" on="1"/>
        <pt x="585" y="368" on="0"/>
      </contour>
    </TTGlyph>
    <TTGlyph name="abreve" xMin="68" yMin="-25" xMax="963" yMax="1353">
      <contour>
        <pt x="218" y="475" on="1"/>
        <pt x="276" y="500" on="0"/>
        <pt x="453" y="524" on="0"/>
        <pt x="531" y="524" on="1"/>
        <pt x="572" y="524" on="0"/>
        <pt x="611" y="521" on="1"/>
        <pt x="611" y="575" on="1"/>
        <pt x="611" y="667" on="0"/>
        <pt x="570" y="818" on="0"/>
        <pt x="510" y="851" on="1"/>
        <pt x="489" y="863" on="0"/>
        <pt x="420" y="875" on="0"/>
        <pt x="382" y="875" on="1"/>
        <pt x="348" y="875" on="0"/>
        <pt x="315" y="868" on="1"/>
        <pt x="281" y="686" on="1"/>
        <pt x="253" y="671" on="0"/>
        <pt x="220" y="671" on="1"/>
        <pt x="194" y="671" on="0"/>
        <pt x="139" y="701" on="0"/>
        <pt x="103" y="751" on="0"/>
        <pt x="103" y="779" on="1"/>
        <pt x="103" y="832" on="0"/>
        <pt x="187" y="879" on="1"/>
        <pt x="237" y="906" on="0"/>
        <pt x="374" y="950" on="0"/>
        <pt x="499" y="975" on="0"/>
        <pt x="530" y="975" on="1"/>
        <pt x="668" y="975" on="0"/>
        <pt x="790" y="813" on="0"/>
        <pt x="790" y="674" on="1"/>
        <pt x="790" y="192" on="1"/>
        <pt x="827" y="154" on="0"/>
        <pt x="911" y="105" on="0"/>
        <pt x="963" y="93" on="1"/>
        <pt x="951" y="35" on="1"/>
        <pt x="895" y="9" on="0"/>
        <pt x="776" y="-22" on="0"/>
        <pt x="723" y="-25" on="1"/>
        <pt x="707" y="22" on="0"/>
        <pt x="668" y="96" on="0"/>
        <pt x="638" y="132" on="1"/>
        <pt x="616" y="100" on="0"/>
        <pt x="508" y="25" on="0"/>
        <pt x="379" y="-25" on="0"/>
        <pt x="326" y="-25" on="1"/>
        <pt x="238" y="-25" on="0"/>
        <pt x="122" y="56" on="0"/>
        <pt x="68" y="178" on="0"/>
        <pt x="68" y="241" on="1"/>
        <pt x="68" y="337" on="0"/>
        <pt x="136" y="441" on="0"/>
      </contour>
      <contour>
        <pt x="390" y="106" on="1"/>
        <pt x="435" y="106" on="0"/>
        <pt x="568" y="143" on="0"/>
        <pt x="611" y="165" on="1"/>
        <pt x="611" y="458" on="1"/>
        <pt x="512" y="451" on="0"/>
        <pt x="368" y="415" on="0"/>
        <pt x="286" y="374" on="0"/>
        <pt x="271" y="357" on="1"/>
        <pt x="252" y="338" on="0"/>
        <pt x="252" y="291" on="1"/>
        <pt x="252" y="257" on="0"/>
        <pt x="281" y="181" on="0"/>
        <pt x="329" y="122" on="0"/>
        <pt x="356" y="112" on="1"/>
        <pt x="369" y="106" on="0"/>
      </contour>
      <contour>
        <pt x="193" y="1292" on="1"/>
        <pt x="193" y="1316" on="0"/>
        <pt x="204" y="1353" on="1"/>
        <pt x="312" y="1353" on="1"/>
        <pt x="319" y="1295" on="0"/>
        <pt x="370" y="1221" on="0"/>
        <pt x="432" y="1188" on="0"/>
        <pt x="457" y="1188" on="1"/>
        <pt x="483" y="1188" on="0"/>
        <pt x="545" y="1221" on="0"/>
        <pt x="596" y="1295" on="0"/>
        <pt x="604" y="1353" on="1"/>
        <pt x="711" y="1353" on="1"/>
        <pt x="722" y="1318" on="0"/>
        <pt x="722" y="1293" on="1"/>
        <pt x="722" y="1235" on="0"/>
        <pt x="648" y="1136" on="0"/>
        <pt x="526" y="1079" on="0"/>
        <pt x="457" y="1079" on="1"/>
        <pt x="388" y="1079" on="0"/>
        <pt x="266" y="1136" on="0"/>
        <pt x="193" y="1234" on="0"/>
      </contour>
    </TTGlyph>
    <TTGlyph name="acircumflex" xMin="68" yMin="-25" xMax="963" yMax="1391">
      <contour>
        <pt x="218" y="475" on="1"/>
        <pt x="276" y="500" on="0"/>
        <pt x="453" y="524" on="0"/>
        <pt x="531" y="524" on="1"/>
        <pt x="572" y="524" on="0"/>
        <pt x="611" y="521" on="1"/>
        <pt x="611" y="575" on="1"/>
        <pt x="611" y="667" on="0"/>
        <pt x="570" y="818" on="0"/>
        <pt x="510" y="851" on="1"/>
        <pt x="489" y="863" on="0"/>
        <pt x="420" y="875" on="0"/>
        <pt x="382" y="875" on="1"/>
        <pt x="348" y="875" on="0"/>
        <pt x="315" y="868" on="1"/>
        <pt x="281" y="686" on="1"/>
        <pt x="253" y="671" on="0"/>
        <pt x="220" y="671" on="1"/>
        <pt x="194" y="671" on="0"/>
        <pt x="139" y="701" on="0"/>
        <pt x="103" y="751" on="0"/>
        <pt x="103" y="779" on="1"/>
        <pt x="103" y="832" on="0"/>
        <pt x="187" y="879" on="1"/>
        <pt x="237" y="906" on="0"/>
        <pt x="374" y="950" on="0"/>
        <pt x="499" y="975" on="0"/>
        <pt x="530" y="975" on="1"/>
        <pt x="668" y="975" on="0"/>
        <pt x="790" y="813" on="0"/>
        <pt x="790" y="674" on="1"/>
        <pt x="790" y="192" on="1"/>
        <pt x="827" y="154" on="0"/>
        <pt x="911" y="105" on="0"/>
        <pt x="963" y="93" on="1"/>
        <pt x="951" y="35" on="1"/>
        <pt x="895" y="9" on="0"/>
        <pt x="776" y="-22" on="0"/>
        <pt x="723" y="-25" on="1"/>
        <pt x="707" y="22" on="0"/>
        <pt x="668" y="96" on="0"/>
        <pt x="638" y="132" on="1"/>
        <pt x="616" y="100" on="0"/>
        <pt x="508" y="25" on="0"/>
        <pt x="379" y="-25" on="0"/>
        <pt x="326" y="-25" on="1"/>
        <pt x="238" y="-25" on="0"/>
        <pt x="122" y="56" on="0"/>
        <pt x="68" y="178" on="0"/>
        <pt x="68" y="241" on="1"/>
        <pt x="68" y="337" on="0"/>
        <pt x="136" y="441" on="0"/>
      </contour>
      <contour>
        <pt x="390" y="106" on="1"/>
        <pt x="435" y="106" on="0"/>
        <pt x="568" y="143" on="0"/>
        <pt x="611" y="165" on="1"/>
        <pt x="611" y="458" on="1"/>
        <pt x="512" y="451" on="0"/>
        <pt x="368" y="415" on="0"/>
        <pt x="286" y="374" on="0"/>
        <pt x="271" y="357" on="1"/>
        <pt x="252" y="338" on="0"/>
        <pt x="252" y="291" on="1"/>
        <pt x="252" y="257" on="0"/>
        <pt x="281" y="181" on="0"/>
        <pt x="329" y="122" on="0"/>
        <pt x="356" y="112" on="1"/>
        <pt x="369" y="106" on="0"/>
      </contour>
      <contour>
        <pt x="152" y="1145" on="1"/>
        <pt x="404" y="1391" on="1"/>
        <pt x="513" y="1391" on="1"/>
        <pt x="764" y="1145" on="1"/>
        <pt x="701" y="1083" on="1"/>
        <pt x="458" y="1229" on="1"/>
        <pt x="215" y="1083" on="1"/>
      </contour>
    </TTGlyph>
    <TTGlyph name="acute" xMin="335" yMin="1061" xMax="726" yMax="1447">
      <contour>
        <pt x="697" y="1447" on="1"/>
        <pt x="726" y="1298" on="1"/>
        <pt x="358" y="1061" on="1"/>
        <pt x="335" y="1183" on="1"/>
        <pt x="633" y="1447" on="1"/>
      </contour>
    </TTGlyph>
    <TTGlyph name="acutedeva" xMin="-829" yMin="1292" xMax="-323" yMax="1772">
      <contour>
        <pt x="-427" y="1772" on="1"/>
        <pt x="-323" y="1690" on="1"/>
        <pt x="-753" y="1292" on="1"/>
        <pt x="-829" y="1372" on="1"/>
      </contour>
    </TTGlyph>
    <TTGlyph name="adeva" xMin="17" yMin="-100" xMax="1492" yMax="1198">
      <contour>
        <pt x="1283" y="1053" on="1"/>
        <pt x="1283" y="-100" on="1"/>
        <pt x="1129" y="-38" on="1"/>
        <pt x="1129" y="528" on="1"/>
        <pt x="1071" y="488" on="0"/>
        <pt x="982" y="488" on="1"/>
        <pt x="911" y="488" on="0"/>
        <pt x="819" y="526" on="1"/>
        <pt x="857" y="482" on="0"/>
        <pt x="894" y="391" on="0"/>
        <pt x="894" y="338" on="1"/>
        <pt x="894" y="246" on="0"/>
        <pt x="800" y="106" on="0"/>
        <pt x="639" y="31" on="0"/>
        <pt x="542" y="31" on="1"/>
        <pt x="215" y="31" on="0"/>
        <pt x="17" y="474" on="1"/>
        <pt x="107" y="516" on="1"/>
        <pt x="180" y="392" on="0"/>
        <pt x="309" y="242" on="0"/>
        <pt x="436" y="172" on="0"/>
        <pt x="508" y="172" on="1"/>
        <pt x="572" y="172" on="0"/>
        <pt x="675" y="228" on="0"/>
        <pt x="733" y="323" on="0"/>
        <pt x="733" y="381" on="1"/>
        <pt x="733" y="515" on="0"/>
        <pt x="607" y="614" on="1"/>
        <pt x="543" y="583" on="0"/>
        <pt x="458" y="569" on="1"/>
        <pt x="369" y="707" on="1"/>
        <pt x="487" y="740" on="0"/>
        <pt x="621" y="813" on="0"/>
        <pt x="681" y="908" on="0"/>
        <pt x="682" y="976" on="1"/>
        <pt x="682" y="1003" on="0"/>
        <pt x="669" y="1051" on="0"/>
        <pt x="658" y="1062" on="1"/>
        <pt x="649" y="1072" on="0"/>
        <pt x="602" y="1083" on="0"/>
        <pt x="570" y="1083" on="1"/>
        <pt x="505" y="1083" on="0"/>
        <pt x="345" y="985" on="0"/>
        <pt x="278" y="905" on="1"/>
        <pt x="168" y="1037" on="1"/>
        <pt x="232" y="1111" on="0"/>
        <pt x="401" y="1198" on="0"/>
        <pt x="488" y="1198" on="1"/>
        <pt x="573" y="1198" on="0"/>
        <pt x="716" y="1111" on="0"/>
        <pt x="800" y="971" on="0"/>
        <pt x="800" y="896" on="1"/>
        <pt x="800" y="827" on="0"/>
        <pt x="744" y="710" on="0"/>
        <pt x="690" y="665" on="1"/>
        <pt x="773" y="616" on="0"/>
        <pt x="892" y="616" on="1"/>
        <pt x="965" y="616" on="0"/>
        <pt x="1095" y="673" on="0"/>
        <pt x="1129" y="720" on="1"/>
        <pt x="1129" y="1053" on="1"/>
        <pt x="980" y="1053" on="1"/>
        <pt x="926" y="1187" on="1"/>
        <pt x="1442" y="1187" on="1"/>
        <pt x="1492" y="1053" on="1"/>
      </contour>
    </TTGlyph>
    <TTGlyph name="adieresis" xMin="68" yMin="-25" xMax="963" yMax="1390">
      <contour>
        <pt x="218" y="475" on="1"/>
        <pt x="276" y="500" on="0"/>
        <pt x="453" y="524" on="0"/>
        <pt x="531" y="524" on="1"/>
        <pt x="572" y="524" on="0"/>
        <pt x="611" y="521" on="1"/>
        <pt x="611" y="575" on="1"/>
        <pt x="611" y="667" on="0"/>
        <pt x="570" y="818" on="0"/>
        <pt x="510" y="851" on="1"/>
        <pt x="489" y="863" on="0"/>
        <pt x="420" y="875" on="0"/>
        <pt x="382" y="875" on="1"/>
        <pt x="348" y="875" on="0"/>
        <pt x="315" y="868" on="1"/>
        <pt x="281" y="686" on="1"/>
        <pt x="253" y="671" on="0"/>
        <pt x="220" y="671" on="1"/>
        <pt x="194" y="671" on="0"/>
        <pt x="139" y="701" on="0"/>
        <pt x="103" y="751" on="0"/>
        <pt x="103" y="779" on="1"/>
        <pt x="103" y="832" on="0"/>
        <pt x="187" y="879" on="1"/>
        <pt x="237" y="906" on="0"/>
        <pt x="374" y="950" on="0"/>
        <pt x="499" y="975" on="0"/>
        <pt x="530" y="975" on="1"/>
        <pt x="668" y="975" on="0"/>
        <pt x="790" y="813" on="0"/>
        <pt x="790" y="674" on="1"/>
        <pt x="790" y="192" on="1"/>
        <pt x="827" y="154" on="0"/>
        <pt x="911" y="105" on="0"/>
        <pt x="963" y="93" on="1"/>
        <pt x="951" y="35" on="1"/>
        <pt x="895" y="9" on="0"/>
        <pt x="776" y="-22" on="0"/>
        <pt x="723" y="-25" on="1"/>
        <pt x="707" y="22" on="0"/>
        <pt x="668" y="96" on="0"/>
        <pt x="638" y="132" on="1"/>
        <pt x="616" y="100" on="0"/>
        <pt x="508" y="25" on="0"/>
        <pt x="379" y="-25" on="0"/>
        <pt x="326" y="-25" on="1"/>
        <pt x="238" y="-25" on="0"/>
        <pt x="122" y="56" on="0"/>
        <pt x="68" y="178" on="0"/>
        <pt x="68" y="241" on="1"/>
        <pt x="68" y="337" on="0"/>
        <pt x="136" y="441" on="0"/>
      </contour>
      <contour>
        <pt x="390" y="106" on="1"/>
        <pt x="435" y="106" on="0"/>
        <pt x="568" y="143" on="0"/>
        <pt x="611" y="165" on="1"/>
        <pt x="611" y="458" on="1"/>
        <pt x="512" y="451" on="0"/>
        <pt x="368" y="415" on="0"/>
        <pt x="286" y="374" on="0"/>
        <pt x="271" y="357" on="1"/>
        <pt x="252" y="338" on="0"/>
        <pt x="252" y="291" on="1"/>
        <pt x="252" y="257" on="0"/>
        <pt x="281" y="181" on="0"/>
        <pt x="329" y="122" on="0"/>
        <pt x="356" y="112" on="1"/>
        <pt x="369" y="106" on="0"/>
      </contour>
      <contour>
        <pt x="173" y="1253" on="1"/>
        <pt x="173" y="1292" on="0"/>
        <pt x="191" y="1367" on="0"/>
        <pt x="205" y="1379" on="1"/>
        <pt x="217" y="1390" on="0"/>
        <pt x="258" y="1390" on="1"/>
        <pt x="296" y="1390" on="0"/>
        <pt x="372" y="1371" on="0"/>
        <pt x="385" y="1356" on="1"/>
        <pt x="396" y="1344" on="0"/>
        <pt x="396" y="1302" on="1"/>
        <pt x="396" y="1264" on="0"/>
        <pt x="377" y="1187" on="0"/>
        <pt x="363" y="1175" on="1"/>
        <pt x="350" y="1165" on="0"/>
        <pt x="312" y="1165" on="1"/>
        <pt x="274" y="1165" on="0"/>
        <pt x="194" y="1184" on="0"/>
        <pt x="184" y="1197" on="1"/>
        <pt x="173" y="1211" on="0"/>
      </contour>
      <contour>
        <pt x="520" y="1254" on="1"/>
        <pt x="520" y="1292" on="0"/>
        <pt x="538" y="1367" on="0"/>
        <pt x="552" y="1379" on="1"/>
        <pt x="564" y="1390" on="0"/>
        <pt x="606" y="1390" on="1"/>
        <pt x="644" y="1390" on="0"/>
        <pt x="720" y="1371" on="0"/>
        <pt x="733" y="1356" on="1"/>
        <pt x="744" y="1345" on="0"/>
        <pt x="744" y="1303" on="1"/>
        <pt x="744" y="1265" on="0"/>
        <pt x="725" y="1187" on="0"/>
        <pt x="710" y="1175" on="1"/>
        <pt x="694" y="1164" on="0"/>
        <pt x="654" y="1164" on="1"/>
        <pt x="617" y="1164" on="0"/>
        <pt x="543" y="1183" on="0"/>
        <pt x="531" y="1197" on="1"/>
        <pt x="520" y="1211" on="0"/>
      </contour>
    </TTGlyph>
    <TTGlyph name="ae" xMin="67" yMin="-25" xMax="1357" yMax="975">
      <contour>
        <pt x="217" y="475" on="1"/>
        <pt x="276" y="499" on="0"/>
        <pt x="453" y="523" on="0"/>
        <pt x="531" y="523" on="1"/>
        <pt x="567" y="523" on="0"/>
        <pt x="619" y="521" on="1"/>
        <pt x="619" y="575" on="1"/>
        <pt x="619" y="796" on="0"/>
        <pt x="508" y="851" on="1"/>
        <pt x="462" y="875" on="0"/>
        <pt x="381" y="875" on="1"/>
        <pt x="347" y="875" on="0"/>
        <pt x="314" y="868" on="1"/>
        <pt x="279" y="686" on="1"/>
        <pt x="251" y="671" on="0"/>
        <pt x="219" y="671" on="1"/>
        <pt x="192" y="671" on="0"/>
        <pt x="137" y="701" on="0"/>
        <pt x="101" y="751" on="0"/>
        <pt x="101" y="779" on="1"/>
        <pt x="101" y="809" on="0"/>
        <pt x="147" y="857" on="0"/>
        <pt x="185" y="879" on="1"/>
        <pt x="237" y="907" on="0"/>
        <pt x="373" y="951" on="0"/>
        <pt x="496" y="975" on="0"/>
        <pt x="528" y="975" on="1"/>
        <pt x="698" y="975" on="0"/>
        <pt x="761" y="853" on="1"/>
        <pt x="873" y="975" on="0"/>
        <pt x="1043" y="975" on="1"/>
        <pt x="1143" y="975" on="0"/>
        <pt x="1285" y="891" on="0"/>
        <pt x="1357" y="746" on="0"/>
        <pt x="1357" y="657" on="1"/>
        <pt x="1357" y="594" on="0"/>
        <pt x="1335" y="523" on="1"/>
        <pt x="1329" y="505" on="0"/>
        <pt x="1311" y="489" on="0"/>
        <pt x="1293" y="489" on="1"/>
        <pt x="784" y="489" on="1"/>
        <pt x="784" y="392" on="0"/>
        <pt x="860" y="222" on="0"/>
        <pt x="995" y="119" on="0"/>
        <pt x="1079" y="119" on="1"/>
        <pt x="1147" y="119" on="0"/>
        <pt x="1289" y="172" on="0"/>
        <pt x="1325" y="195" on="1"/>
        <pt x="1350" y="157" on="1"/>
        <pt x="1289" y="87" on="0"/>
        <pt x="1109" y="-25" on="0"/>
        <pt x="1011" y="-25" on="1"/>
        <pt x="811" y="-25" on="0"/>
        <pt x="691" y="129" on="1"/>
        <pt x="659" y="94" on="0"/>
        <pt x="538" y="22" on="0"/>
        <pt x="391" y="-25" on="0"/>
        <pt x="324" y="-25" on="1"/>
        <pt x="236" y="-25" on="0"/>
        <pt x="121" y="56" on="0"/>
        <pt x="67" y="178" on="0"/>
        <pt x="67" y="241" on="1"/>
        <pt x="67" y="337" on="0"/>
        <pt x="135" y="441" on="0"/>
      </contour>
      <contour>
        <pt x="963" y="859" on="1"/>
        <pt x="890" y="859" on="0"/>
        <pt x="866" y="833" on="1"/>
        <pt x="839" y="804" on="0"/>
        <pt x="790" y="660" on="0"/>
        <pt x="784" y="563" on="1"/>
        <pt x="1194" y="598" on="1"/>
        <pt x="1194" y="678" on="0"/>
        <pt x="1134" y="796" on="0"/>
        <pt x="1029" y="859" on="0"/>
      </contour>
      <contour>
        <pt x="389" y="106" on="1"/>
        <pt x="439" y="106" on="0"/>
        <pt x="573" y="143" on="0"/>
        <pt x="619" y="166" on="1"/>
        <pt x="619" y="458" on="1"/>
        <pt x="515" y="451" on="0"/>
        <pt x="367" y="414" on="0"/>
        <pt x="286" y="373" on="0"/>
        <pt x="270" y="357" on="1"/>
        <pt x="251" y="337" on="0"/>
        <pt x="251" y="291" on="1"/>
        <pt x="251" y="257" on="0"/>
        <pt x="280" y="181" on="0"/>
        <pt x="328" y="122" on="0"/>
        <pt x="355" y="112" on="1"/>
        <pt x="368" y="106" on="0"/>
      </contour>
    </TTGlyph>
    <TTGlyph name="agrave" xMin="68" yMin="-25" xMax="963" yMax="1447">
      <contour>
        <pt x="218" y="475" on="1"/>
        <pt x="276" y="500" on="0"/>
        <pt x="453" y="524" on="0"/>
        <pt x="531" y="524" on="1"/>
        <pt x="572" y="524" on="0"/>
        <pt x="611" y="521" on="1"/>
        <pt x="611" y="575" on="1"/>
        <pt x="611" y="667" on="0"/>
        <pt x="570" y="818" on="0"/>
        <pt x="510" y="851" on="1"/>
        <pt x="489" y="863" on="0"/>
        <pt x="420" y="875" on="0"/>
        <pt x="382" y="875" on="1"/>
        <pt x="348" y="875" on="0"/>
        <pt x="315" y="868" on="1"/>
        <pt x="281" y="686" on="1"/>
        <pt x="253" y="671" on="0"/>
        <pt x="220" y="671" on="1"/>
        <pt x="194" y="671" on="0"/>
        <pt x="139" y="701" on="0"/>
        <pt x="103" y="751" on="0"/>
        <pt x="103" y="779" on="1"/>
        <pt x="103" y="832" on="0"/>
        <pt x="187" y="879" on="1"/>
        <pt x="237" y="906" on="0"/>
        <pt x="374" y="950" on="0"/>
        <pt x="499" y="975" on="0"/>
        <pt x="530" y="975" on="1"/>
        <pt x="668" y="975" on="0"/>
        <pt x="790" y="813" on="0"/>
        <pt x="790" y="674" on="1"/>
        <pt x="790" y="192" on="1"/>
        <pt x="827" y="154" on="0"/>
        <pt x="911" y="105" on="0"/>
        <pt x="963" y="93" on="1"/>
        <pt x="951" y="35" on="1"/>
        <pt x="895" y="9" on="0"/>
        <pt x="776" y="-22" on="0"/>
        <pt x="723" y="-25" on="1"/>
        <pt x="707" y="22" on="0"/>
        <pt x="668" y="96" on="0"/>
        <pt x="638" y="132" on="1"/>
        <pt x="616" y="100" on="0"/>
        <pt x="508" y="25" on="0"/>
        <pt x="379" y="-25" on="0"/>
        <pt x="326" y="-25" on="1"/>
        <pt x="238" y="-25" on="0"/>
        <pt x="122" y="56" on="0"/>
        <pt x="68" y="178" on="0"/>
        <pt x="68" y="241" on="1"/>
        <pt x="68" y="337" on="0"/>
        <pt x="136" y="441" on="0"/>
      </contour>
      <contour>
        <pt x="390" y="106" on="1"/>
        <pt x="435" y="106" on="0"/>
        <pt x="568" y="143" on="0"/>
        <pt x="611" y="165" on="1"/>
        <pt x="611" y="458" on="1"/>
        <pt x="512" y="451" on="0"/>
        <pt x="368" y="415" on="0"/>
        <pt x="286" y="374" on="0"/>
        <pt x="271" y="357" on="1"/>
        <pt x="252" y="338" on="0"/>
        <pt x="252" y="291" on="1"/>
        <pt x="252" y="257" on="0"/>
        <pt x="281" y="181" on="0"/>
        <pt x="329" y="122" on="0"/>
        <pt x="356" y="112" on="1"/>
        <pt x="369" y="106" on="0"/>
      </contour>
      <contour>
        <pt x="272" y="1447" on="1"/>
        <pt x="338" y="1447" on="1"/>
        <pt x="634" y="1183" on="1"/>
        <pt x="612" y="1061" on="1"/>
        <pt x="243" y="1298" on="1"/>
      </contour>
    </TTGlyph>
    <TTGlyph name="aideva" xMin="-52" yMin="-313" xMax="1165" yMax="1694">
      <contour>
        <pt x="984" y="1053" on="1"/>
        <pt x="984" y="695" on="1"/>
        <pt x="984" y="585" on="0"/>
        <pt x="957" y="459" on="0"/>
        <pt x="880" y="374" on="0"/>
        <pt x="802" y="338" on="1"/>
        <pt x="657" y="446" on="1"/>
        <pt x="745" y="482" on="0"/>
        <pt x="830" y="565" on="0"/>
        <pt x="830" y="630" on="1"/>
        <pt x="830" y="1053" on="1"/>
        <pt x="322" y="1053" on="1"/>
        <pt x="322" y="539" on="1"/>
        <pt x="322" y="490" on="0"/>
        <pt x="342" y="445" on="0"/>
        <pt x="372" y="425" on="1"/>
        <pt x="464" y="361" on="0"/>
        <pt x="657" y="244" on="1"/>
        <pt x="776" y="170" on="0"/>
        <pt x="812" y="147" on="1"/>
        <pt x="866" y="113" on="0"/>
        <pt x="923" y="9" on="0"/>
        <pt x="923" y="-49" on="1"/>
        <pt x="923" y="-106" on="0"/>
        <pt x="860" y="-225" on="0"/>
        <pt x="781" y="-313" on="1"/>
        <pt x="640" y="-199" on="1"/>
        <pt x="701" y="-138" on="0"/>
        <pt x="760" y="-55" on="0"/>
        <pt x="760" y="-17" on="1"/>
        <pt x="760" y="10" on="0"/>
        <pt x="737" y="51" on="0"/>
        <pt x="706" y="70" on="1"/>
        <pt x="674" y="90" on="1"/>
        <pt x="501" y="201" on="0"/>
        <pt x="303" y="322" on="1"/>
        <pt x="237" y="362" on="0"/>
        <pt x="181" y="423" on="0"/>
        <pt x="163" y="509" on="0"/>
        <pt x="163" y="596" on="1"/>
        <pt x="163" y="1053" on="1"/>
        <pt x="3" y="1053" on="1"/>
        <pt x="-52" y="1187" on="1"/>
        <pt x="854" y="1187" on="1"/>
        <pt x="808" y="1283" on="0"/>
        <pt x="689" y="1428" on="0"/>
        <pt x="587" y="1512" on="0"/>
        <pt x="565" y="1520" on="1"/>
        <pt x="534" y="1531" on="0"/>
        <pt x="476" y="1531" on="1"/>
        <pt x="441" y="1531" on="0"/>
        <pt x="366" y="1518" on="0"/>
        <pt x="311" y="1502" on="1"/>
        <pt x="247" y="1658" on="1"/>
        <pt x="294" y="1681" on="0"/>
        <pt x="377" y="1694" on="0"/>
        <pt x="427" y="1694" on="1"/>
        <pt x="549" y="1694" on="0"/>
        <pt x="637" y="1626" on="1"/>
        <pt x="733" y="1551" on="0"/>
        <pt x="916" y="1307" on="0"/>
        <pt x="962" y="1187" on="1"/>
        <pt x="1113" y="1187" on="1"/>
        <pt x="1165" y="1053" on="1"/>
      </contour>
    </TTGlyph>
</ttFont>
